SplineFontDB: 3.0
FontName: Neuton-Regular
FullName: Neuton Regular
FamilyName: Neuton
Weight: Regular
Copyright: Copyright (c) 2010, 2011 Brian M Zick (http://21326.info/), \nwith Reserved Font Name 'Neuton'.\n\nThis Font Software is licensed under the SIL Open Font License, Version 1.1.\nThis license is available with a FAQ at: http://scripts.sil.org/OFL\n   WITHOUT WARRANTIES OR CONDITIONS OF ANY KIND, either express or implied.\n   See the License for the specific language governing permissions and\n   limitations under the License.
Version: 1.46
ItalicAngle: 0
UnderlinePosition: -361
UnderlineWidth: 0
Ascent: 1638
Descent: 410
LayerCount: 2
Layer: 0 0 "Back"  1
Layer: 1 0 "Fore"  0
FSType: 1
OS2Version: 1
OS2_WeightWidthSlopeOnly: 0
OS2_UseTypoMetrics: 0
CreationTime: 1305772905
ModificationTime: 1332376277
PfmFamily: 17
TTFWeight: 500
TTFWidth: 5
LineGap: 0
VLineGap: 0
OS2TypoAscent: 2106
OS2TypoAOffset: 0
OS2TypoDescent: -485
OS2TypoDOffset: 0
OS2TypoLinegap: 0
OS2WinAscent: 2106
OS2WinAOffset: 0
OS2WinDescent: 485
OS2WinDOffset: 0
HheadAscent: 2106
HheadAOffset: 0
HheadDescent: -485
HheadDOffset: 0
OS2SubXSize: 1095
OS2SubYSize: 1179
OS2SubXOff: 0
OS2SubYOff: 235
OS2SupXSize: 1095
OS2SupYSize: 1179
OS2SupXOff: 0
OS2SupYOff: 809
OS2StrikeYSize: 84
OS2StrikeYPos: 436
OS2Vendor: 'PfEd'
OS2CodePages: a00000b3.00000000
Lookup: 3 0 0 "'salt' Stylistic Alternates"  {"Alternate Substitution in Latin lookup 0-1"  } ['salt' ('DFLT' <'dflt' > 'latn' <'dflt' > ) ]
Lookup: 1 0 0 "'c2sc' Capitals to Small Capitals in Latin lookup 3"  {"'c2sc' Capitals to Small Capitals in Latin lookup 3-1" ("sc" ) } ['c2sc' ('DFLT' <'dflt' > 'latn' <'dflt' > ) ]
Lookup: 1 0 0 "'smcp' Lowercase to Small Capitals in Latin lookup 0"  {"'smcp' Lowercase to Small Capitals in Latin lookup 0 subtable" ("sc" ) } ['smcp' ('latn' <'dflt' > ) ]

StartChar: A
Encoding: 33 65 0
Width: 1278
VWidth: 1691
Flags: HMW
LayerCount: 2
Fore
SplineSet
-26 0 m 1
 -17 74 l 1
 132 129 l 1
 559 1237 l 1
 710 1268 l 1
 1100 124 l 1
 1237 80 l 1
 1228 0 l 1
 713 0 l 1
 725 74 l 1
 896 129 l 1
 787 432 l 1
 368 432 l 1
 267 124 l 1
 453 80 l 1
 442 0 l 1
 -26 0 l 1
406 534 m 1
 758 534 l 1
 592 1034 l 1
 406 534 l 1
EndSplineSet
Substitution2: "'c2sc' Capitals to Small Capitals in Latin lookup 3-1" a.sc
Colour: ffffff
EndChar

StartChar: AE
Encoding: 133 198 1
Width: 1684
VWidth: 0
Flags: HMW
LayerCount: 2
Fore
SplineSet
-40 1 m 5
 -31 76 l 5
 105 131 l 5
 738 1126 l 5
 524 1168 l 5
 534 1244 l 5
 1596 1244 l 5
 1564 927 l 5
 1478 940 l 5
 1436 1152 l 5
 998 1152 l 5
 998 679 l 5
 1257 679 l 5
 1299 802 l 5
 1394 810 l 5
 1360 424 l 5
 1275 409 l 5
 1241 586 l 5
 998 586 l 5
 998 96 l 5
 1462 96 l 5
 1563 329 l 5
 1643 313 l 5
 1613 0 l 5
 642 0 l 5
 650 74 l 5
 817 121 l 5
 817 472 l 5
 458 472 l 5
 240 126 l 5
 428 83 l 5
 415 1 l 5
 -40 1 l 5
510 568 m 5
 817 568 l 5
 817 1058 l 5
 510 568 l 5
EndSplineSet
Substitution2: "'c2sc' Capitals to Small Capitals in Latin lookup 3-1" ae.sc
Colour: ffffff
EndChar

StartChar: Aacute
Encoding: 128 193 2
Width: 1234
VWidth: 0
Flags: HMW
LayerCount: 2
Fore
SplineSet
-37 0 m 1
 -28 74 l 1
 121 129 l 1
 559 1237 l 1
 710 1268 l 1
 1100 124 l 1
 1237 80 l 1
 1228 0 l 1
 713 0 l 1
 725 74 l 1
 896 129 l 1
 787 432 l 1
 368 432 l 1
 256 124 l 1
 442 80 l 1
 431 0 l 1
 -37 0 l 1
406 534 m 1
 758 534 l 1
 592 1034 l 1
 406 534 l 1
593 1385 m 1
 716 1710 l 1
 827 1670 l 1
 643 1354 l 1
 593 1385 l 1
EndSplineSet
Substitution2: "'c2sc' Capitals to Small Capitals in Latin lookup 3-1" aacute.sc
Colour: ffffff
EndChar

StartChar: Acircumflex
Encoding: 129 194 3
Width: 1234
VWidth: 0
Flags: HMW
LayerCount: 2
Fore
SplineSet
-37 0 m 1
 -28 74 l 1
 121 129 l 1
 559 1237 l 1
 710 1268 l 1
 1100 124 l 1
 1237 80 l 1
 1228 0 l 1
 713 0 l 1
 725 74 l 1
 896 129 l 1
 787 432 l 1
 368 432 l 1
 256 124 l 1
 442 80 l 1
 431 0 l 1
 -37 0 l 1
406 534 m 1
 758 534 l 1
 592 1034 l 1
 406 534 l 1
443 1392 m 1
 611 1572 l 1
 666 1585 l 1
 844 1400 l 1
 794 1364 l 1
 632 1472 l 1
 621 1472 l 1
 480 1361 l 1
 443 1392 l 1
EndSplineSet
Substitution2: "'c2sc' Capitals to Small Capitals in Latin lookup 3-1" acircumflex.sc
Colour: ffffff
EndChar

StartChar: Adieresis
Encoding: 131 196 4
Width: 1234
VWidth: 0
Flags: HMW
LayerCount: 2
Fore
SplineSet
-37 0 m 1
 -28 74 l 1
 121 129 l 1
 559 1237 l 1
 710 1268 l 1
 1100 124 l 1
 1237 80 l 1
 1228 0 l 1
 713 0 l 1
 725 74 l 1
 896 129 l 1
 787 432 l 1
 368 432 l 1
 256 124 l 1
 442 80 l 1
 431 0 l 1
 -37 0 l 1
406 534 m 1
 758 534 l 1
 592 1034 l 1
 406 534 l 1
423 1453 m 0
 423 1500 466 1530 506 1530 c 0
 550 1530 592 1499 592 1453 c 0
 592 1404 550 1373 506 1373 c 0
 463 1373 423 1404 423 1453 c 0
690 1453 m 0
 690 1500 733 1530 773 1530 c 0
 817 1530 861 1499 861 1453 c 0
 861 1404 817 1373 773 1373 c 0
 730 1373 690 1404 690 1453 c 0
EndSplineSet
Substitution2: "'c2sc' Capitals to Small Capitals in Latin lookup 3-1" adieresis.sc
Colour: ffffff
EndChar

StartChar: Agrave
Encoding: 127 192 5
Width: 2048
VWidth: 0
Flags: HM
LayerCount: 2
Fore
SplineSet
-37 0 m 1
 -28 74 l 1
 121 129 l 1
 559 1237 l 1
 710 1268 l 1
 1100 124 l 1
 1237 80 l 1
 1228 0 l 1
 713 0 l 1
 725 74 l 1
 896 129 l 1
 787 432 l 1
 368 432 l 1
 256 124 l 1
 442 80 l 1
 431 0 l 1
 -37 0 l 1
406 534 m 1
 758 534 l 1
 592 1034 l 1
 406 534 l 1
436 1664 m 1
 552 1702 l 1
 684 1368 l 1
 627 1334 l 1
 436 1664 l 1
EndSplineSet
Substitution2: "'c2sc' Capitals to Small Capitals in Latin lookup 3-1" agrave.sc
Colour: ffffff
EndChar

StartChar: Aring
Encoding: 132 197 6
Width: 1234
VWidth: 0
Flags: HMW
LayerCount: 2
Fore
SplineSet
-37 0 m 1
 -28 74 l 1
 121 129 l 1
 559 1237 l 1
 710 1268 l 1
 1100 124 l 1
 1237 80 l 1
 1228 0 l 1
 713 0 l 1
 725 74 l 1
 896 129 l 1
 787 432 l 1
 368 432 l 1
 256 124 l 1
 442 80 l 1
 431 0 l 1
 -37 0 l 1
406 534 m 1
 758 534 l 1
 592 1034 l 1
 406 534 l 1
480 1532 m 0
 480 1624 556 1704 649 1704 c 0
 745 1704 804 1635 804 1542 c 0
 804 1452 738 1367 636 1367 c 0
 544 1367 480 1430 480 1532 c 0
552 1543 m 0
 552 1482 583 1415 647 1415 c 0
 701 1415 734 1456 734 1529 c 0
 734 1591 698 1656 636 1656 c 0
 577 1656 552 1599 552 1543 c 0
EndSplineSet
Substitution2: "'c2sc' Capitals to Small Capitals in Latin lookup 3-1" aring.sc
Colour: ffffff
EndChar

StartChar: Atilde
Encoding: 130 195 7
Width: 1234
VWidth: 0
Flags: HMW
LayerCount: 2
Fore
SplineSet
-37 0 m 1
 -28 74 l 1
 121 129 l 1
 559 1237 l 1
 710 1268 l 1
 1100 124 l 1
 1237 80 l 1
 1228 0 l 1
 713 0 l 1
 725 74 l 1
 896 129 l 1
 787 432 l 1
 368 432 l 1
 256 124 l 1
 442 80 l 1
 431 0 l 1
 -37 0 l 1
406 534 m 1
 758 534 l 1
 592 1034 l 1
 406 534 l 1
406 1383 m 1
 406 1383 440 1526 529 1526 c 0
 533 1526 539 1527 543 1526 c 2
 764 1496 l 1
 768 1496 l 2
 793 1496 825 1536 825 1536 c 1
 872 1535 l 1
 872 1535 835 1391 743 1391 c 0
 739 1391 734 1391 730 1392 c 2
 507 1423 l 1
 504 1423 l 2
 476 1423 445 1376 445 1376 c 1
 406 1383 l 1
EndSplineSet
Substitution2: "'c2sc' Capitals to Small Capitals in Latin lookup 3-1" atilde.sc
Colour: ffffff
EndChar

StartChar: B
Encoding: 34 66 8
Width: 1127
VWidth: 1691
Flags: HMW
LayerCount: 2
Fore
SplineSet
50 0 m 1
 61 74 l 1
 228 121 l 1
 228 1104 l 1
 57 1134 l 1
 67 1211 l 1
 212 1232 382 1257 559 1257 c 0
 869 1257 996 1118 996 967 c 0
 996 863 947 736 790 679 c 1
 790 672 l 1
 995 661 1100 512 1100 380 c 0
 1100 192 970 0 568 0 c 2
 50 0 l 1
420 96 m 1
 640 96 l 2
 814 96 904 218 904 347 c 0
 904 471 818 605 643 605 c 2
 420 605 l 1
 420 96 l 1
420 688 m 1
 678 688 l 1
 764 724 808 795 808 909 c 0
 808 1033 743 1171 500 1171 c 0
 476 1171 447 1168 420 1164 c 1
 420 688 l 1
EndSplineSet
Substitution2: "'c2sc' Capitals to Small Capitals in Latin lookup 3-1" b.sc
Colour: ffffff
EndChar

StartChar: C
Encoding: 35 67 9
Width: 1111
VWidth: 1691
Flags: HMW
LayerCount: 2
Fore
SplineSet
61 589 m 0
 61 884 246 1269 704 1269 c 0
 836 1269 970 1242 1066 1169 c 1
 1035 837 l 1
 947 850 l 1
 905 1070 l 1
 859 1129 776 1174 647 1174 c 0
 439 1174 275 980 275 658 c 0
 275 299 491 111 728 111 c 0
 862 111 992 182 1078 261 c 1
 1113 185 l 1
 1034 89 859 -24 651 -24 c 0
 344 -24 61 190 61 589 c 0
EndSplineSet
Substitution2: "'c2sc' Capitals to Small Capitals in Latin lookup 3-1" c.sc
Colour: ffffff
EndChar

StartChar: Ccedilla
Encoding: 134 199 10
Width: 2048
VWidth: 0
Flags: HM
LayerCount: 2
Fore
SplineSet
61 589 m 0
 61 884 247 1269 705 1269 c 0
 837 1269 970 1242 1066 1169 c 1
 1035 837 l 1
 947 850 l 1
 906 1070 l 1
 860 1129 776 1174 647 1174 c 0
 439 1174 275 980 275 658 c 0
 275 299 492 111 729 111 c 0
 863 111 992 182 1078 261 c 1
 1114 185 l 1
 1047 104 910 9 743 -18 c 1
 703 -76 l 1
 740 -109 792 -160 792 -227 c 0
 792 -306 708 -355 592 -389 c 1
 572 -331 l 1
 629 -312 658 -278 658 -248 c 0
 658 -214 621 -172 585 -138 c 1
 663 -24 l 1
 652 -24 l 2
 345 -24 61 190 61 589 c 0
EndSplineSet
Substitution2: "'c2sc' Capitals to Small Capitals in Latin lookup 3-1" ccedilla.sc
Colour: ffffff
EndChar

StartChar: D
Encoding: 36 68 11
Width: 1327
VWidth: 1691
Flags: HMW
LayerCount: 2
Fore
SplineSet
47 0 m 1
 61 74 l 1
 233 129 l 1
 233 1103 l 1
 61 1133 l 1
 70 1209 l 1
 267 1240 438 1258 583 1258 c 0
 1145 1258 1304 961 1304 653 c 0
 1304 311 1053 0 541 0 c 2
 47 0 l 1
424 104 m 1
 569 104 l 2
 924 104 1093 331 1093 598 c 0
 1093 905 914 1155 546 1155 c 0
 506 1155 464 1155 424 1151 c 1
 424 104 l 1
EndSplineSet
Substitution2: "'c2sc' Capitals to Small Capitals in Latin lookup 3-1" d.sc
Colour: ffffff
EndChar

StartChar: E
Encoding: 37 69 12
Width: 1075
VWidth: 1691
Flags: HMW
LayerCount: 2
Fore
SplineSet
50 1168 m 1
 61 1244 l 1
 1056 1244 l 1
 1025 924 l 1
 938 937 l 1
 897 1152 l 1
 426 1152 l 1
 426 676 l 1
 716 676 l 1
 758 796 l 1
 853 810 l 1
 819 421 l 1
 734 408 l 1
 700 583 l 1
 426 583 l 1
 426 96 l 1
 921 96 l 1
 1019 326 l 1
 1102 313 l 1
 1072 0 l 1
 57 0 l 1
 65 74 l 1
 232 121 l 1
 232 1126 l 1
 50 1168 l 1
EndSplineSet
Substitution2: "'c2sc' Capitals to Small Capitals in Latin lookup 3-1" e.sc
Colour: ffffff
EndChar

StartChar: Eacute
Encoding: 136 201 13
Width: 1142
VWidth: 0
Flags: HMW
LayerCount: 2
Fore
SplineSet
50 1168 m 1
 61 1244 l 1
 1056 1244 l 1
 1025 924 l 1
 938 937 l 1
 897 1152 l 1
 426 1152 l 1
 426 676 l 1
 716 676 l 1
 758 796 l 1
 853 810 l 1
 819 421 l 1
 734 408 l 1
 700 583 l 1
 426 583 l 1
 426 96 l 1
 921 96 l 1
 1019 326 l 1
 1102 313 l 1
 1072 0 l 1
 57 0 l 1
 65 74 l 1
 232 121 l 1
 232 1126 l 1
 50 1168 l 1
517 1385 m 1
 640 1710 l 1
 751 1670 l 1
 568 1354 l 1
 517 1385 l 1
EndSplineSet
Substitution2: "'c2sc' Capitals to Small Capitals in Latin lookup 3-1" eacute.sc
Colour: ffffff
EndChar

StartChar: Edieresis
Encoding: 138 203 15
Width: 1142
VWidth: 0
Flags: HMW
LayerCount: 2
Fore
SplineSet
50 1168 m 1
 61 1244 l 1
 1056 1244 l 1
 1025 924 l 1
 938 937 l 1
 897 1152 l 1
 426 1152 l 1
 426 676 l 1
 716 676 l 1
 758 796 l 1
 853 810 l 1
 819 421 l 1
 734 408 l 1
 700 583 l 1
 426 583 l 1
 426 96 l 1
 921 96 l 1
 1019 326 l 1
 1102 313 l 1
 1072 0 l 1
 57 0 l 1
 65 74 l 1
 232 121 l 1
 232 1126 l 1
 50 1168 l 1
380 1453 m 0
 380 1500 423 1530 463 1530 c 0
 507 1530 549 1499 549 1453 c 0
 549 1404 507 1373 463 1373 c 0
 420 1373 380 1404 380 1453 c 0
647 1453 m 0
 647 1500 690 1530 730 1530 c 0
 774 1530 818 1499 818 1453 c 0
 818 1404 774 1373 730 1373 c 0
 687 1373 647 1404 647 1453 c 0
EndSplineSet
Substitution2: "'c2sc' Capitals to Small Capitals in Latin lookup 3-1" edieresis.sc
Colour: ffffff
EndChar

StartChar: Egrave
Encoding: 135 200 16
Width: 1142
VWidth: 0
Flags: HMW
LayerCount: 2
Fore
SplineSet
50 1168 m 1
 61 1244 l 1
 1056 1244 l 1
 1025 924 l 1
 938 937 l 1
 897 1152 l 1
 426 1152 l 1
 426 676 l 1
 716 676 l 1
 758 796 l 1
 853 810 l 1
 819 421 l 1
 734 408 l 1
 700 583 l 1
 426 583 l 1
 426 96 l 1
 921 96 l 1
 1019 326 l 1
 1102 313 l 1
 1072 0 l 1
 57 0 l 1
 65 74 l 1
 232 121 l 1
 232 1126 l 1
 50 1168 l 1
443 1664 m 1
 559 1702 l 1
 691 1368 l 1
 633 1334 l 1
 443 1664 l 1
EndSplineSet
Substitution2: "'c2sc' Capitals to Small Capitals in Latin lookup 3-1" egrave.sc
Colour: ffffff
EndChar

StartChar: Eth
Encoding: 143 208 17
Width: 1374
VWidth: 0
Flags: HMW
LayerCount: 2
Fore
SplineSet
53 555 m 5
 64 647 l 5
 233 660 l 5
 233 1104 l 1
 61 1134 l 1
 70 1211 l 1
 267 1242 438 1260 583 1260 c 0
 1145 1260 1317 966 1317 658 c 0
 1317 332 1054 0 560 0 c 2
 47 0 l 1
 61 74 l 1
 233 129 l 1
 233 569 l 5
 53 555 l 5
424 104 m 1
 636 104 l 2
 965 104 1103 342 1103 598 c 0
 1103 905 918 1157 546 1157 c 0
 506 1157 464 1155 424 1151 c 1
 424 672 l 5
 682 693 l 5
 670 602 l 5
 424 581 l 5
 424 104 l 1
EndSplineSet
Substitution2: "'c2sc' Capitals to Small Capitals in Latin lookup 3-1" eth.sc
Colour: ffffff
EndChar

StartChar: Euro
Encoding: 234 8364 18
Width: 1161
VWidth: 0
Flags: HMW
LayerCount: 2
Back
SplineSet
-43.7471 649.094 m 1
 -41.7129 732.52 l 1
 956.344 732.52 l 1
 940.065 649.094 l 1
 -43.7471 649.094 l 1
-35.6084 868.849 m 1
 -33.5742 951.257 l 1
 1014.33 951.257 l 1
 998.057 868.849 l 1
 -35.6084 868.849 l 1
178.043 732.52 m 0
 178.043 1205.6 394.746 1594.25 861.727 1594.25 c 0
 1028.58 1594.25 1124.21 1560.67 1245.28 1469.11 c 1
 1204.59 1045.87 l 1
 1149.65 1056.05 l 1
 1112 1381.61 l 1
 1062.15 1466.05 998.057 1512.85 856.641 1512.85 c 0
 515.814 1512.85 331.669 1227.99 331.669 772.196 c 0
 331.669 289.956 536.163 53.9219 854.604 53.9219 c 0
 933.961 53.9219 1047.91 100.722 1131.33 215.686 c 1
 1170 542.268 l 1
 1225.95 549.389 l 1
 1265.63 129.209 l 1
 1118.11 24.417 996.022 -31.5391 790.509 -31.5391 c 0
 431.372 -31.5391 178.043 269.607 178.043 732.52 c 0
EndSplineSet
Fore
SplineSet
-14 468 m 1
 -4 567 l 1
 849 567 l 1
 828 468 l 1
 -14 468 l 1
-4 651 m 1
 6 750 l 1
 898 750 l 1
 877 651 l 1
 -4 651 l 1
142 636 m 0
 142 917 347 1269 750 1269 c 0
 882 1269 983 1242 1079 1169 c 1
 1048 837 l 1
 960 850 l 1
 918 1070 l 1
 872 1129 822 1174 693 1174 c 0
 467 1174 354 965 354 666 c 3
 354 343 497 83 750 83 c 0
 812 83 887 108 934 174 c 1
 977 401 l 1
 1065 414 l 1
 1096 111 l 1
 970 12 864 -24 700 -24 c 0
 362 -24 142 234 142 636 c 0
EndSplineSet
Colour: ffffff
EndChar

StartChar: F
Encoding: 38 70 19
Width: 1028
VWidth: 1691
Flags: HMW
LayerCount: 2
Fore
SplineSet
50 1168 m 1
 61 1244 l 1
 1054 1244 l 1
 1013 922 l 1
 925 936 l 1
 891 1152 l 1
 426 1152 l 1
 426 670 l 1
 713 670 l 1
 755 790 l 1
 845 804 l 1
 818 412 l 1
 730 398 l 1
 700 578 l 1
 426 578 l 1
 426 122 l 1
 661 83 l 1
 648 0 l 1
 57 0 l 1
 65 74 l 1
 232 121 l 1
 232 1126 l 1
 50 1168 l 1
EndSplineSet
Substitution2: "'c2sc' Capitals to Small Capitals in Latin lookup 3-1" f.sc
Colour: ffffff
EndChar

StartChar: G
Encoding: 39 71 20
Width: 1276
VWidth: 1691
Flags: HMW
LayerCount: 2
Fore
SplineSet
61 578 m 0
 61 1007 395 1260 737 1260 c 0
 906 1260 1045 1222 1139 1163 c 1
 1115 841 l 1
 1028 856 l 1
 992 1047 l 1
 947 1093 844 1161 677 1161 c 0
 460 1161 276 1013 276 647 c 0
 276 350 454 77 771 77 c 0
 851 77 915 103 943 119 c 1
 943 434 l 1
 707 472 l 1
 719 555 l 1
 1275 555 l 1
 1263 480 l 1
 1139 439 l 1
 1139 79 l 1
 1007 0 858 -31 658 -31 c 0
 256 -31 61 237 61 578 c 0
EndSplineSet
Substitution2: "'c2sc' Capitals to Small Capitals in Latin lookup 3-1" g.sc
Colour: ffffff
EndChar

StartChar: Germandbls
Encoding: 222 7838 21
Width: 1283
VWidth: 0
Flags: HMW
LayerCount: 2
Fore
SplineSet
26 0 m 5
 34 73 l 5
 198 119 l 5
 198 751 l 6
 198 1102 393 1250 689 1250 c 4
 874 1250 1169 1208 1169 1032 c 4
 1169 956 1127 923 1049 897 c 5
 1013 1001 976 1112 862 1112 c 4
 778 1112 691 1028 691 928 c 4
 691 637 1232 680 1232 316 c 4
 1232 90 1050 -24 826 -24 c 4
 684 -24 549 30 494 121 c 5
 507 376 l 5
 602 361 l 5
 637 184 l 5
 673 127 757 76 849 76 c 4
 953 76 1050 110 1050 250 c 4
 1050 503 521 468 521 829 c 4
 521 992 621 1123 761 1155 c 5
 763 1158 l 5
 744 1160 695 1161 676 1161 c 4
 481 1161 387 1027 387 774 c 6
 389 0 l 5
 26 0 l 5
EndSplineSet
Substitution2: "'c2sc' Capitals to Small Capitals in Latin lookup 3-1" germandbls.sc
AlternateSubs2: "Alternate Substitution in Latin lookup 0-1" Germandbls.alt
Colour: ffffff
EndChar

StartChar: Germandbls.alt
Encoding: 235 -1 22
Width: 1283
VWidth: 0
Flags: HMW
LayerCount: 2
Back
SplineSet
453 122 m 5
 466 389 l 5
 568 375 l 5
 607 187 l 5
 643 130 720 77 813 77 c 4
 918 77 1050 139 1050 287 c 4
 1050 547 477 544 477 916 c 4
 477 1143 669 1269 866 1269 c 4
 974 1269 1069 1235 1148 1169 c 5
 1148 1161 1126 887 1126 887 c 5
 1027 899 l 5
 1002 1090 l 5
 984 1126 912 1185 832 1185 c 4
 732 1185 650 1126 650 995 c 4
 650 708 1234 730 1234 354 c 4
 1234 124 1017 -24 789 -24 c 4
 645 -24 517 43 453 122 c 5
EndSplineSet
Fore
SplineSet
25 0 m 1
 33 73 l 1
 198 119 l 1
 198 678 l 2
 198 1115 392 1250 688 1250 c 0
 851 1250 1076 1232 1134 1213 c 1
 1135 1142 l 1
 835 751 l 1
 922 689 1232 595 1232 332 c 0
 1232 106 1049 -24 825 -24 c 0
 683 -24 548 38 493 129 c 1
 506 392 l 1
 607 377 l 1
 646 192 l 1
 682 135 756 76 848 76 c 0
 952 76 1049 126 1049 266 c 0
 1049 432 772 545 609 639 c 1
 586 687 l 1
 906 1125 l 1
 906 1130 l 1
 864 1148 694 1161 675 1161 c 0
 480 1161 386 1053 386 700 c 1
 388 0 l 1
 25 0 l 1
EndSplineSet
Substitution2: "'c2sc' Capitals to Small Capitals in Latin lookup 3-1" germandbls.sc.alt
Colour: ffffff
EndChar

StartChar: H
Encoding: 40 72 23
Width: 1416
VWidth: 1691
Flags: HMW
LayerCount: 2
Fore
SplineSet
50 1168 m 1
 61 1244 l 1
 605 1244 l 1
 595 1168 l 1
 427 1130 l 1
 427 692 l 1
 1054 692 l 1
 1054 1126 l 1
 871 1168 l 1
 882 1244 l 1
 1428 1244 l 1
 1416 1168 l 1
 1249 1130 l 1
 1249 114 l 1
 1431 80 l 1
 1421 0 l 1
 878 0 l 1
 888 74 l 1
 1054 121 l 1
 1054 589 l 1
 427 589 l 1
 427 114 l 1
 611 80 l 1
 598 0 l 1
 57 0 l 1
 65 74 l 1
 232 121 l 1
 232 1126 l 1
 50 1168 l 1
EndSplineSet
Substitution2: "'c2sc' Capitals to Small Capitals in Latin lookup 3-1" h.sc
Colour: ffffff
EndChar

StartChar: I
Encoding: 41 73 24
Width: 601
VWidth: 1691
Flags: HMW
LayerCount: 2
Fore
SplineSet
50 1168 m 1
 61 1244 l 1
 605 1244 l 1
 595 1168 l 1
 426 1130 l 1
 426 114 l 1
 607 80 l 1
 597 0 l 1
 57 0 l 1
 65 74 l 1
 232 121 l 1
 232 1126 l 1
 50 1168 l 1
EndSplineSet
Substitution2: "'c2sc' Capitals to Small Capitals in Latin lookup 3-1" i.sc
Colour: ffffff
EndChar

StartChar: Iacute
Encoding: 140 205 25
Width: 655
VWidth: 0
Flags: HMW
LayerCount: 2
Fore
SplineSet
50 1168 m 1
 61 1244 l 1
 605 1244 l 1
 595 1168 l 1
 426 1130 l 1
 426 114 l 1
 607 80 l 1
 597 0 l 1
 57 0 l 1
 65 74 l 1
 232 121 l 1
 232 1126 l 1
 50 1168 l 1
289 1385 m 1
 412 1710 l 1
 523 1670 l 1
 341 1354 l 1
 289 1385 l 1
EndSplineSet
Substitution2: "'c2sc' Capitals to Small Capitals in Latin lookup 3-1" iacute.sc
Colour: ffffff
EndChar

StartChar: Icircumflex
Encoding: 141 206 26
Width: 655
VWidth: 0
Flags: HMW
LayerCount: 2
Fore
SplineSet
50 1168 m 1
 61 1244 l 1
 605 1244 l 1
 595 1168 l 1
 426 1130 l 1
 426 114 l 1
 607 80 l 1
 597 0 l 1
 57 0 l 1
 65 74 l 1
 232 121 l 1
 232 1126 l 1
 50 1168 l 1
132 1392 m 1
 299 1572 l 1
 354 1585 l 1
 532 1400 l 1
 483 1364 l 1
 319 1472 l 1
 309 1472 l 1
 169 1361 l 1
 132 1392 l 1
EndSplineSet
Substitution2: "'c2sc' Capitals to Small Capitals in Latin lookup 3-1" icircumflex.sc
Colour: ffffff
EndChar

StartChar: Idieresis
Encoding: 142 207 27
Width: 655
VWidth: 0
Flags: HMW
LayerCount: 2
Fore
SplineSet
50 1168 m 1
 61 1244 l 1
 605 1244 l 1
 595 1168 l 1
 426 1130 l 1
 426 114 l 1
 607 80 l 1
 597 0 l 1
 57 0 l 1
 65 74 l 1
 232 121 l 1
 232 1126 l 1
 50 1168 l 1
110 1453 m 0
 110 1500 154 1530 194 1530 c 0
 238 1530 279 1499 279 1453 c 0
 279 1404 238 1373 194 1373 c 0
 151 1373 110 1404 110 1453 c 0
377 1453 m 0
 377 1500 421 1530 461 1530 c 0
 505 1530 549 1499 549 1453 c 0
 549 1404 505 1373 461 1373 c 0
 418 1373 377 1404 377 1453 c 0
EndSplineSet
Substitution2: "'c2sc' Capitals to Small Capitals in Latin lookup 3-1" idieresis.sc
Colour: ffffff
EndChar

StartChar: Igrave
Encoding: 139 204 28
Width: 655
VWidth: 0
Flags: HMW
LayerCount: 2
Fore
SplineSet
50 1168 m 1
 61 1244 l 1
 605 1244 l 1
 595 1168 l 1
 426 1130 l 1
 426 114 l 1
 607 80 l 1
 597 0 l 1
 57 0 l 1
 65 74 l 1
 232 121 l 1
 232 1126 l 1
 50 1168 l 1
133 1664 m 1
 249 1702 l 1
 381 1368 l 1
 323 1334 l 1
 133 1664 l 1
EndSplineSet
Substitution2: "'c2sc' Capitals to Small Capitals in Latin lookup 3-1" igrave.sc
Colour: ffffff
EndChar

StartChar: J
Encoding: 42 74 29
Width: 592
VWidth: 1691
Flags: HMW
LayerCount: 2
Fore
SplineSet
-4 -237 m 1
 151.657 -90 233 37 233 197 c 2
 233 1126 l 1
 52 1168 l 1
 62 1244 l 1
 607 1244 l 1
 597 1168 l 1
 427 1130 l 1
 427 385 l 2
 425.997 -24 337.763 -138 50 -326 c 1
 -4 -237 l 1
EndSplineSet
Substitution2: "'c2sc' Capitals to Small Capitals in Latin lookup 3-1" j.sc
Colour: ffffff
EndChar

StartChar: K
Encoding: 43 75 30
Width: 1228
VWidth: 1691
Flags: HMW
LayerCount: 2
Fore
SplineSet
47 1168 m 1
 61 1244 l 1
 611 1244 l 1
 601 1168 l 1
 429 1121 l 1
 429 124 l 1
 618 80 l 1
 607 0 l 1
 54 0 l 1
 64 74 l 1
 236 129 l 1
 236 1117 l 1
 47 1168 l 1
453 626 m 1
 481 654 574 758 605 798 c 2
 851 1121 l 1
 696 1168 l 1
 704 1244 l 1
 1197 1244 l 1
 1185 1168 l 1
 1008 1121 l 1
 635 653 l 1
 862 385 l 2
 1013 206 1085 123 1213 83 c 2
 1250 70 l 1
 1240 1 l 1
 1194 -15 1149 -21 1109 -21 c 0
 942 -21 820 104 706 261 c 2
 454 605 l 1
 453 626 l 1
EndSplineSet
Substitution2: "'c2sc' Capitals to Small Capitals in Latin lookup 3-1" k.sc
Colour: ffffff
EndChar

StartChar: L
Encoding: 44 76 31
Width: 1065
VWidth: 1691
Flags: HMW
LayerCount: 2
Fore
SplineSet
58 0 m 1
 67 74 l 1
 233 121 l 1
 233 1117 l 1
 45 1168 l 1
 58 1244 l 1
 608 1244 l 1
 598 1168 l 1
 427 1121 l 1
 427 96 l 1
 869 96 l 1
 1000 344 l 1
 1085 331 l 1
 1048 0 l 1
 58 0 l 1
EndSplineSet
Substitution2: "'c2sc' Capitals to Small Capitals in Latin lookup 3-1" l.sc
Colour: ffffff
EndChar

StartChar: M
Encoding: 45 77 32
Width: 1664
VWidth: 1691
Flags: HMW
LayerCount: 2
Fore
SplineSet
24 0 m 1
 35 74 l 1
 202 121 l 1
 275 1126 l 1
 92 1168 l 1
 102 1244 l 1
 505 1244 l 1
 583 1050 l 1
 845 313 l 1
 1152 1083 l 1
 1223 1244 l 1
 1618 1244 l 1
 1608 1168 l 1
 1440 1130 l 1
 1492 114 l 1
 1674 80 l 1
 1664 0 l 1
 1128 0 l 1
 1139 74 l 1
 1305 121 l 1
 1249 1004 l 1
 868 50 l 1
 740 31 l 1
 397 967 l 1
 334 114 l 1
 517 80 l 1
 504 0 l 1
 24 0 l 1
EndSplineSet
Substitution2: "'c2sc' Capitals to Small Capitals in Latin lookup 3-1" m.sc
Colour: ffffff
EndChar

StartChar: N
Encoding: 46 78 33
Width: 1337
VWidth: 1691
Flags: HMW
LayerCount: 2
Fore
SplineSet
50 1168 m 1
 61 1244 l 1
 411 1244 l 1
 1054 274 l 1
 1054 1126 l 1
 869 1168 l 1
 881 1244 l 1
 1356 1244 l 1
 1343 1168 l 1
 1176 1130 l 1
 1176 1 l 1
 1023 -30 l 1
 360 961 l 1
 360 114 l 1
 543 80 l 1
 532 0 l 1
 57 0 l 1
 65 74 l 1
 232 121 l 1
 232 1117 l 1
 50 1168 l 1
EndSplineSet
Substitution2: "'c2sc' Capitals to Small Capitals in Latin lookup 3-1" n.sc
Colour: ffffff
EndChar

StartChar: Ntilde
Encoding: 144 209 34
Width: 2048
VWidth: 0
Flags: HM
LayerCount: 2
Fore
SplineSet
50 1168 m 1
 61 1244 l 1
 412 1244 l 1
 1054 271 l 1
 1054 1126 l 1
 869 1168 l 1
 881 1244 l 1
 1356 1244 l 1
 1343 1168 l 1
 1176 1130 l 1
 1176 1 l 1
 1023 -30 l 1
 360 961 l 1
 360 114 l 1
 543 80 l 1
 532 0 l 1
 57 0 l 1
 65 74 l 1
 232 121 l 1
 232 1117 l 1
 50 1168 l 1
445 1383 m 1
 445 1383 477 1526 566 1526 c 0
 570 1526 576 1527 580 1526 c 2
 802 1496 l 1
 807 1496 l 2
 832 1496 862 1536 862 1536 c 1
 910 1535 l 1
 910 1535 873 1391 781 1391 c 0
 777 1391 772 1391 768 1392 c 2
 546 1423 l 1
 543 1423 l 2
 515 1423 483 1376 483 1376 c 1
 445 1383 l 1
EndSplineSet
Substitution2: "'c2sc' Capitals to Small Capitals in Latin lookup 3-1" ntilde.sc
Colour: ffffff
EndChar

StartChar: O
Encoding: 47 79 35
Width: 1322
VWidth: 1691
Flags: HMW
LayerCount: 2
Fore
SplineSet
61 619 m 0
 61 1004 308 1272 706 1272 c 0
 1068 1272 1284 970 1284 619 c 0
 1284 274 1051 -27 636 -27 c 0
 291 -27 61 257 61 619 c 0
283 676 m 0
 283 382 398 79 686 79 c 0
 990 79 1062 330 1062 573 c 0
 1062 856 945 1176 658 1176 c 0
 358 1176 283 937 283 676 c 0
EndSplineSet
Substitution2: "'c2sc' Capitals to Small Capitals in Latin lookup 3-1" o.sc
Colour: ffffff
EndChar

StartChar: Oacute
Encoding: 146 211 36
Width: 1342
VWidth: 0
Flags: HMW
LayerCount: 2
Fore
SplineSet
73 619 m 0
 73 1004 320 1272 718 1272 c 0
 1080 1272 1296 970 1296 619 c 0
 1296 274 1064 -27 649 -27 c 0
 304 -27 73 257 73 619 c 0
295 676 m 0
 295 382 410 79 698 79 c 0
 1002 79 1073 330 1073 573 c 0
 1073 856 957 1176 670 1176 c 0
 370 1176 295 937 295 676 c 0
574 1380 m 1
 696 1705 l 1
 808 1666 l 1
 624 1348 l 1
 574 1380 l 1
EndSplineSet
Substitution2: "'c2sc' Capitals to Small Capitals in Latin lookup 3-1" oacute.sc
Colour: ffffff
EndChar

StartChar: Ocircumflex
Encoding: 147 212 37
Width: 1342
VWidth: 0
Flags: HMW
LayerCount: 2
Fore
SplineSet
61 619 m 0
 61 1004 308 1272 706 1272 c 0
 1068 1272 1284 970 1284 619 c 0
 1284 274 1051 -27 636 -27 c 0
 291 -27 61 257 61 619 c 0
283 676 m 0
 283 382 398 79 686 79 c 0
 990 79 1062 330 1062 573 c 0
 1062 856 945 1176 658 1176 c 0
 358 1176 283 937 283 676 c 0
484 1392 m 1
 652 1572 l 1
 707 1585 l 1
 885 1400 l 1
 836 1364 l 1
 672 1472 l 1
 662 1472 l 1
 522 1361 l 1
 484 1392 l 1
EndSplineSet
Substitution2: "'c2sc' Capitals to Small Capitals in Latin lookup 3-1" ocircumflex.sc
Colour: ffffff
EndChar

StartChar: Odieresis
Encoding: 149 214 38
Width: 1342
VWidth: 0
Flags: HMW
LayerCount: 2
Fore
SplineSet
61 619 m 0
 61 1004 308 1272 706 1272 c 0
 1068 1272 1284 970 1284 619 c 0
 1284 274 1051 -27 636 -27 c 0
 291 -27 61 257 61 619 c 0
283 676 m 0
 283 382 398 79 686 79 c 0
 990 79 1062 330 1062 573 c 0
 1062 856 945 1176 658 1176 c 0
 358 1176 283 937 283 676 c 0
463 1453 m 0
 463 1500 507 1530 547 1530 c 0
 591 1530 632 1499 632 1453 c 0
 632 1404 591 1373 547 1373 c 0
 504 1373 463 1404 463 1453 c 0
730 1453 m 0
 730 1500 774 1530 814 1530 c 0
 858 1530 902 1499 902 1453 c 0
 902 1404 858 1373 814 1373 c 0
 771 1373 730 1404 730 1453 c 0
EndSplineSet
Substitution2: "'c2sc' Capitals to Small Capitals in Latin lookup 3-1" odieresis.sc
Colour: ffffff
EndChar

StartChar: Ograve
Encoding: 145 210 39
Width: 1342
VWidth: 0
Flags: HMW
LayerCount: 2
Fore
SplineSet
61 619 m 0
 61 1004 308 1272 706 1272 c 0
 1068 1272 1284 970 1284 619 c 0
 1284 274 1051 -27 636 -27 c 0
 291 -27 61 257 61 619 c 0
283 676 m 0
 283 382 398 79 686 79 c 0
 990 79 1062 330 1062 573 c 0
 1062 856 945 1176 658 1176 c 0
 358 1176 283 937 283 676 c 0
527 1664 m 1
 642 1702 l 1
 774 1368 l 1
 717 1334 l 1
 527 1664 l 1
EndSplineSet
Substitution2: "'c2sc' Capitals to Small Capitals in Latin lookup 3-1" ograve.sc
Colour: ffffff
EndChar

StartChar: Oslash
Encoding: 151 216 40
Width: 1342
VWidth: 0
Flags: HMW
LayerCount: 2
Fore
SplineSet
228 -111 m 1
 359 133 l 1
 399 157 l 1
 925 1139 l 1
 917 1178 l 1
 984 1304 l 1
 1136 1312 l 1
 1039 1134 l 1
 988 1090 l 1
 445 80 l 1
 458 52 l 1
 375 -102 l 1
 228 -111 l 1
295 676 m 0
 295 382 410 79 698 79 c 0
 1002 79 1073 330 1073 573 c 0
 1073 856 957 1176 670 1176 c 0
 370 1176 295 937 295 676 c 0
73 619 m 0
 73 1004 320 1272 718 1272 c 0
 1080 1272 1296 970 1296 619 c 0
 1296 274 1064 -27 649 -27 c 0
 304 -27 73 257 73 619 c 0
EndSplineSet
Substitution2: "'c2sc' Capitals to Small Capitals in Latin lookup 3-1" oslash.sc
Colour: ffffff
EndChar

StartChar: Otilde
Encoding: 148 213 41
Width: 1342
VWidth: 0
Flags: HMW
LayerCount: 2
Fore
SplineSet
61 619 m 0
 61 1004 308 1272 706 1272 c 0
 1068 1272 1284 970 1284 619 c 0
 1284 274 1051 -27 636 -27 c 0
 291 -27 61 257 61 619 c 0
283 676 m 0
 283 382 398 79 686 79 c 0
 990 79 1062 330 1062 573 c 0
 1062 856 945 1176 658 1176 c 0
 358 1176 283 937 283 676 c 0
448 1383 m 1
 448 1383 479 1526 568 1526 c 0
 572 1526 577 1527 581 1526 c 2
 805 1496 l 1
 810 1496 l 2
 835 1496 866 1536 866 1536 c 1
 913 1535 l 1
 913 1535 875 1391 783 1391 c 0
 779 1391 775 1391 771 1392 c 2
 547 1423 l 1
 546 1423 l 2
 518 1423 485 1376 485 1376 c 1
 448 1383 l 1
EndSplineSet
Substitution2: "'c2sc' Capitals to Small Capitals in Latin lookup 3-1" otilde.sc
Colour: ffffff
EndChar

StartChar: P
Encoding: 48 80 42
Width: 1009
VWidth: 1691
Flags: HMW
LayerCount: 2
Fore
SplineSet
50 0 m 1
 61 74 l 1
 228 121 l 1
 228 1104 l 1
 57 1134 l 1
 67 1211 l 1
 196 1230 372 1255 543 1255 c 0
 804 1255 1045 1184 1045 892 c 0
 1045 655 827 494 584 494 c 0
 548 494 515 496 484 497 c 1
 466 580 l 1
 519 581 l 2
 734 587 838 678 838 856 c 0
 838 1027 750 1172 522 1172 c 0
 482 1172 420 1166 420 1166 c 1
 420 122 l 1
 657 83 l 1
 643 0 l 1
 50 0 l 1
EndSplineSet
Substitution2: "'c2sc' Capitals to Small Capitals in Latin lookup 3-1" p.sc
Colour: ffffff
EndChar

StartChar: Q
Encoding: 49 81 43
Width: 1334
VWidth: 1691
Flags: HMW
LayerCount: 2
Fore
SplineSet
61 608 m 0
 61 994 325 1272 721 1272 c 0
 1078 1272 1299 980 1299 629 c 0
 1299 335 1122 68 818 -6 c 1
 877 -141 963 -228 1250 -275 c 1
 1250 -299 1247 -333 1241 -351 c 1
 1179 -381 1121 -385 1065 -385 c 0
 884 -385 721 -249 703 -21 c 1
 693 -24 653 -27 638 -27 c 0
 293 -27 61 246 61 608 c 0
263 679 m 0
 263 439 369 88 749 67 c 1
 1019 134 1092 336 1092 563 c 0
 1092 857 928 1168 664 1168 c 0
 413 1168 263 989 263 679 c 0
EndSplineSet
Substitution2: "'c2sc' Capitals to Small Capitals in Latin lookup 3-1" q.sc
Colour: ffffff
EndChar

StartChar: R
Encoding: 50 82 44
Width: 1213
VWidth: 1691
Flags: HMW
LayerCount: 2
Fore
SplineSet
50 0 m 1
 61 74 l 1
 228 121 l 1
 228 1100 l 1
 57 1130 l 1
 67 1207 l 1
 214 1230 375 1253 523 1253 c 0
 820 1253 1025 1176 1025 943 c 0
 1025 814 926 666 738 599 c 1
 738 598 l 1
 918 349 l 2
 1035 187 1087 114 1211 77 c 2
 1244 67 l 1
 1229 -1 l 1
 1186 -16 1146 -21 1109 -21 c 0
 950 -21 840 98 753 253 c 2
 594 537 l 1
 420 537 l 1
 420 126 l 1
 608 83 l 1
 598 0 l 1
 50 0 l 1
420 628 m 1
 618 628 l 1
 717 661 818 745 818 887 c 0
 818 1051 717 1169 540 1169 c 0
 470 1169 420 1164 420 1164 c 1
 420 628 l 1
EndSplineSet
Substitution2: "'c2sc' Capitals to Small Capitals in Latin lookup 3-1" r.sc
Colour: ffffff
EndChar

StartChar: S
Encoding: 51 83 45
Width: 863
VWidth: 1691
Flags: HMW
LayerCount: 2
Fore
SplineSet
66 92 m 1
 79 379 l 1
 181 365 l 1
 220 177 l 1
 256 125.182 333 77 426 77 c 0
 531 77 663 139 663 287 c 0
 663 547 90 544 90 916 c 0
 90 1143 282 1269 479 1269 c 0
 587 1269 682 1235 761 1169 c 1
 761 1161 739 887 739 887 c 1
 640 899 l 1
 615 1090 l 1
 597 1126 525 1185 445 1185 c 0
 345 1185 263 1126 263 995 c 0
 263 682.47 847 693 847 357 c 0
 847 125.175 630 -24 402 -24 c 0
 258 -24 130 29.2329 66 92 c 1
EndSplineSet
Substitution2: "'c2sc' Capitals to Small Capitals in Latin lookup 3-1" s.sc
Colour: ffffff
EndChar

StartChar: T
Encoding: 52 84 46
Width: 1119
VWidth: 1691
Flags: HMW
LayerCount: 2
Fore
SplineSet
23 1244 m 1
 1134 1244 l 1
 1100 906 l 1
 1005 921 l 1
 967 1152 l 1
 662 1152 l 1
 662 114 l 1
 847 80 l 1
 833 0 l 1
 294 0 l 1
 301 74 l 1
 470 121 l 1
 470 1152 l 1
 175 1152 l 1
 122 909 l 1
 31 922 l 1
 23 1244 l 1
EndSplineSet
Substitution2: "'c2sc' Capitals to Small Capitals in Latin lookup 3-1" t.sc
Colour: ffffff
EndChar

StartChar: Thorn
Encoding: 157 222 47
Width: 1084
VWidth: 0
Flags: HMW
LayerCount: 2
Fore
SplineSet
50 1168 m 1
 61 1244 l 1
 604 1244 l 1
 594 1168 l 1
 423 1130 l 1
 423 1020 l 1
 463 1021 507 1024 547 1024 c 0
 808 1024 1048 952 1048 660 c 0
 1048 423 847 260 604 260 c 0
 568 260 527 262 487 266 c 1
 470 351 l 1
 711 338 841 429 841 624 c 0
 841 795 747 926 529 926 c 0
 489 926 423 919 423 919 c 1
 423 121 l 1
 660 83 l 1
 647 -1 l 1
 54 -1 l 1
 64 73 l 1
 232 119 l 1
 232 1126 l 1
 50 1168 l 1
EndSplineSet
Substitution2: "'c2sc' Capitals to Small Capitals in Latin lookup 3-1" thorn.sc
Colour: ffffff
EndChar

StartChar: U
Encoding: 53 85 48
Width: 1369
VWidth: 1691
Flags: HMW
LayerCount: 2
Fore
SplineSet
22 1168 m 1
 35 1244 l 1
 577 1244 l 1
 568 1168 l 1
 399 1130 l 1
 399 510 l 2
 399 225 542 105 747 105 c 0
 949 105 1071 221 1072 482 c 2
 1075 1126 l 1
 892 1168 l 1
 902 1244 l 1
 1380 1244 l 1
 1369 1168 l 1
 1203 1130 l 1
 1198 515 l 2
 1195 155 1044 -27 697 -27 c 0
 466 -27 206 48 206 469 c 2
 206 1126 l 1
 22 1168 l 1
EndSplineSet
Substitution2: "'c2sc' Capitals to Small Capitals in Latin lookup 3-1" u.sc
Colour: ffffff
EndChar

StartChar: Ucircumflex
Encoding: 154 219 50
Width: 1401
VWidth: 0
Flags: HMW
LayerCount: 2
Fore
SplineSet
22 1168 m 1
 35 1244 l 1
 577 1244 l 1
 568 1168 l 1
 399 1130 l 1
 399 510 l 2
 399 225 542 105 747 105 c 0
 949 105 1071 221 1072 482 c 2
 1075 1126 l 1
 892 1168 l 1
 902 1244 l 1
 1380 1244 l 1
 1369 1168 l 1
 1203 1130 l 1
 1198 515 l 2
 1195 155 1044 -27 697 -27 c 0
 466 -27 206 48 206 469 c 2
 206 1126 l 1
 22 1168 l 1
537 1392 m 1
 704 1572 l 1
 759 1585 l 1
 937 1400 l 1
 887 1364 l 1
 724 1472 l 1
 713 1472 l 1
 574 1361 l 1
 537 1392 l 1
EndSplineSet
Substitution2: "'c2sc' Capitals to Small Capitals in Latin lookup 3-1" ucircumflex.sc
Colour: ffffff
EndChar

StartChar: Udieresis
Encoding: 155 220 51
Width: 1401
VWidth: 0
Flags: HMW
LayerCount: 2
Fore
SplineSet
22 1168 m 1
 35 1244 l 1
 577 1244 l 1
 568 1168 l 1
 399 1130 l 1
 399 510 l 2
 399 225 542 105 747 105 c 0
 949 105 1071 221 1072 482 c 2
 1075 1126 l 1
 892 1168 l 1
 902 1244 l 1
 1380 1244 l 1
 1369 1168 l 1
 1203 1130 l 1
 1198 515 l 2
 1195 155 1044 -27 697 -27 c 0
 466 -27 206 48 206 469 c 2
 206 1126 l 1
 22 1168 l 1
515 1453 m 0
 515 1500 558 1530 598 1530 c 0
 642 1530 684 1499 684 1453 c 0
 684 1404 642 1373 598 1373 c 0
 555 1373 515 1404 515 1453 c 0
782 1453 m 0
 782 1500 826 1530 866 1530 c 0
 910 1530 953 1499 953 1453 c 0
 953 1404 910 1373 866 1373 c 0
 823 1373 782 1404 782 1453 c 0
EndSplineSet
Substitution2: "'c2sc' Capitals to Small Capitals in Latin lookup 3-1" udieresis.sc
Colour: ffffff
EndChar

StartChar: V
Encoding: 54 86 53
Width: 1284
VWidth: 1691
Flags: HMW
LayerCount: 2
Fore
SplineSet
-21 1168 m 5
 -11 1244 l 5
 527 1244 l 5
 517 1168 l 5
 347 1130 l 5
 660 251 l 5
 980 1126 l 5
 798 1168 l 5
 805 1244 l 5
 1260 1244 l 5
 1253 1168 l 5
 1121 1130 l 5
 696 4 l 5
 544 -24 l 5
 126 1126 l 5
 -21 1168 l 5
EndSplineSet
Substitution2: "'c2sc' Capitals to Small Capitals in Latin lookup 3-1" v.sc
Colour: ffffff
EndChar

StartChar: W
Encoding: 55 87 54
Width: 1844
VWidth: 1691
Flags: HMW
LayerCount: 2
Fore
SplineSet
-11 1168 m 1
 -2 1244 l 1
 512 1244 l 1
 497 1168 l 1
 330 1130 l 1
 572 271 l 1
 853 1194 l 1
 1029 1219 l 1
 1277 287 l 1
 1538 1126 l 1
 1357 1168 l 1
 1368 1244 l 1
 1817 1244 l 1
 1806 1168 l 1
 1683 1130 l 1
 1318 4 l 1
 1164 -24 l 1
 902 951 l 1
 617 4 l 1
 454 -24 l 1
 129 1126 l 1
 -11 1168 l 1
EndSplineSet
Substitution2: "'c2sc' Capitals to Small Capitals in Latin lookup 3-1" w.sc
Colour: ffffff
EndChar

StartChar: X
Encoding: 56 88 55
Width: 1202
VWidth: 1691
Flags: HMW
LayerCount: 2
Fore
SplineSet
-1 0 m 1
 11 76 l 1
 138 121 l 1
 504 615 l 1
 165 1123 l 1
 28 1166 l 1
 40 1244 l 1
 553 1244 l 1
 543 1166 l 1
 386 1121 l 1
 633 750 l 1
 904 1126 l 1
 734 1166 l 1
 747 1244 l 1
 1182 1244 l 1
 1174 1168 l 1
 1047 1130 l 1
 709 657 l 1
 1050 114 l 1
 1185 80 l 1
 1172 0 l 1
 669 0 l 1
 682 74 l 1
 842 121 l 1
 580 529 l 1
 288 117 l 1
 454 83 l 1
 439 0 l 1
 -1 0 l 1
EndSplineSet
Substitution2: "'c2sc' Capitals to Small Capitals in Latin lookup 3-1" x.sc
Colour: ffffff
EndChar

StartChar: Y
Encoding: 57 89 56
Width: 1210
VWidth: 1691
Flags: HMW
LayerCount: 2
Fore
SplineSet
-21 1168 m 1
 -8 1244 l 1
 500 1244 l 1
 488 1168 l 1
 330 1130 l 1
 607 640 l 1
 871 1126 l 1
 688 1168 l 1
 698 1244 l 1
 1143 1244 l 1
 1133 1168 l 1
 1008 1130 l 1
 663 529 l 1
 663 114 l 1
 826 80 l 1
 816 0 l 1
 310 0 l 1
 320 74 l 1
 470 121 l 1
 470 504 l 1
 117 1126 l 1
 -21 1168 l 1
EndSplineSet
Substitution2: "'c2sc' Capitals to Small Capitals in Latin lookup 3-1" y.sc
Colour: ffffff
EndChar

StartChar: Z
Encoding: 58 90 58
Width: 1009
VWidth: 1691
Flags: HMW
LayerCount: 2
Fore
SplineSet
47 104 m 1
 792 1149 l 1
 255 1149 l 1
 178 903 l 1
 88 921 l 1
 98 1244 l 1
 1026 1244 l 1
 1026 1168 l 1
 262 100 l 1
 832 100 l 1
 955 351 l 1
 1048 335 l 1
 991 0 l 1
 55 0 l 1
 47 104 l 1
EndSplineSet
Substitution2: "'c2sc' Capitals to Small Capitals in Latin lookup 3-1" z.sc
Colour: ffffff
EndChar

StartChar: a
Encoding: 65 97 59
Width: 830
VWidth: 0
Flags: HMW
LayerCount: 2
Fore
SplineSet
47 168 m 0
 47 315 182 462 508 485 c 1
 508 540 l 2
 508 675 469 807 331 807 c 0
 235 807 234 756 220 592 c 1
 167 592 81 596 81 695 c 0
 81 804 285 900 423 900 c 0
 601 900 670 804 670 593 c 2
 670 230 l 2
 670 138 689 111 782 96 c 2
 832 87 l 1
 819 1 l 1
 772 -5 742 -18 683 -18 c 0
 567 -18 528 57 528 116 c 2
 528 131 l 1
 517 131 l 1
 490 78 407 -24 243 -24 c 0
 138 -24 47 46 47 168 c 0
222 215 m 0
 222 165 260 99 334 99 c 0
 404 99 475 151 508 188 c 1
 508 428 l 1
 290 385 222 311 222 215 c 0
EndSplineSet
Substitution2: "'smcp' Lowercase to Small Capitals in Latin lookup 0 subtable" a.sc
Colour: ffffff
EndChar

StartChar: aacute
Encoding: 160 225 60
Width: 830
VWidth: 0
Flags: HMW
LayerCount: 2
Fore
SplineSet
47 168 m 0
 47 315 182 462 508 485 c 1
 508 540 l 2
 508 675 469 804 331 804 c 0
 235 804 235 716 220 592 c 1
 167 592 81 596 81 695 c 0
 81 804 285 900 423 900 c 0
 601 900 670 804 670 593 c 2
 670 230 l 2
 670 138 689 111 782 96 c 2
 832 87 l 1
 819 1 l 1
 772 -5 742 -18 683 -18 c 0
 567 -18 528 57 528 116 c 2
 528 131 l 1
 517 131 l 1
 490 78 407 -24 243 -24 c 0
 138 -24 47 46 47 168 c 0
222 215 m 0
 222 165 260 99 334 99 c 0
 404 99 475 151 508 188 c 1
 508 428 l 1
 290 385 222 311 222 215 c 0
328 1017 m 1
 451 1342 l 1
 562 1302 l 1
 380 985 l 1
 328 1017 l 1
EndSplineSet
Substitution2: "'smcp' Lowercase to Small Capitals in Latin lookup 0 subtable" aacute.sc
Colour: ffffff
EndChar

StartChar: acircumflex
Encoding: 161 226 61
Width: 830
VWidth: 0
Flags: HMW
LayerCount: 2
Fore
SplineSet
47 168 m 0
 47 315 182 462 508 485 c 1
 508 540 l 2
 508 675 469 804 331 804 c 0
 235 804 235 716 220 592 c 1
 167 592 81 596 81 695 c 0
 81 804 285 900 423 900 c 0
 601 900 670 804 670 593 c 2
 670 230 l 2
 670 138 689 111 782 96 c 2
 832 87 l 1
 819 1 l 1
 772 -5 742 -18 683 -18 c 0
 567 -18 528 57 528 116 c 2
 528 131 l 1
 517 131 l 1
 490 78 407 -24 243 -24 c 0
 138 -24 47 46 47 168 c 0
211 1024 m 1
 380 1203 l 1
 434 1217 l 1
 611 1032 l 1
 562 995 l 1
 399 1104 l 1
 389 1104 l 1
 249 993 l 1
 211 1024 l 1
222 215 m 0
 222 165 260 99 334 99 c 0
 404 99 475 151 508 188 c 1
 508 428 l 1
 290 385 222 311 222 215 c 0
EndSplineSet
Substitution2: "'smcp' Lowercase to Small Capitals in Latin lookup 0 subtable" acircumflex.sc
Colour: ffffff
EndChar

StartChar: acute
Encoding: 115 180 62
Width: 520
VWidth: 0
Flags: HMW
LayerCount: 2
Fore
SplineSet
172 1380 m 1
 295 1705 l 1
 406 1666 l 5
 223 1348 l 1
 172 1380 l 1
EndSplineSet
Colour: ffffff
EndChar

StartChar: adieresis
Encoding: 163 228 63
Width: 830
VWidth: 0
Flags: HMW
LayerCount: 2
Fore
SplineSet
47 168 m 0
 47 315 182 462 508 485 c 1
 508 540 l 2
 508 675 469 804 331 804 c 0
 235 804 235 716 220 592 c 1
 167 592 81 596 81 695 c 0
 81 804 285 900 423 900 c 0
 601 900 670 804 670 593 c 2
 670 230 l 2
 670 138 689 111 782 96 c 2
 832 87 l 1
 819 1 l 1
 772 -5 742 -18 683 -18 c 0
 567 -18 528 57 528 116 c 2
 528 131 l 1
 517 131 l 1
 490 78 407 -24 243 -24 c 0
 138 -24 47 46 47 168 c 0
189 1084 m 0
 189 1131 233 1163 273 1163 c 0
 317 1163 359 1130 359 1084 c 0
 359 1035 317 1004 273 1004 c 0
 230 1004 189 1035 189 1084 c 0
222 215 m 0
 222 165 260 99 334 99 c 0
 404 99 475 151 508 188 c 1
 508 428 l 1
 290 385 222 311 222 215 c 0
457 1084 m 0
 457 1131 500 1163 540 1163 c 0
 584 1163 628 1130 628 1084 c 0
 628 1035 584 1004 540 1004 c 0
 497 1004 457 1035 457 1084 c 0
EndSplineSet
Substitution2: "'smcp' Lowercase to Small Capitals in Latin lookup 0 subtable" adieresis.sc
Colour: ffffff
EndChar

StartChar: ae
Encoding: 165 230 64
Width: 1238
VWidth: 0
Flags: HMW
LayerCount: 2
Back
SplineSet
47 168 m 0
 47 315 182 462 508 485 c 1
 508 540 l 2
 508 675 469 807 331 807 c 0
 235 807 234 756 220 592 c 1
 167 592 81 596 81 695 c 0
 81 804 285 900 423 900 c 0
 601 900 670 804 670 593 c 2
 670 230 l 2
 670 138 689 111 782 96 c 2
 832 87 l 1
 819 1 l 1
 772 -5 742 -18 683 -18 c 0
 567 -18 528 57 528 116 c 2
 528 131 l 1
 517 131 l 1
 490 78 407 -24 243 -24 c 0
 138 -24 47 46 47 168 c 0
222 215 m 4
 222 165 260 99 334 99 c 4
 404 99 475 151 508 188 c 5
 508 428 l 5
 290 385 222 311 222 215 c 4
EndSplineSet
Fore
SplineSet
230 215 m 0
 230 165 268 99 342 99 c 0
 416 99 491 151 526 188 c 1
 526 428 l 1
 300 385 230 311 230 215 c 0
570 175 m 1
 541 107 450 -24 271 -24 c 0
 155 -24 55 46 55 168 c 0
 55 315 193 462 526 485 c 1
 526 540 l 2
 526 675 485 807 339 807 c 0
 243 807 242 756 228 592 c 1
 175 592 89 596 89 695 c 0
 89 804 293 900 431 900 c 0
 550 900 612 860 641 777 c 1
 716 856 814 899 905 899 c 0
 1046 899 1167 792 1167 581 c 0
 1167 550 1157 479 1149 445 c 1
 688 426 l 1
 696 269 774 86 952 86 c 0
 1020 86 1071 99 1172 155 c 1
 1192 104 l 1
 1115 21 1000 -30 871 -30 c 0
 770 -30 600 37 570 175 c 1
688 507 m 1
 981 543 l 1
 985 559 990 599 990 615 c 0
 990 741 947 801 856 801 c 0
 767 801 697 701 688 507 c 1
EndSplineSet
Substitution2: "'smcp' Lowercase to Small Capitals in Latin lookup 0 subtable" ae.sc
Colour: ffffff
EndChar

StartChar: ampersand
Encoding: 6 38 66
Width: 1281
VWidth: 0
Flags: HMW
LayerCount: 2
Back
SplineSet
-73 711 m 1
 -63 787 l 1
 475 787 l 1
 465 711 l 1
 295 673 l 1
 608 -206 l 1
 928 669 l 5
 746 711 l 5
 753 787 l 5
 1208 787 l 5
 1201 711 l 5
 1069 673 l 5
 644 -453 l 1
 492 -481 l 1
 74 669 l 1
 -73 711 l 1
EndSplineSet
Fore
SplineSet
1046 667 m 1
 966 251 740 -22 376 -22 c 0
 160 -22 23 104 23 300 c 0
 23 451 116 589 309 681 c 1
 238 767 180 846 180 967 c 0
 180 1123 334 1271 494 1271 c 0
 673 1271 783 1176 783 1026 c 0
 783 878 669 773 546 706 c 1
 546 695 l 1
 862 325 1091 116 1202 79 c 2
 1235 70 l 1
 1220 0 l 1
 1183 -13 1143 -19 1100 -19 c 0
 989 -19 852 94 794 158 c 2
 372 619 l 1
 355 622 l 1
 256 552 220 481 220 361 c 0
 220 227 323 121 462 121 c 0
 781 121 892 433 929 685 c 1
 777 711 l 1
 784 787 l 1
 1225 787 l 1
 1218 711 l 1
 1046 667 l 1
345 1024 m 0
 345 924 424 821 488 763 c 1
 572 818 626 867 626 988 c 0
 626 1098 586 1188 474 1188 c 0
 389 1188 345 1112 345 1024 c 0
EndSplineSet
Substitution2: "'c2sc' Capitals to Small Capitals in Latin lookup 3-1" ampersand.sc
Colour: ffffff
EndChar

StartChar: aring
Encoding: 164 229 67
Width: 830
VWidth: 0
Flags: HMW
LayerCount: 2
Fore
SplineSet
47 168 m 0
 47 315 182 462 508 485 c 1
 508 540 l 2
 508 675 469 804 331 804 c 0
 235 804 235 716 220 592 c 1
 167 592 81 596 81 695 c 0
 81 804 285 900 423 900 c 0
 601 900 670 804 670 593 c 2
 670 230 l 2
 670 138 689 111 782 96 c 2
 832 87 l 1
 819 1 l 1
 772 -5 742 -18 683 -18 c 0
 567 -18 528 57 528 116 c 2
 528 131 l 1
 517 131 l 1
 490 78 407 -24 243 -24 c 0
 138 -24 47 46 47 168 c 0
222 215 m 0
 222 165 260 99 334 99 c 0
 404 99 475 151 508 188 c 1
 508 428 l 1
 290 385 222 311 222 215 c 0
228 1167 m 0
 228 1259 303 1338 396 1338 c 0
 492 1338 551 1270 551 1177 c 0
 551 1087 485 1002 383 1002 c 0
 291 1002 228 1065 228 1167 c 0
298 1178 m 0
 298 1117 330 1050 394 1050 c 0
 448 1050 480 1091 480 1164 c 0
 480 1226 446 1291 384 1291 c 0
 325 1291 298 1234 298 1178 c 0
EndSplineSet
Substitution2: "'smcp' Lowercase to Small Capitals in Latin lookup 0 subtable" aring.sc
Colour: ffffff
EndChar

StartChar: asciicircum
Encoding: 62 94 68
Width: 720
VWidth: 0
Flags: HMW
LayerCount: 2
Fore
SplineSet
42 826 m 1
 331 1237 l 1
 386 1250 l 1
 681 824 l 1
 624 787 l 1
 353 1073 l 1
 343 1073 l 1
 92 793 l 1
 42 826 l 1
EndSplineSet
Colour: ffffff
EndChar

StartChar: asciitilde
Encoding: 94 126 69
Width: 947
VWidth: 0
Flags: HMW
LayerCount: 2
Fore
SplineSet
83 412 m 2
 83 412 142 624 274 611 c 2
 724 566 l 2
 761 563 806 628 806 628 c 1
 870 626 l 2
 870 626 808 409 672 424 c 2
 222 469 l 2
 182 473 138 399 138 399 c 1
 83 412 l 2
EndSplineSet
Colour: ffffff
EndChar

StartChar: asterisk
Encoding: 10 42 70
Width: 808
VWidth: 0
Flags: HMW
LayerCount: 2
Fore
SplineSet
328 1292 m 1
 464 1279 l 1
 438 988 l 1
 727 1119 l 1
 756 989 l 1
 471 921 l 1
 690 692 l 1
 572 623 l 1
 419 870 l 1
 264 593 l 1
 162 685 l 1
 355 904 l 1
 43 964 l 1
 98 1091 l 1
 365 977 l 1
 328 1292 l 1
EndSplineSet
Colour: ffffff
EndChar

StartChar: at
Encoding: 32 64 71
Width: 1367
VWidth: 0
Flags: HMW
LayerCount: 2
Fore
SplineSet
54 325 m 0
 54 723 356 1044 787 1044 c 0
 1067 1044 1306 863 1306 589 c 0
 1306 319 1106 70 832 70 c 0
 764 70 735 117 738 187 c 1
 728 187 l 1
 688 128 617 59 541 59 c 0
 436 59 360 155 360 326 c 0
 360 611 590 789 758 789 c 0
 811 789 867 786 924 773 c 1
 943 751 l 1
 902 385 l 2
 893 301 866 168 914 168 c 0
 1065 168 1173 346 1173 549 c 0
 1173 810 987 955 751 955 c 0
 422 955 209 665 209 351 c 0
 209 56 399 -135 727 -135 c 0
 877 -135 1032 -59 1079 -19 c 1
 1115 -83 l 1
 1026 -136 906 -228 691 -228 c 0
 387 -228 54 -77 54 325 c 0
516 368 m 0
 516 217 551 181 601 181 c 0
 654 181 705 214 739 254 c 1
 792 692 l 1
 773 696 735 703 704 703 c 0
 588 703 516 522 516 368 c 0
EndSplineSet
Colour: ffffff
EndChar

StartChar: atilde
Encoding: 162 227 72
Width: 830
VWidth: 0
Flags: HMW
LayerCount: 2
Fore
SplineSet
47 168 m 0
 47 315 182 462 508 485 c 1
 508 540 l 2
 508 675 469 804 331 804 c 0
 235 804 235 716 220 592 c 1
 167 592 81 596 81 695 c 0
 81 804 285 900 423 900 c 0
 601 900 670 804 670 593 c 2
 670 230 l 2
 670 138 689 111 782 96 c 2
 832 87 l 1
 819 1 l 1
 772 -5 742 -18 683 -18 c 0
 567 -18 528 57 528 116 c 2
 528 131 l 1
 517 131 l 1
 490 78 407 -24 243 -24 c 0
 138 -24 47 46 47 168 c 0
175 1015 m 1
 175 1015 207 1158 296 1158 c 0
 300 1158 305 1158 309 1157 c 2
 532 1127 l 1
 537 1127 l 2
 562 1127 592 1169 592 1169 c 1
 640 1167 l 1
 640 1167 602 1023 510 1023 c 0
 506 1023 501 1023 497 1024 c 2
 275 1054 l 1
 271 1054 l 2
 243 1054 212 1007 212 1007 c 1
 175 1015 l 1
222 215 m 0
 222 165 260 99 334 99 c 0
 404 99 475 151 508 188 c 1
 508 428 l 1
 290 385 222 311 222 215 c 0
EndSplineSet
Substitution2: "'smcp' Lowercase to Small Capitals in Latin lookup 0 subtable" atilde.sc
Colour: ffffff
EndChar

StartChar: b
Encoding: 66 98 73
Width: 955
VWidth: 0
Flags: HMW
LayerCount: 2
Fore
SplineSet
-15 1191 m 1
 -2 1267 l 1
 275 1288 l 1
 299 1265 l 1
 299 849 l 1
 285 744 l 1
 296 744 l 1
 375 833 468 899 581 899 c 0
 775 899 904 725 904 472 c 0
 904 155 671 -23 411 -23 c 0
 321 -23 216 -1 136 49 c 1
 136 1138 l 1
 -15 1191 l 1
299 155 m 1
 339 115 423 87 510 87 c 0
 624 87 725 185 725 408 c 0
 725 556 684 768 513 768 c 0
 457 768 378 755 299 672 c 1
 299 155 l 1
EndSplineSet
Substitution2: "'smcp' Lowercase to Small Capitals in Latin lookup 0 subtable" b.sc
Colour: ffffff
EndChar

StartChar: backslash
Encoding: 60 92 74
Width: 677
VWidth: 0
Flags: HMW
LayerCount: 2
Fore
SplineSet
37 1274 m 1
 171 1266 l 1
 632 -376 l 1
 504 -368 l 1
 37 1274 l 1
EndSplineSet
Colour: ffffff
EndChar

StartChar: bar
Encoding: 92 124 75
Width: 331
VWidth: 0
Flags: HMW
LayerCount: 2
Fore
SplineSet
109 -366 m 1
 109 1260 l 1
 224 1248 l 1
 224 -380 l 1
 109 -366 l 1
EndSplineSet
Colour: ffffff
EndChar

StartChar: braceleft
Encoding: 91 123 76
Width: 551
VWidth: 0
Flags: HMW
LayerCount: 2
Fore
SplineSet
4 389 m 1
 4 488 l 1
 53 497 l 1
 345 547 17 1255 426 1255 c 2
 527 1255 l 1
 518 1155 l 1
 436 1149 l 2
 368 1143 364 1044 364 921 c 2
 364 862 l 2
 364 687 356 491 194 445 c 1
 194 438 l 1
 492 352 265 -259 449 -271 c 2
 523 -277 l 1
 531 -378 l 1
 429 -378 l 2
 14 -378 343 335 56 381 c 2
 4 389 l 1
EndSplineSet
Colour: ffffff
EndChar

StartChar: braceright
Encoding: 93 125 77
Width: 553
VWidth: 0
Flags: HMW
LayerCount: 2
Fore
SplineSet
22 -378 m 1
 31 -277 l 1
 105 -271 l 2
 289 -259 62 352 360 438 c 1
 360 445 l 1
 62 515 292 1134 117 1149 c 2
 35 1155 l 1
 28 1255 l 1
 129 1255 l 2
 538 1255 208 547 500 497 c 1
 549 488 l 1
 549 389 l 1
 497 381 l 2
 210 335 541 -378 126 -378 c 2
 22 -378 l 1
EndSplineSet
Colour: ffffff
EndChar

StartChar: bracketleft
Encoding: 59 91 78
Width: 474
VWidth: 0
Flags: HMW
LayerCount: 2
Fore
SplineSet
109 -376 m 1
 109 1255 l 1
 463 1255 l 1
 474 1166 l 1
 260 1146 l 1
 260 -260 l 1
 476 -279 l 1
 466 -375 l 1
 109 -376 l 1
EndSplineSet
Colour: ffffff
EndChar

StartChar: bracketright
Encoding: 61 93 79
Width: 474
VWidth: 0
Flags: HMW
LayerCount: 2
Fore
SplineSet
0 -279 m 1
 217 -260 l 1
 217 1146 l 1
 1 1166 l 1
 13 1255 l 1
 366 1255 l 1
 368 -376 l 1
 10 -375 l 1
 0 -279 l 1
EndSplineSet
Colour: ffffff
EndChar

StartChar: brokenbar
Encoding: 101 166 80
Width: 335
VWidth: 0
Flags: HMW
LayerCount: 2
Back
SplineSet
177 -350 m 1
 301 431 l 1
 410 419 l 1
 286 -363 l 1
 177 -350 l 1
319 540 m 1
 431 1255 l 1
 540 1244 l 1
 423 528 l 1
 319 540 l 1
EndSplineSet
Fore
SplineSet
109 -366 m 1
 109 423 l 1
 228 411 l 1
 228 -380 l 1
 109 -366 l 1
109 540 m 1
 109 1260 l 1
 227 1248 l 1
 225 529 l 1
 109 540 l 1
EndSplineSet
Colour: ffffff
EndChar

StartChar: c
Encoding: 67 99 81
Width: 778
VWidth: 0
Flags: HMW
LayerCount: 2
Fore
SplineSet
50 415 m 4
 50 712 258 900 475 900 c 4
 642 900 716 826 716 747 c 4
 716 688 672 648 589 642 c 5
 561 709 515 806 428 806 c 4
 309 806 231 688 231 507 c 4
 231 340 320 90 528 90 c 4
 627 90 683 121 730 151 c 5
 755 93 l 5
 702 29 574 -30 445 -30 c 4
 205 -30 50 175 50 415 c 4
EndSplineSet
Substitution2: "'smcp' Lowercase to Small Capitals in Latin lookup 0 subtable" c.sc
Colour: ffffff
EndChar

StartChar: ccedilla
Encoding: 166 231 82
Width: 802
VWidth: 0
Flags: HMW
LayerCount: 2
Fore
SplineSet
54 415 m 0
 54 712 260 900 477 900 c 0
 644 900 719 826 719 747 c 0
 719 688 675 648 592 642 c 1
 564 709 517 806 430 806 c 0
 311 806 233 688 233 507 c 0
 233 340 322 90 530 90 c 0
 629 90 685 121 732 151 c 1
 758 93 l 1
 712 36 608 -17 495 -28 c 1
 461 -76 l 1
 498 -109 550 -160 550 -227 c 0
 550 -306 467 -355 351 -389 c 1
 331 -331 l 1
 388 -312 417 -278 417 -248 c 0
 417 -214 380 -172 344 -138 c 1
 419 -28 l 1
 195 -13 54 185 54 415 c 0
EndSplineSet
Substitution2: "'smcp' Lowercase to Small Capitals in Latin lookup 0 subtable" ccedilla.sc
Colour: ffffff
EndChar

StartChar: cedilla
Encoding: 119 184 83
Width: 341
VWidth: 0
Flags: HMW
LayerCount: 2
Fore
SplineSet
62 -331 m 1
 119 -312 148 -278 148 -248 c 0
 148 -214 110 -172 74 -138 c 1
 172 3 l 1
 246 3 l 1
 193 -76 l 1
 230 -109 282 -160 282 -227 c 0
 282 -306 197 -355 81 -389 c 1
 62 -331 l 1
EndSplineSet
Colour: ffffff
EndChar

StartChar: cent
Encoding: 97 162 84
Width: 808
VWidth: 0
Flags: HMW
LayerCount: 2
Fore
SplineSet
41 415 m 0
 41 712 249 940 466 940 c 0
 633 940 707 866 707 787 c 0
 707 728 664 689 581 683 c 1
 553 750 506 846 419 846 c 0
 300 846 222 688 222 507 c 0
 222 340 311 90 519 90 c 0
 618 90 674 121 721 151 c 1
 746 93 l 1
 693 29 565 -30 436 -30 c 0
 196 -30 41 175 41 415 c 0
347 1154 m 1
 493 1171 l 1
 469 903 l 1
 378 903 l 1
 347 1154 l 1
357 -266 m 1
 383 0 l 1
 472 0 l 1
 505 -250 l 1
 357 -266 l 1
EndSplineSet
Colour: ffffff
EndChar

StartChar: circumflex
Encoding: 191 710 85
Width: 584
VWidth: 0
Flags: HMW
LayerCount: 2
Fore
SplineSet
90 1387 m 1
 258 1566 l 1
 313 1581 l 1
 491 1395 l 1
 442 1358 l 1
 279 1468 l 1
 268 1468 l 1
 129 1357 l 1
 90 1387 l 1
EndSplineSet
Colour: ffffff
EndChar

StartChar: colon
Encoding: 26 58 86
Width: 422
VWidth: 0
Flags: HMW
LayerCount: 2
Back
SplineSet
439 1235 m 21
 571 1244 l 13
 106 -355 l 21
 -23 -363 l 13
 439 1235 l 21
EndSplineSet
Fore
SplineSet
99 119 m 0
 99 178 151 224 212 224 c 0
 273 224 325 176 325 117 c 0
 325 53 273 1 212 1 c 0
 150 1 99 55 99 119 c 0
99 747 m 0
 99 808 151 853 212 853 c 0
 273 853 325 805 325 744 c 0
 325 680 273 629 212 629 c 0
 150 629 99 683 99 747 c 0
EndSplineSet
Colour: ffffff
EndChar

StartChar: comma
Encoding: 12 44 87
Width: 434
VWidth: 0
Flags: HMW
LayerCount: 2
Back
SplineSet
-18 -244 m 1
 117 -209 192 -125 192 -61 c 0
 192 -7 162 36 91 36 c 0
 81 36 73 33 61 30 c 1
 56 51 54 61 54 84 c 0
 54 167 147 218 198 218 c 0
 267 218 345 183 345 31 c 0
 345 -65 267 -245 -7 -314 c 1
 -18 -244 l 1
EndSplineSet
Fore
SplineSet
54 -244 m 1
 185 -210 236 -134 236 -70 c 0
 236 -14 190 36 120 36 c 0
 110 36 100 35 90 34 c 1
 82 55 76 74 76 97 c 0
 76 177 148 218 198 218 c 0
 268 218 372 161 372 10 c 0
 372 -83 340 -243 77 -313 c 1
 54 -244 l 1
EndSplineSet
Colour: ffffff
EndChar

StartChar: copyright
Encoding: 104 169 88
Width: 1377
VWidth: 0
Flags: HMW
LayerCount: 2
Back
SplineSet
874 1191 m 0
 568 1191 268 948 268 509 c 0
 268 273 388 68 694 68 c 0
 1008 68 1311 309 1311 743 c 0
 1311 971 1186 1191 874 1191 c 0
1425 765 m 0
 1425 248 1055 -26 670 -26 c 0
 305 -26 152 229 152 492 c 0
 152 974 516 1282 888 1282 c 0
 1266 1282 1425 1023 1425 765 c 0
EndSplineSet
Fore
SplineSet
53 645 m 0
 53 1026 346 1320 684 1320 c 0
 1079 1320 1327 1033 1327 649 c 0
 1327 292 1041 -15 675 -15 c 0
 309 -15 53 270 53 645 c 0
176 657 m 0
 176 329 387 92 683 92 c 0
 971 92 1205 325 1205 639 c 0
 1205 964 1019 1217 684 1217 c 0
 396 1217 176 961 176 657 c 0
EndSplineSet
Refer: 81 99 N 0.85 0 0 0.85 302 291 2
Colour: ffffff
EndChar

StartChar: currency
Encoding: 99 164 89
Width: 763
VWidth: 0
Flags: HMW
LayerCount: 2
Fore
SplineSet
37 746 m 5
 120 827 l 5
 230 709 l 5
 273 745 335 768 384 768 c 4
 438 768 501 748 541 718 c 5
 652 830 l 5
 725 742 l 5
 611 636 l 5
 632 599 647 538 647 491 c 4
 647 441 631 379 604 342 c 5
 728 223 l 5
 644 143 l 5
 531 264 l 5
 485 236 423 217 376 217 c 4
 336 217 282 233 242 257 c 5
 133 136 l 5
 50 221 l 5
 165 332 l 5
 138 372 120 435 120 488 c 4
 120 534 136 592 159 628 c 5
 37 746 l 5
225 494 m 4
 225 386 289 313 381 313 c 4
 477 313 541 383 541 487 c 4
 541 598 477 670 380 670 c 4
 288 670 225 599 225 494 c 4
EndSplineSet
Colour: ffffff
EndChar

StartChar: d
Encoding: 68 100 90
Width: 987
VWidth: 0
Flags: HMW
LayerCount: 2
Fore
SplineSet
54 399 m 0
 54 690 285 900 491 900 c 0
 557 900 630 880 663 856 c 1
 670 856 l 1
 658 984 l 1
 658 1141 l 5
 506 1196 l 5
 520 1271 l 5
 798 1295 l 5
 819 1271 l 5
 819 215 l 2
 819 110 862 104 928 89 c 2
 973 79 l 1
 962 -4 l 1
 903 -19 877 -23 815 -23 c 0
 715 -23 666 41 666 124 c 2
 666 131 l 1
 657 131 l 1
 601 54 518 -21 380 -21 c 0
 203 -21 54 124 54 399 c 0
230 462 m 0
 230 225 325 105 451 105 c 0
 534 105 623 157 657 197 c 1
 657 666 l 1
 604 753 510 802 443 802 c 0
 286 802 230 653 230 462 c 0
EndSplineSet
Substitution2: "'smcp' Lowercase to Small Capitals in Latin lookup 0 subtable" d.sc
Colour: ffffff
EndChar

StartChar: dagger
Encoding: 230 8224 91
Width: 797
VWidth: 0
Flags: HMW
LayerCount: 2
Fore
SplineSet
37 712 m 1
 45 827 l 1
 342 819 l 1
 334 1255 l 1
 467 1244 l 1
 458 819 l 1
 764 827 l 1
 756 705 l 1
 458 716 l 1
 473 -363 l 1
 328 -351 l 1
 342 718 l 1
 37 712 l 1
EndSplineSet
Colour: ffffff
EndChar

StartChar: daggerdbl
Encoding: 231 8225 92
Width: 829
VWidth: 0
Flags: HMW
LayerCount: 2
Fore
SplineSet
52 712 m 1
 59 827 l 1
 354 819 l 1
 347 1255 l 1
 480 1244 l 1
 470 819 l 1
 774 827 l 1
 768 705 l 1
 470 716 l 1
 461 429 l 1
 464 174 l 1
 777 181 l 1
 771 64 l 1
 464 73 l 1
 473 -363 l 1
 340 -352 l 1
 350 73 l 1
 62 64 l 1
 70 187 l 1
 350 175 l 1
 357 498 l 1
 354 718 l 1
 52 712 l 1
EndSplineSet
Colour: ffffff
EndChar

StartChar: degree
Encoding: 111 176 93
Width: 424
VWidth: 0
Flags: HMW
LayerCount: 2
Fore
SplineSet
32 1107 m 0
 32 1210 117 1304 225 1304 c 0
 341 1304 396 1237 396 1128 c 0
 396 1013 307 928 201 928 c 0
 99 928 32 990 32 1107 c 0
123 1129 m 0
 123 1068 155 995 219 995 c 0
 273 995 304 1032 304 1105 c 0
 304 1167 271 1237 209 1237 c 0
 150 1237 123 1185 123 1129 c 0
EndSplineSet
Colour: ffffff
EndChar

StartChar: dieresis
Encoding: 103 168 94
Width: 623
VWidth: 0
Flags: HMW
LayerCount: 2
Back
SplineSet
720 1542 m 0
 765 1542 801 1511 794 1465 c 0
 786 1415 740 1384 695 1384 c 0
 652 1384 615 1415 623 1465 c 0
 631 1513 679 1542 720 1542 c 0
453 1542 m 0
 498 1542 532 1511 525 1465 c 0
 517 1415 473 1384 428 1384 c 0
 385 1384 347 1415 355 1465 c 0
 363 1513 412 1542 453 1542 c 0
540 1255 m 0
EndSplineSet
Fore
SplineSet
92 1465 m 0
 92 1512 137 1542 177 1542 c 0
 221 1542 263 1511 263 1465 c 0
 263 1416 221 1383 177 1383 c 0
 134 1383 92 1416 92 1465 c 0
360 1465 m 0
 360 1512 405 1542 445 1542 c 0
 489 1542 532 1511 532 1465 c 0
 532 1416 489 1383 445 1383 c 0
 402 1383 360 1416 360 1465 c 0
EndSplineSet
Colour: ffffff
EndChar

StartChar: divide
Encoding: 182 247 95
Width: 932
VWidth: 0
Flags: HMW
LayerCount: 2
Fore
SplineSet
55 454 m 1
 67 560 l 1
 879 560 l 1
 868 454 l 1
 55 454 l 1
341 228 m 0
 341 292 396 341 460 341 c 0
 526 341 581 291 581 227 c 0
 581 160 526 104 460 104 c 0
 394 104 341 161 341 228 c 0
341 790 m 0
 341 854 396 903 460 903 c 0
 526 903 581 853 581 789 c 0
 581 722 526 666 460 666 c 0
 394 666 341 723 341 790 c 0
EndSplineSet
Colour: ffffff
EndChar

StartChar: dollar
Encoding: 4 36 96
Width: 859
VWidth: 0
Flags: HMW
LayerCount: 2
Back
SplineSet
888 885 m 1
 814 902 l 1
 796 1093 l 2
 794 1110 753 1151 697 1171 c 1
 628 730 l 1
 772 636 937 541 907 353 c 0
 876 153 692 20 495 -15 c 1
 479 -111 l 1
 380 -111 l 1
 395 -25 l 1
 390 -25 l 2
 245 -25 135 30 71 122 c 1
 126 390 l 1
 206 377 l 1
 228 187 l 1
 263 123 333 77 411 74 c 1
 484 527 l 1
 345 615 204 730 235 930 c 0
 268 1140 434 1247 611 1267 c 1
 624 1343 l 1
 723 1343 l 1
 712 1268 l 1
 791 1261 885 1235 951 1166 c 1
 949 1158 888 885 888 885 c 1
537 781 m 1
 599 1182 l 1
 513 1172 449 1119 431 1002 c 0
 416 910 453 827 537 781 c 1
576 494 m 1
 512 86 l 1
 600 107 688 167 708 291 c 0
 720 367 660 438 576 494 c 1
EndSplineSet
Fore
SplineSet
66 122 m 1
 79 389 l 1
 181 375 l 1
 220 187 l 1
 256 130 333 77 426 77 c 0
 531 77 663 139 663 287 c 0
 663 547 90 544 90 916 c 0
 90 1143 282 1269 479 1269 c 0
 587 1269 682 1235 761 1169 c 1
 761 1161 739 887 739 887 c 1
 640 899 l 1
 615 1090 l 1
 597 1126 525 1185 445 1185 c 0
 345 1185 263 1126 263 995 c 0
 263 708 847 730 847 354 c 0
 847 124 630 -24 402 -24 c 0
 258 -24 130 43 66 122 c 1
367 -179 m 1
 379 9 l 1
 416 54 l 1
 416 631 l 1
 421 700 l 1
 421 1207 l 1
 385 1242 l 1
 370 1394 l 1
 535 1409 l 1
 518 1242 l 1
 483 1202 l 1
 483 666 l 1
 486 582 l 1
 486 54 l 1
 527 20 l 1
 540 -164 l 1
 367 -179 l 1
EndSplineSet
Substitution2: "'onum' Oldstyle Figures lookup 1-1" dollar.osf
Colour: ffffff
EndChar

StartChar: dotaccent
Encoding: 192 729 97
Width: 425
VWidth: 0
Flags: HMW
LayerCount: 2
Fore
SplineSet
92 1479 m 0
 92 1543 149 1593 211 1593 c 0
 277 1593 334 1542 334 1478 c 0
 334 1411 277 1355 211 1355 c 0
 145 1355 92 1412 92 1479 c 0
EndSplineSet
Colour: ffffff
EndChar

StartChar: e
Encoding: 69 101 98
Width: 802
VWidth: 0
Flags: HMW
LayerCount: 2
Fore
SplineSet
53 428 m 4
 53 728 270 899 464 899 c 4
 609 899 731 792 731 581 c 4
 731 550 723 485 715 451 c 5
 231 445 l 5
 239 288 323 102 510 102 c 4
 583 102 634 101 737 157 c 5
 758 104 l 5
 679 21 561 -30 429 -30 c 4
 241 -30 53 124 53 428 c 4
233 523 m 5
 547 546 l 5
 551 562 553 599 553 615 c 4
 553 734 511 801 415 801 c 4
 335 801 243 717 233 523 c 5
EndSplineSet
Substitution2: "'smcp' Lowercase to Small Capitals in Latin lookup 0 subtable" e.sc
Colour: ffffff
EndChar

StartChar: ecircumflex
Encoding: 169 234 100
Width: 802
VWidth: 0
Flags: HMW
LayerCount: 2
Fore
SplineSet
53 428 m 0
 53 728 270 899 464 899 c 0
 609 899 731 792 731 581 c 0
 731 550 723 485 715 451 c 1
 231 445 l 1
 239 288 323 102 510 102 c 2
 516 102 l 2
 583 102 637 103 737 157 c 1
 758 104 l 1
 679 21 561 -30 429 -30 c 0
 241 -30 53 124 53 428 c 0
233 523 m 1
 547 546 l 1
 551 562 553 599 553 615 c 0
 553 734 511 801 415 801 c 0
 335 801 243 717 233 523 c 1
233 1024 m 1
 402 1203 l 1
 457 1217 l 1
 633 1032 l 1
 585 995 l 1
 421 1104 l 1
 411 1104 l 1
 271 993 l 1
 233 1024 l 1
EndSplineSet
Substitution2: "'smcp' Lowercase to Small Capitals in Latin lookup 0 subtable" ecircumflex.sc
Colour: ffffff
EndChar

StartChar: edieresis
Encoding: 170 235 101
Width: 802
VWidth: 0
Flags: HMW
LayerCount: 2
Fore
SplineSet
53 428 m 0
 53 728 270 899 464 899 c 0
 609 899 731 792 731 581 c 0
 731 550 723 485 715 451 c 1
 231 445 l 1
 239 288 323 102 510 102 c 2
 516 102 l 2
 583 102 637 103 737 157 c 1
 758 104 l 1
 679 21 561 -30 429 -30 c 0
 241 -30 53 124 53 428 c 0
211 1084 m 0
 211 1131 255 1163 295 1163 c 0
 339 1163 381 1130 381 1084 c 0
 381 1035 339 1004 295 1004 c 0
 252 1004 211 1035 211 1084 c 0
233 523 m 1
 547 546 l 1
 551 562 553 599 553 615 c 0
 553 734 511 801 415 801 c 0
 335 801 243 717 233 523 c 1
479 1084 m 0
 479 1131 522 1163 562 1163 c 0
 606 1163 650 1130 650 1084 c 0
 650 1035 606 1004 562 1004 c 0
 519 1004 479 1035 479 1084 c 0
EndSplineSet
Substitution2: "'smcp' Lowercase to Small Capitals in Latin lookup 0 subtable" edieresis.sc
Colour: ffffff
EndChar

StartChar: eight
Encoding: 24 56 103
Width: 982
VWidth: 1651
Flags: HMW
LayerCount: 2
Back
SplineSet
494 542 m 1xe8
 463 517 463 517 433 492 c 0
 413 475 394 458 377 438 c 0
 360 418 349 394 339 368 c 0
 329 342 324 310 324 274 c 0
 324 248 327 222 337 197 c 0
 347 172 360 149 377 129 c 0
 394 109 412 95 433 83 c 0
 454 71 477 64 502 64 c 0
 586 64 646 84 684 122 c 0
 722 160 740 209 740 272 c 0
 740 297 733 321 718 344 c 0
 703 367 685 392 662 413 c 0
 639 434 615 458 585 479 c 0
 542 512 540 511 494 542 c 1xe8
159 236 m 0
 159 304 183 365 231 419 c 0
 279 473 349 525 443 576 c 1
 444 585 l 1
 429 595 411 607 393 624 c 0
 375 641 357 659 340 680 c 0
 323 701 311 727 301 753 c 0
 291 779 286 806 286 836 c 0
 286 879 296 921 317 961 c 0
 338 1001 365 1036 400 1067 c 0
 435 1098 476 1123 522 1143 c 0
 568 1163 616 1173 667 1173 c 0
 710 1173 748 1166 781 1153 c 0
 814 1140 842 1124 865 1103 c 0
 888 1082 905 1055 917 1027 c 0
 929 999 935 968 935 935 c 0xd4
 935 904 929 870 917 839 c 0
 905 808 889 779 869 751 c 0
 849 723 824 700 796 679 c 0
 768 658 738 643 707 631 c 1
 704 621 l 1
 763 580 813 534 849 484 c 0
 885 434 903 381 903 327 c 0
 903 281 893 238 872 195 c 0
 851 152 819 114 779 81 c 0
 739 48 692 23 636 3 c 0
 580 -17 517 -26 446 -26 c 0
 405 -26 367 -20 332 -8 c 0
 297 4 266 20 241 43 c 0
 216 66 197 93 182 126 c 0
 167 159 159 195 159 236 c 0
646 661 m 1
 671 674 692 689 710 704 c 0
 728 719 743 736 755 756 c 0
 767 776 776 797 781 822 c 0
 786 847 789 876 789 907 c 0
 789 965 775 1010 745 1045 c 0
 715 1080 678 1098 633 1098 c 0
 602 1098 575 1092 552 1080 c 0
 529 1068 509 1055 492 1037 c 0
 475 1019 464 999 456 978 c 0
 448 957 443 934 443 913 c 0
 443 863 461 817 499 776 c 0
 537 735 587 697 646 661 c 1
EndSplineSet
Fore
SplineSet
110 283 m 0
 110 398 210 516 352 583 c 1
 352 592 l 1
 259 654 170 736 170 879 c 0
 170 1047 325 1201 516 1201 c 0
 722 1201 831 1077 831 926 c 0
 831 820 762 704 632 647 c 1
 629 637 l 1
 764 539 881 454 881 302 c 0
 881 117 739 -27 461 -27 c 0
 272 -27 110 90 110 283 c 0
299 307 m 0
 299 143 412 61 526 61 c 0
 621 61 703 130 703 223 c 0
 703 374 510 480 419 541 c 1
 386 532 299 448 299 307 c 0
336 955 m 0
 336 865 420 767 562 686 c 1
 622 720 665 780 665 890 c 0
 665 1031 590 1124 491 1124 c 0
 381 1124 336 1035 336 955 c 0
EndSplineSet
Substitution2: "'onum' Oldstyle Figures lookup 1-1" eight.osf
Colour: ffffff
EndChar

StartChar: eight.osf
Encoding: 236 -1 104
Width: 804
VWidth: 0
Flags: HMW
LayerCount: 2
Fore
SplineSet
55 280 m 0
 55 393 127 499 271 589 c 1
 271 598 l 1
 197 642 100 753 100 887 c 0
 100 1055 242 1201 417 1201 c 0
 589 1201 700 1094 700 943 c 0
 700 826 650 731 534 645 c 1
 534 636 l 1
 681 544 752 430 752 308 c 0
 752 124 590 -27 360 -27 c 0
 176 -27 55 89 55 280 c 0
220 304 m 0
 220 185 301 66 406 66 c 0
 519 66 594 132 594 266 c 0
 594 374 475 465 330 555 c 1
 277 515 220 409 220 304 c 0
249 977 m 0
 249 868 325 756 466 676 c 1
 506 720 552 778 552 906 c 0
 552 1014 495 1124 390 1124 c 0
 311 1124 249 1057 249 977 c 0
EndSplineSet
Colour: ffffff
EndChar

StartChar: emdash
Encoding: 224 8212 105
Width: 1306
VWidth: 0
Flags: HMW
LayerCount: 2
Fore
SplineSet
87 409 m 1
 102 513 l 1
 1223 520 l 1
 1207 415 l 1
 87 409 l 1
EndSplineSet
Colour: ffffff
EndChar

StartChar: endash
Encoding: 223 8211 106
Width: 795
VWidth: 0
Flags: HMW
LayerCount: 2
Fore
SplineSet
87 409 m 1
 102 513 l 1
 713 520 l 1
 697 415 l 1
 87 409 l 1
EndSplineSet
Colour: ffffff
EndChar

StartChar: equal
Encoding: 29 61 107
Width: 809
VWidth: 0
Flags: HMW
LayerCount: 2
Back
SplineSet
162 424 m 1
 776 424 l 1
 748 319 l 1
 134 319 l 1
 162 424 l 1
203 664 m 1
 817 664 l 1
 789 558 l 1
 175 558 l 1
 203 664 l 1
EndSplineSet
Fore
SplineSet
92 319 m 1
 102 424 l 1
 717 424 l 1
 706 319 l 1
 92 319 l 1
95 559 m 1
 105 663 l 1
 721 663 l 1
 709 559 l 1
 95 559 l 1
EndSplineSet
Colour: ffffff
EndChar

StartChar: eth
Encoding: 175 240 108
Width: 912
VWidth: 0
Flags: HMW
LayerCount: 2
Fore
SplineSet
53 451 m 0
 53 746 232 948 445 948 c 0
 485 948 572 933 602 857 c 1
 608 859 l 1
 587 929 541 1001 497 1071 c 1
 282 1031 l 1
 292 1106 l 1
 461 1139 l 1
 415 1205 365 1262 321 1302 c 1
 438 1302 l 1
 471 1283 528 1238 589 1171 c 1
 740 1201 l 1
 730 1124 l 1
 642 1106 l 1
 746 968 842 757 842 465 c 0
 842 157 663 -27 448 -27 c 0
 171 -27 53 208 53 451 c 0
231 498 m 5
 234 227 332 70 470 70 c 0
 625 70 669 209 669 424 c 0
 669 658 548 853 432 856 c 1
 285 856 231 714 231 498 c 5
EndSplineSet
Substitution2: "'smcp' Lowercase to Small Capitals in Latin lookup 0 subtable" eth.sc
Colour: ffffff
EndChar

StartChar: exclam
Encoding: 1 33 109
Width: 412
VWidth: 0
Flags: HMW
LayerCount: 2
Back
SplineSet
345 363 m 1xa0
 344 357 l 1
 258 377 l 1
 258 380 l 1
 284 702 327 1141 344 1250 c 2
 344 1253 l 1
 357 1281 446 1293 482 1293 c 0
 508 1293 545 1284 540 1253 c 0
 514 1085 423 685 345 363 c 1xa0
383 91 m 0xc0
 371 20 307 -36 238 -36 c 0
 169 -36 122 21 134 92 c 0
 144 160 210 210 276 210 c 0
 344 210 393 159 383 91 c 0xc0
EndSplineSet
Fore
SplineSet
83 92 m 0
 83 159 140 210 206 210 c 0
 273 210 331 157 331 90 c 0
 331 20 276 -36 206 -36 c 0
 136 -36 83 22 83 92 c 0
109 1245 m 0
 109 1282 197 1292 240 1292 c 0
 267 1292 304 1284 304 1253 c 0
 304 1084 273 675 249 357 c 1
 162 376 l 1
 147 669 109 1072 109 1245 c 0
EndSplineSet
Colour: ffffff
EndChar

StartChar: exclamdown
Encoding: 96 161 110
Width: 387
VWidth: 0
Flags: HMW
LayerCount: 2
Back
SplineSet
284 533 m 1xc0
 286 540 l 1
 372 520 l 1
 372 517 l 1
 346 195 299 -266 282 -375 c 2
 282 -378 l 1
 269 -406 180 -418 144 -418 c 0
 118 -418 81 -409 86 -378 c 0
 112 -210 206 211 284 533 c 1xc0
243 784 m 0xa0
 255 855 319 912 388 912 c 0
 457 912 504 854 492 783 c 0
 482 715 416 666 350 666 c 0
 282 666 233 716 243 784 c 0xa0
EndSplineSet
Fore
SplineSet
97 -378 m 0
 97 -210 124 212 151 534 c 1
 151 540 l 1
 240 520 l 1
 240 517 l 1
 264 195 294 -266 294 -375 c 2
 294 -378 l 1
 286 -406 198 -418 162 -418 c 0
 135 -418 97 -409 97 -378 c 0
70 784 m 0
 70 854 126 910 196 910 c 0
 266 910 320 853 320 783 c 0
 320 716 262 666 196 666 c 0
 129 666 70 717 70 784 c 0
EndSplineSet
Colour: ffffff
EndChar

StartChar: f
Encoding: 70 102 111
Width: 694
VWidth: 0
Flags: HMW
LayerCount: 2
Fore
SplineSet
35 0 m 1
 47 73 l 1
 199 116 l 1
 199 784 l 1
 50 784 l 1
 62 857 l 1
 200 879 l 1
 233 1187.33 433 1334 575 1334 c 0
 680 1334 762 1299 762 1219 c 0
 762 1170 706 1120 673 1107 c 1
 633 1156 559 1228 497 1228 c 0
 423 1228 372 1176.78 368 981 c 1
 366 873 l 1
 623 873 l 1
 611 784 l 1
 366 784 l 1
 366 121 l 1
 611 83 l 1
 604 0 l 1
 35 0 l 1
EndSplineSet
Substitution2: "'smcp' Lowercase to Small Capitals in Latin lookup 0 subtable" f.sc
Colour: ffffff
EndChar

StartChar: five
Encoding: 21 53 112
Width: 982
VWidth: 1651
Flags: HMW
LayerCount: 2
Back
SplineSet
266 41 m 1
 416 56 531 91 614 145 c 0
 697 199 740 270 740 358 c 0
 740 441 708 505 644 555 c 0
 580 605 474 634 327 644 c 1
 522 1141 l 1
 960 1169 l 1
 915 1016 l 1
 553 997 l 1
 471 784 l 1
 545 779 611 768 669 748 c 0
 727 728 775 701 813 670 c 0
 851 639 878 605 898 562 c 0
 918 519 928 473 928 423 c 0
 928 369 914 314 888 261 c 0
 862 208 823 159 770 116 c 0
 717 73 648 37 565 7 c 0
 482 -23 385 -41 271 -48 c 1
 266 41 l 1
EndSplineSet
Fore
SplineSet
127 74 m 1
 163 387 l 1
 248 368 l 1
 259 155 l 1
 301 93 374 67 460 67 c 0
 587 67 669 154 669 285 c 0
 669 456 513 582 213 602 c 1
 332 1169 l 1
 801 1198 l 1
 775 1016 l 1
 388 1000 l 1
 352 762 l 1
 686 732 845 560 845 349 c 0
 845 154 661 -25 416 -25 c 0
 303 -25 204 -3 127 74 c 1
EndSplineSet
Substitution2: "'onum' Oldstyle Figures lookup 1-1" five.osf
Colour: ffffff
EndChar

StartChar: five.osf
Encoding: 237 -1 113
Width: 700
VWidth: 0
Flags: HMW
LayerCount: 2
Fore
SplineSet
-66 -159 m 4
 -66 -86 -25 -37 34 -26 c 5
 68 -96 146 -206 255 -206 c 4
 384 -206 479 -117 479 80 c 4
 479 278 347 395 76 426 c 5
 179 934 l 5
 623 974 l 5
 598 811 l 5
 240 788 l 5
 209 570 l 5
 516 540 663 376 663 145 c 4
 663 -60 466 -297 202 -297 c 4
 12 -297 -66 -217 -66 -159 c 4
EndSplineSet
Colour: ffffff
EndChar

StartChar: four
Encoding: 20 52 114
Width: 982
VWidth: 1651
Flags: HMW
LayerCount: 2
Back
SplineSet
585 348 m 1
 109 348 l 1
 97 421 l 1
 806 1166 l 1
 865 1148 l 1
 860 1120 856 1086 849 1050 c 0
 839 994 839 994 829 931 c 0
 819 868 819 869 809 801 c 0
 802 756 796 712 791 667 c 2
 763 467 l 1
 1009 467 l 1
 976 345 l 1
 745 345 l 1
 700 15 l 1
 532 -12 l 1
 585 348 l 1
657 888 m 1
 269 467 l 1
 598 467 l 1
 657 888 l 1
EndSplineSet
Fore
SplineSet
15 401 m 1
 657 1194 l 1
 722 1176 l 1
 716 1057 712 864 712 683 c 2
 712 449 l 1
 967 449 l 1
 951 316 l 1
 712 316 l 1
 712 15 l 1
 532 -16 l 1
 532 319 l 1
 38 319 l 1
 15 401 l 1
200 449 m 1
 529 449 l 1
 529 912 l 1
 200 449 l 1
EndSplineSet
Substitution2: "'onum' Oldstyle Figures lookup 1-1" four.osf
Colour: ffffff
EndChar

StartChar: four.osf
Encoding: 238 -1 115
Width: 940
VWidth: 0
Flags: HMW
LayerCount: 2
Fore
SplineSet
-9 164 m 1
 618 986 l 1
 683 968 l 1
 677 849 673 613 673 432 c 2
 673 211 l 1
 927 211 l 1
 910 86 l 1
 675 86 l 1
 675 -267 l 1
 500 -304 l 1
 500 89 l 1
 14 89 l 1
 -9 164 l 1
169 211 m 1
 499 211 l 1
 499 676 l 1
 169 211 l 1
EndSplineSet
Colour: ffffff
EndChar

StartChar: g
Encoding: 71 103 116
Width: 890
VWidth: 0
Flags: HMW
LayerCount: 2
Fore
SplineSet
24 -162 m 0
 24 -78 135 -10 184 18 c 1
 184 27 l 1
 122 57 88 107 88 164 c 0
 88 218 181 298 255 328 c 1
 255 335 l 1
 205 348 92 454 92 589 c 0
 92 754 258 896 426 896 c 0
 518 896 586 869 636 833 c 1
 651 833 851 849 851 849 c 1
 871 826 l 1
 832 715 l 1
 816 715 l 1
 693 755 l 1
 693 738 l 1
 706 710 727 649 727 599 c 0
 727 415 540 301 389 301 c 0
 349 301 310 308 299 311 c 1
 276 287 249 254 249 223 c 0
 249 183 276 151 432 151 c 2
 568 151 l 2
 716 151 845 99 845 -50 c 0
 845 -224 614 -386 386 -386 c 0
 202 -386 24 -334 24 -162 c 0
200 -108 m 0
 200 -242 311 -279 440 -279 c 0
 571 -279 676 -232 676 -100 c 0
 676 -11 607 3 426 3 c 2
 252 3 l 1
 252 3 200 -16 200 -108 c 0
252 608 m 0
 252 470 344 380 417 380 c 0
 506 380 564 439 564 580 c 0
 564 688 507 823 402 823 c 0
 300 823 252 739 252 608 c 0
EndSplineSet
Substitution2: "'smcp' Lowercase to Small Capitals in Latin lookup 0 subtable" g.sc
Colour: ffffff
EndChar

StartChar: germandbls
Encoding: 158 223 117
Width: 1116
VWidth: 0
Flags: HMW
LayerCount: 2
Back
SplineSet
489 141 m 0
 489 208 538 265 621 271 c 1
 664 130 734 64 810 64 c 0
 880 64 942 91 942 165 c 0
 942 324 513 360 513 635 c 0
 513 751 609 900 811 900 c 0
 942 900 1056 845 1056 734 c 0
 1056 651 1003 595 916 589 c 1
 909 632 l 2
 881 780 819 816 760 816 c 0
 690 816 648 760 648 696 c 0
 648 509 1087 487 1087 220 c 0
 1087 72 933 -34 779 -34 c 0
 601 -34 489 51 489 141 c 0
EndSplineSet
Fore
SplineSet
34 0 m 5
 46 73 l 5
 198 116 l 5
 198 784 l 5
 53 784 l 5
 62 849 l 5
 200 872 l 5
 227 1147 419 1305 622 1305 c 4
 800 1305 896 1199 896 1072 c 4
 896 891 652 811 652 663 c 4
 652 495 1086 467 1086 213 c 4
 1086 71 929 -31 771 -31 c 4
 592 -31 478 52 478 142 c 4
 478 228 536 271 609 275 c 5
 640 144 725 67 802 67 c 4
 876 67 941 82 941 157 c 4
 941 295 523 331 523 595 c 4
 523 775 732 855 732 1023 c 4
 732 1116 643 1198 539 1198 c 4
 436 1198 365 1147 365 959 c 6
 365 0 l 5
 34 0 l 5
EndSplineSet
Substitution2: "'smcp' Lowercase to Small Capitals in Latin lookup 0 subtable" germandbls.sc
Colour: ffffff
EndChar

StartChar: grave
Encoding: 64 96 118
Width: 535
VWidth: 0
Flags: HMW
LayerCount: 2
Fore
SplineSet
122 1659 m 1
 237 1697 l 1
 369 1364 l 1
 313 1329 l 1
 122 1659 l 1
EndSplineSet
Colour: ffffff
EndChar

StartChar: greater
Encoding: 30 62 119
Width: 727
VWidth: 0
Flags: HMW
LayerCount: 2
Back
SplineSet
718 428 m 1
 83 -83 l 1
 31 -13 l 1
 487 454 l 1
 195 902 l 1
 263 973 l 1
 722 456 l 1
 718 428 l 1
EndSplineSet
Fore
SplineSet
59 -13 m 1
 519 434 l 1
 79 900 l 1
 135 973 l 1
 755 472 l 1
 756 415 l 1
 122 -83 l 1
 59 -13 l 1
EndSplineSet
Colour: ffffff
EndChar

StartChar: guillemotleft
Encoding: 106 171 120
Width: 643
VWidth: 0
Flags: HMW
LayerCount: 2
Back
SplineSet
401 469 m 1
 725 821 l 1
 760 761 l 1
 547 461 l 1
 664 140 l 1
 601 78 l 1
 400 449 l 1
 401 469 l 1
154 469 m 1
 477 821 l 1
 512 761 l 1
 299 461 l 1
 416 140 l 1
 353 78 l 1
 152 449 l 1
 154 469 l 1
EndSplineSet
Fore
SplineSet
23 469 m 1
 292 820 l 1
 335 761 l 1
 171 461 l 1
 338 141 l 1
 286 77 l 1
 24 449 l 1
 23 469 l 1
270 469 m 1
 538 820 l 1
 583 761 l 1
 418 461 l 1
 586 141 l 1
 534 77 l 1
 271 449 l 1
 270 469 l 1
EndSplineSet
Colour: ffffff
EndChar

StartChar: guillemotright
Encoding: 122 187 121
Width: 645
VWidth: 0
Flags: HMW
LayerCount: 2
Fore
SplineSet
61 141 m 1
 228 461 l 1
 64 761 l 1
 108 820 l 1
 376 469 l 1
 374 449 l 1
 113 77 l 1
 61 141 l 1
308 141 m 1
 476 461 l 1
 311 761 l 1
 355 820 l 1
 623 469 l 1
 621 449 l 1
 360 77 l 1
 308 141 l 1
EndSplineSet
Colour: ffffff
EndChar

StartChar: guilsinglleft
Encoding: 232 8249 122
Width: 396
VWidth: 0
Flags: HMW
LayerCount: 2
Fore
SplineSet
23 469 m 1
 292 820 l 1
 335 761 l 1
 171 461 l 1
 338 141 l 1
 286 77 l 1
 24 449 l 5
 23 469 l 1
EndSplineSet
Colour: ffffff
EndChar

StartChar: guilsinglright
Encoding: 233 8250 123
Width: 397
VWidth: 0
Flags: HMW
LayerCount: 2
Fore
SplineSet
61 141 m 1
 228 461 l 1
 64 761 l 1
 108 820 l 1
 376 469 l 1
 374 449 l 1
 113 77 l 1
 61 141 l 1
EndSplineSet
Colour: ffffff
EndChar

StartChar: h
Encoding: 72 104 124
Width: 1029
VWidth: 0
Flags: HMW
LayerCount: 2
Fore
SplineSet
10 0 m 1
 21 79 l 1
 175 116 l 1
 175 1147 l 1
 15 1201 l 1
 27 1277 l 1
 316 1299 l 1
 341 1275 l 1
 341 850 l 1
 325 744 l 1
 335 744 l 1
 418 836 516 900 629 900 c 0
 767 900 872 842 872 599 c 2
 872 114 l 1
 1017 79 l 1
 1005 0 l 1
 556 0 l 1
 568 74 l 1
 706 114 l 1
 706 580 l 2
 706 722 613 764 534 764 c 0
 477 764 411 748 341 675 c 1
 341 116 l 1
 487 80 l 1
 475 0 l 1
 10 0 l 1
EndSplineSet
Substitution2: "'smcp' Lowercase to Small Capitals in Latin lookup 0 subtable" h.sc
Colour: ffffff
EndChar

StartChar: hyphen
Encoding: 13 45 125
Width: 581
VWidth: 0
Flags: HMW
LayerCount: 2
Back
SplineSet
170 499 m 1xa0
 580 517 l 1
 553 416 l 1x60
 142 398 l 1
 170 499 l 1xa0
EndSplineSet
Fore
SplineSet
81 398 m 1
 92 498 l 1
 500 517 l 1
 489 415 l 1
 81 398 l 1
EndSplineSet
Colour: ffffff
EndChar

StartChar: i
Encoding: 73 105 126
Width: 539
VWidth: 0
Flags: HMW
LayerCount: 2
Fore
SplineSet
37 0 m 5
 49 79 l 5
 200 116 l 5
 200 731 l 5
 49 786 l 5
 62 862 l 5
 343 885 l 5
 368 860 l 5
 368 116 l 5
 528 80 l 5
 517 0 l 5
 37 0 l 5
156 1194 m 0
 156 1258 213 1306 275 1306 c 0
 341 1306 397 1256 397 1192 c 0
 397 1125 341 1070 275 1070 c 0
 209 1070 156 1127 156 1194 c 0
EndSplineSet
Substitution2: "'smcp' Lowercase to Small Capitals in Latin lookup 0 subtable" i.sc
Colour: ffffff
EndChar

StartChar: iacute
Encoding: 172 237 127
Width: 539
VWidth: 0
Flags: HMW
LayerCount: 2
Fore
SplineSet
37 0 m 1
 49 79 l 1
 200 116 l 1
 200 731 l 1
 49 786 l 1
 62 862 l 1
 343 885 l 1
 368 860 l 1
 368 116 l 1
 528 80 l 1
 517 0 l 1
 37 0 l 1
213 991 m 5
 334 1317 l 5
 447 1277 l 5
 263 960 l 5
 213 991 l 5
EndSplineSet
Substitution2: "'smcp' Lowercase to Small Capitals in Latin lookup 0 subtable" iacute.sc
Colour: ffffff
EndChar

StartChar: icircumflex
Encoding: 173 238 128
Width: 539
VWidth: 0
Flags: HMW
LayerCount: 2
Fore
SplineSet
37 0 m 1
 49 79 l 1
 200 116 l 1
 200 731 l 1
 49 786 l 1
 62 862 l 1
 343 885 l 1
 368 860 l 1
 368 116 l 1
 528 80 l 1
 517 0 l 1
 37 0 l 1
76 1048 m 1
 243 1228 l 1
 298 1241 l 1
 476 1057 l 1
 427 1019 l 1
 263 1130 l 1
 253 1130 l 1
 113 1019 l 1
 76 1048 l 1
EndSplineSet
Substitution2: "'smcp' Lowercase to Small Capitals in Latin lookup 0 subtable" icircumflex.sc
Colour: ffffff
EndChar

StartChar: idieresis
Encoding: 174 239 129
Width: 539
VWidth: 0
Flags: HMW
LayerCount: 2
Fore
SplineSet
37 0 m 1
 49 79 l 1
 200 116 l 1
 200 731 l 1
 49 786 l 1
 62 862 l 1
 343 885 l 1
 368 860 l 1
 368 116 l 1
 528 80 l 1
 517 0 l 1
 37 0 l 1
54 1109 m 0
 54 1156 98 1186 138 1186 c 0
 182 1186 223 1155 223 1109 c 0
 223 1060 182 1028 138 1028 c 0
 95 1028 54 1060 54 1109 c 0
321 1109 m 0
 321 1156 366 1186 406 1186 c 0
 450 1186 494 1155 494 1109 c 0
 494 1060 450 1028 406 1028 c 0
 363 1028 321 1060 321 1109 c 0
EndSplineSet
Substitution2: "'smcp' Lowercase to Small Capitals in Latin lookup 0 subtable" idieresis.sc
Colour: ffffff
EndChar

StartChar: igrave
Encoding: 171 236 130
Width: 539
VWidth: 0
Flags: HMW
LayerCount: 2
Fore
SplineSet
25 0 m 1
 37 79 l 1
 188 116 l 1
 188 731 l 1
 37 786 l 1
 50 862 l 1
 331 885 l 1
 356 860 l 1
 356 116 l 1
 516 80 l 1
 505 0 l 1
 25 0 l 1
EndSplineSet
Refer: 118 96 S 1 0 0 1 -75 -368 2
Substitution2: "'smcp' Lowercase to Small Capitals in Latin lookup 0 subtable" igrave.sc
Colour: ffffff
EndChar

StartChar: j
Encoding: 74 106 131
Width: 463
VWidth: 0
Flags: HMW
LayerCount: 2
Fore
SplineSet
-34 -295 m 1
 74 -215 187 -98 187 172 c 2
 187 731 l 1
 37 786 l 1
 52 866 l 1
 331 887 l 1
 356 862 l 1
 356 151 l 2
 356 -131 212 -274 61 -359 c 2
 15 -383 l 1
 -34 -295 l 1
139 1189 m 0
 139 1256 196 1308 263 1308 c 0
 329 1308 384 1254 384 1188 c 0
 384 1121 329 1063 262 1063 c 0
 195 1063 139 1122 139 1189 c 0
EndSplineSet
Substitution2: "'smcp' Lowercase to Small Capitals in Latin lookup 0 subtable" j.sc
Colour: ffffff
EndChar

StartChar: k
Encoding: 75 107 132
Width: 972
VWidth: 0
Flags: HMW
LayerCount: 2
Fore
SplineSet
10 0 m 1
 21 79 l 1
 174 116 l 1
 174 1138 l 1
 16 1191 l 1
 28 1267 l 1
 316 1290 l 1
 341 1265 l 1
 341 116 l 1
 500 80 l 1
 488 0 l 1
 10 0 l 1
365 432 m 1
 365 452 l 1
 624 777 l 1
 491 817 l 1
 501 893 l 1
 927 893 l 1
 913 819 l 1
 764 777 l 1
 527 487 l 1
 606 386 l 2
 753 199 805 99 931 83 c 2
 971 77 l 1
 960 0 l 1
 945 -4 885 -19 841 -19 c 0
 709 -19 634 66 470 287 c 1
 365 432 l 1
EndSplineSet
Substitution2: "'smcp' Lowercase to Small Capitals in Latin lookup 0 subtable" k.sc
Colour: ffffff
EndChar

StartChar: l
Encoding: 76 108 133
Width: 510
VWidth: 0
Flags: HMW
LayerCount: 2
Fore
SplineSet
10 0 m 1
 21 79 l 1
 174 116 l 1
 174 1147 l 1
 16 1201 l 1
 28 1277 l 1
 316 1299 l 1
 341 1275 l 1
 341 116 l 1
 500 80 l 1
 488 0 l 1
 10 0 l 1
EndSplineSet
Substitution2: "'smcp' Lowercase to Small Capitals in Latin lookup 0 subtable" l.sc
Colour: ffffff
EndChar

StartChar: logicalnot
Encoding: 107 172 135
Width: 910
VWidth: 0
Flags: HMW
LayerCount: 2
Back
SplineSet
200 664 m 1
 945 664 l 1
 897 350 l 1
 788 332 l 1
 824 558 l 1
 172 558 l 1
 200 664 l 1
EndSplineSet
Fore
SplineSet
74 559 m 1
 86 663 l 1
 830 663 l 1
 832 351 l 1
 726 332 l 1
 726 559 l 1
 74 559 l 1
EndSplineSet
Colour: ffffff
EndChar

StartChar: m
Encoding: 77 109 136
Width: 1584
VWidth: 0
Flags: HMW
LayerCount: 2
Fore
SplineSet
43 0 m 1
 53 74 l 1
 203 114 l 1
 203 719 l 1
 43 770 l 1
 53 845 l 1
 357 887 l 1
 375 866 l 1
 357 740 l 1
 366 740 l 1
 430 819 540 896 666 896 c 0
 756 896 856 853 887 731 c 1
 899 731 l 1
 963 814 1068 888 1194 888 c 0
 1361 888 1430 783 1430 609 c 2
 1430 115 l 1
 1568 79 l 1
 1555 0 l 1
 1130 0 l 1
 1137 73 l 1
 1262 113 l 1
 1262 585 l 2
 1262 681 1202 760 1094 760 c 0
 1005 760 949 709 903 660 c 1
 903 114 l 1
 1051 79 l 1
 1041 0 l 1
 598 0 l 1
 609 74 l 1
 740 114 l 1
 740 585 l 2
 740 690 665 760 569 760 c 0
 495 760 422 730 372 673 c 1
 372 114 l 1
 515 79 l 1
 504 0 l 1
 43 0 l 1
EndSplineSet
Substitution2: "'smcp' Lowercase to Small Capitals in Latin lookup 0 subtable" m.sc
Colour: ffffff
EndChar

StartChar: macron
Encoding: 110 175 137
Width: 637
VWidth: 0
Flags: HMW
LayerCount: 2
Fore
SplineSet
92 1379 m 1
 105 1479 l 1
 547 1479 l 1
 534 1379 l 1
 92 1379 l 1
EndSplineSet
Colour: ffffff
EndChar

StartChar: multiply
Encoding: 150 215 138
Width: 604
VWidth: 0
Flags: HMW
LayerCount: 2
Fore
SplineSet
67 310 m 1
 223 462 l 1
 67 619 l 1
 151 685 l 1
 304 532 l 1
 469 692 l 1
 534 608 l 1
 378 458 l 1
 537 297 l 1
 454 231 l 1
 298 388 l 1
 134 228 l 1
 67 310 l 1
EndSplineSet
Colour: ffffff
EndChar

StartChar: n
Encoding: 78 110 139
Width: 1060
VWidth: 0
Flags: HMW
LayerCount: 2
Fore
SplineSet
37 0 m 1
 47 73 l 1
 198 114 l 1
 198 721 l 1
 44 773 l 1
 54 849 l 1
 352 888 l 1
 369 869 l 1
 352 741 l 1
 362 741 l 1
 429 821 537 899 663 899 c 0
 820 899 904 794 904 616 c 2
 904 114 l 1
 1048 79 l 1
 1038 0 l 1
 589 0 l 1
 599 73 l 1
 737 114 l 1
 737 577 l 2
 737 706 662 761 563 761 c 0
 490 761 416 731 366 675 c 1
 366 114 l 1
 515 79 l 1
 501 0 l 1
 37 0 l 1
EndSplineSet
Substitution2: "'smcp' Lowercase to Small Capitals in Latin lookup 0 subtable" n.sc
Colour: ffffff
EndChar

StartChar: nine
Encoding: 25 57 141
Width: 982
VWidth: 1651
Flags: HMW
LayerCount: 2
Back
SplineSet
745 562 m 1
 730 545 713 530 692 517 c 0
 671 504 649 492 626 484 c 0
 603 476 580 467 555 462 c 0
 530 457 508 456 487 456 c 0
 444 456 406 464 373 479 c 0
 340 494 312 512 289 538 c 0
 266 564 250 596 238 631 c 0
 226 666 220 702 220 740 c 0
 220 801 235 859 261 912 c 0
 287 965 322 1010 365 1050 c 0
 408 1090 456 1123 509 1146 c 0
 562 1169 611 1182 662 1182 c 0
 718 1182 766 1173 806 1153 c 0
 846 1133 878 1106 903 1073 c 0
 928 1040 948 1003 960 958 c 0
 972 913 978 867 978 819 c 0
 978 718 960 621 925 527 c 0
 890 433 842 348 779 272 c 0
 716 196 643 132 555 79 c 0
 467 26 370 -8 266 -26 c 1
 253 46 l 1
 336 71 406 99 464 134 c 0
 522 169 571 208 611 251 c 0
 651 294 684 340 707 393 c 0
 730 446 748 503 761 562 c 1
 745 562 l 1
644 1103 m 0
 599 1103 561 1095 528 1078 c 0
 495 1061 470 1039 449 1011 c 0
 428 983 413 950 403 912 c 0
 393 874 388 833 388 788 c 0
 388 758 392 730 400 704 c 0
 408 678 419 652 434 631 c 0
 449 610 469 594 492 581 c 0
 515 568 542 562 573 562 c 0
 590 562 608 563 628 568 c 0
 648 573 667 578 685 585 c 0
 703 592 722 601 737 611 c 0
 752 621 765 634 775 647 c 1
 783 668 789 693 796 723 c 0
 803 753 806 791 806 837 c 0
 806 872 802 905 794 938 c 0
 786 971 776 997 761 1022 c 0
 746 1047 730 1065 710 1080 c 0
 690 1095 669 1103 644 1103 c 0
EndSplineSet
Fore
SplineSet
104 802 m 0
 104 1046 305 1211 496 1211 c 0
 759 1211 878 998 878 764 c 0
 878 365 638 39 262 -27 c 1
 240 47 l 1
 568 144 643 331 662 575 c 1
 648 575 l 1
 582 502 496 466 404 466 c 0
 213 466 104 585 104 802 c 0
304 845 m 0
 304 710 352 575 494 575 c 0
 564 575 633 612 664 662 c 1
 672 708 674 766 674 806 c 0
 674 970 606 1130 490 1130 c 0
 342 1130 304 1023 304 845 c 0
EndSplineSet
Substitution2: "'onum' Oldstyle Figures lookup 1-1" nine.osf
Colour: ffffff
EndChar

StartChar: nine.osf
Encoding: 239 -1 142
Width: 778
VWidth: 0
Flags: HMW
LayerCount: 2
Fore
SplineSet
25 581 m 0
 25 800 199 972 390 972 c 0
 653 972 744 755 744 521 c 0
 744 186 479 -177 148 -282 c 1
 125 -208 l 1
 417 -84 504 140 544 338 c 1
 532 338 l 1
 483 271 401 230 314 230 c 0
 120 230 25 356 25 581 c 0
208 607 m 0
 208 424 262 338 387 338 c 0
 457 338 519 374 550 424 c 1
 558 470 557 525 557 565 c 0
 557 729 491 891 375 891 c 0
 275 891 208 813 208 607 c 0
EndSplineSet
Colour: ffffff
EndChar

StartChar: ntilde
Encoding: 176 241 143
Width: 2048
VWidth: 0
Flags: HM
LayerCount: 2
Fore
SplineSet
37 0 m 1
 47 73 l 1
 198 114 l 1
 198 721 l 1
 44 773 l 1
 54 849 l 1
 352 888 l 1
 369 869 l 1
 352 741 l 1
 362 741 l 1
 429 821 537 899 663 899 c 0
 820 899 904 794 904 616 c 2
 904 114 l 1
 1048 79 l 1
 1038 0 l 1
 589 0 l 1
 599 73 l 1
 737 114 l 1
 737 577 l 2
 737 706 662 761 563 761 c 0
 490 761 416 731 366 675 c 1
 366 114 l 1
 515 79 l 1
 501 0 l 1
 37 0 l 1
302 1015 m 1
 302 1015 335 1158 424 1158 c 0
 428 1158 434 1158 438 1157 c 2
 660 1127 l 1
 664 1127 l 2
 689 1127 721 1169 721 1169 c 1
 768 1167 l 1
 768 1167 730 1023 638 1023 c 0
 634 1023 630 1023 626 1024 c 2
 402 1054 l 1
 400 1054 l 2
 372 1054 341 1007 341 1007 c 1
 302 1015 l 1
EndSplineSet
Substitution2: "'smcp' Lowercase to Small Capitals in Latin lookup 0 subtable" ntilde.sc
Colour: ffffff
EndChar

StartChar: numbersign
Encoding: 3 35 144
Width: 913
VWidth: 0
Flags: HMW
LayerCount: 2
Fore
SplineSet
182 -26 m 13
 359 1149 l 21
 465 1159 l 13
 289 -19 l 21
 182 -26 l 13
49 711 m 21
 83 836 l 13
 992 836 l 21
 961 711 l 13
 49 711 l 21
-22 326 m 5
 11 451 l 13
 917 451 l 21
 886 326 l 5
 -22 326 l 5
497 -26 m 13
 673 1149 l 21
 781 1158 l 13
 604 -19 l 21
 497 -26 l 13
EndSplineSet
Substitution2: "'onum' Oldstyle Figures lookup 1-1" numbersign.osf
Colour: ffffff
EndChar

StartChar: o
Encoding: 79 111 145
Width: 934
VWidth: 0
Flags: HMW
LayerCount: 2
Fore
SplineSet
52 426 m 0
 52 730 264 903 487 903 c 0
 733 903 882 716 882 441 c 0
 882 162 696 -27 463 -27 c 0
 199 -27 52 169 52 426 c 0
230 497 m 0
 230 291 300 70 497 70 c 0
 638 70 704 218 704 359 c 0
 704 557 635 798 445 798 c 0
 294 798 230 654 230 497 c 0
EndSplineSet
Substitution2: "'smcp' Lowercase to Small Capitals in Latin lookup 0 subtable" o.sc
Colour: ffffff
EndChar

StartChar: oacute
Encoding: 178 243 146
Width: 934
VWidth: 0
Flags: HMW
LayerCount: 2
Fore
SplineSet
52 426 m 0
 52 730 264 903 487 903 c 0
 733 903 882 716 882 441 c 0
 882 162 696 -27 463 -27 c 0
 199 -27 52 169 52 426 c 0
230 497 m 0
 230 291 300 70 497 70 c 0
 638 70 704 218 704 359 c 0
 704 557 635 798 445 798 c 0
 294 798 230 654 230 497 c 0
389 1017 m 1
 512 1342 l 1
 623 1302 l 1
 440 985 l 1
 389 1017 l 1
EndSplineSet
Substitution2: "'smcp' Lowercase to Small Capitals in Latin lookup 0 subtable" oacute.sc
Colour: ffffff
EndChar

StartChar: ocircumflex
Encoding: 179 244 147
Width: 934
VWidth: 0
Flags: HMW
LayerCount: 2
Fore
SplineSet
52 426 m 0
 52 730 264 903 487 903 c 0
 733 903 882 716 882 441 c 0
 882 162 696 -27 463 -27 c 0
 199 -27 52 169 52 426 c 0
230 497 m 0
 230 291 300 70 497 70 c 0
 638 70 704 218 704 359 c 0
 704 557 635 798 445 798 c 0
 294 798 230 654 230 497 c 0
271 1024 m 1
 440 1203 l 1
 495 1217 l 1
 673 1032 l 1
 623 995 l 1
 460 1104 l 1
 449 1104 l 1
 310 993 l 1
 271 1024 l 1
EndSplineSet
Substitution2: "'smcp' Lowercase to Small Capitals in Latin lookup 0 subtable" ocircumflex.sc
Colour: ffffff
EndChar

StartChar: odieresis
Encoding: 181 246 148
Width: 934
VWidth: 0
Flags: HMW
LayerCount: 2
Fore
SplineSet
52 426 m 0
 52 730 264 903 487 903 c 0
 733 903 882 716 882 441 c 0
 882 162 696 -27 463 -27 c 0
 199 -27 52 169 52 426 c 0
230 497 m 0
 230 291 300 70 497 70 c 0
 638 70 704 218 704 359 c 0
 704 557 635 798 445 798 c 0
 294 798 230 654 230 497 c 0
251 1084 m 0
 251 1131 294 1163 334 1163 c 0
 378 1163 420 1130 420 1084 c 0
 420 1035 378 1004 334 1004 c 0
 291 1004 251 1035 251 1084 c 0
518 1084 m 0
 518 1131 562 1163 602 1163 c 0
 646 1163 690 1130 690 1084 c 0
 690 1035 646 1004 602 1004 c 0
 559 1004 518 1035 518 1084 c 0
EndSplineSet
Substitution2: "'smcp' Lowercase to Small Capitals in Latin lookup 0 subtable" odieresis.sc
Colour: ffffff
EndChar

StartChar: ograve
Encoding: 177 242 149
Width: 934
VWidth: 0
Flags: HMW
LayerCount: 2
Fore
SplineSet
52 426 m 0
 52 730 264 903 487 903 c 0
 733 903 882 716 882 441 c 0
 882 162 696 -27 463 -27 c 0
 199 -27 52 169 52 426 c 0
230 497 m 0
 230 291 300 70 497 70 c 0
 638 70 704 218 704 359 c 0
 704 557 635 798 445 798 c 0
 294 798 230 654 230 497 c 0
314 1296 m 1
 430 1334 l 1
 562 1000 l 1
 504 965 l 1
 314 1296 l 1
EndSplineSet
Substitution2: "'smcp' Lowercase to Small Capitals in Latin lookup 0 subtable" ograve.sc
Colour: ffffff
EndChar

StartChar: one
Encoding: 17 49 150
Width: 982
VWidth: 1651
Flags: HMW
LayerCount: 2
Back
SplineSet
599 111 m 1
 860 81 l 1
 841 0 l 5
 130 0 l 1
 149 73 l 1
 431 117 l 1
 557 1006 l 1
 292 1006 l 1
 309 1082 l 1
 720 1156 l 1
 746 1156 l 1
 599 111 l 1
EndSplineSet
Fore
SplineSet
122 0 m 5
 130 74 l 5
 394 121 l 5
 394 1031 l 5
 144 1031 l 5
 150 1108 l 5
 570 1185 l 5
 598 1185 l 5
 598 114 l 5
 860 83 l 5
 850 0 l 5
 122 0 l 5
EndSplineSet
Substitution2: "'onum' Oldstyle Figures lookup 1-1" one.osf
Colour: ffffff
EndChar

StartChar: one.osf
Encoding: 240 -1 151
Width: 588
VWidth: 0
Flags: HMW
LayerCount: 2
Fore
SplineSet
35 0 m 1
 44 74 l 1
 228 121 l 1
 228 802 l 1
 55 805 l 1
 64 882 l 1
 368 956 l 1
 396 956 l 1
 396 114 l 1
 585 80 l 1
 575 0 l 1
 35 0 l 1
EndSplineSet
Colour: ffffff
EndChar

StartChar: onehalf
Encoding: 124 189 152
Width: 1736
VWidth: 0
Flags: HMW
LayerCount: 2
Fore
SplineSet
792 109 m 1
 947 232 l 2
 1051 317 1130 401 1130 476 c 0
 1130 548 1115 624 1021 624 c 0
 972 624 932 598 917 566 c 1
 895 437 l 1
 827 442 l 1
 812 612 l 1
 853 689 984 728 1085 728 c 0
 1238 728 1326 660 1326 542 c 0
 1326 389 1178 274 1015 167 c 2
 948 123 l 1
 1218 123 l 1
 1297 276 l 1
 1354 255 l 1
 1335 2 l 5
 784 2 l 1
 792 109 l 1
-52 531 m 1
 -48 605 l 1
 105 630 l 1
 105 1122 l 1
 -40 1122 l 1
 -36 1199 l 1
 266 1245 l 1
 285 1245 l 1
 285 627 l 1
 437 614 l 1
 431 531 l 1
 -52 531 l 1
139 -10 m 1
 546 588 l 1
 937 1210 l 1
 1113 1207 l 1
 1111 1178 l 1
 710 591 l 1
 339 -32 l 1
 139 -10 l 1
EndSplineSet
Colour: ffffff
EndChar

StartChar: onequarter
Encoding: 123 188 153
Width: 1736
VWidth: 0
Flags: HMW
LayerCount: 2
Fore
SplineSet
693 270 m 1
 1103 737 l 1
 1160 726 l 1
 1155 655 1151 539 1151 430 c 2
 1151 272 l 1
 1299 272 l 1
 1290 175 l 1
 1151 175 l 1
 1151 83 l 1
 1272 65 l 1
 1266 0 l 1
 852 0 l 1
 856 58 l 1
 993 85 l 1
 993 178 l 1
 706 178 l 1
 693 270 l 1
800 272 m 1
 990 272 l 1
 990 508 l 1
 800 272 l 1
-52 531 m 1
 -48 605 l 1
 105 630 l 1
 105 1122 l 1
 -40 1122 l 1
 -36 1199 l 1
 266 1245 l 1
 285 1245 l 1
 285 627 l 1
 437 614 l 1
 431 531 l 1
 -52 531 l 1
159 -10 m 1
 566 588 l 1
 957 1210 l 1
 1113 1207 l 1
 1111 1178 l 1
 710 591 l 1
 339 -32 l 1
 159 -10 l 1
EndSplineSet
Colour: ffffff
EndChar

StartChar: one.superior
Encoding: 120 185 154
Width: 512
VWidth: 0
Flags: HMW
LayerCount: 2
Fore
SplineSet
23 531 m 5
 27 605 l 5
 180 630 l 5
 180 1122 l 5
 35 1122 l 5
 39 1199 l 5
 341 1245 l 5
 360 1245 l 5
 360 627 l 5
 512 614 l 5
 506 531 l 5
 23 531 l 5
EndSplineSet
Colour: ffffff
EndChar

StartChar: ordfeminine
Encoding: 105 170 155
Width: 830
VWidth: 0
Flags: HMW
LayerCount: 2
Back
SplineSet
128.2 378.4 m 0xba
 128.2 496 236.2 613.6 497 632 c 1
 497 676 l 2
 497 784 465.8 889.6 355.4 889.6 c 0
 278.6 889.6 277.8 848.8 266.6 717.6 c 1
 224.2 717.6 155.4 720.8 155.4 800 c 0
 155.4 887.2 318.6 964 429 964 c 0
 571.4 964 626.6 887.2 626.6 718.4 c 2
 626.6 428 l 2
 626.6 354.4 641.8 332.8 716.2 320.8 c 2
 756.2 313.6 l 1
 745.8 244.8 l 1x76
 708.2 240 684.2 229.6 637 229.6 c 0
 544.2 229.6 513 289.6 513 336.8 c 2
 513 348.8 l 1
 504.2 348.8 l 1
 482.6 306.4 416.2 224.8 285 224.8 c 0
 201 224.8 128.2 280.8 128.2 378.4 c 0xba
268.2 416 m 0xba
 268.2 376 298.6 323.2 357.8 323.2 c 0
 413.8 323.2 470.6 364.8 497 394.4 c 1
 497 586.4 l 1
 322.6 552 268.2 492.8 268.2 416 c 0xba
EndSplineSet
Fore
SplineSet
125 668 m 0
 125 786 212 932 496 932 c 1
 496 966 l 2
 496 1074 488 1170 386 1170 c 0
 316 1170 304 1114 292 978 c 1
 212 970 154 1014 154 1100 c 0
 154 1187 327 1254 444 1254 c 0
 595 1254 654 1177 654 1008 c 2
 654 748 l 2
 654 674 674 648 749 635 c 2
 792 628 l 1
 781 566 l 1
 740 529 715 520 665 520 c 0
 566 520 514 580 514 627 c 2
 514 639 l 1
 504 639 l 1
 481 597 430 515 291 515 c 0
 202 515 125 570 125 668 c 0
293 716 m 0
 293 676 316 627 379 627 c 0
 439 627 468 664 496 694 c 1
 496 873 l 1
 344 846 293 793 293 716 c 0
EndSplineSet
Colour: ffffff
EndChar

StartChar: ordmasculine
Encoding: 121 186 156
Width: 934
VWidth: 0
Flags: HMW
LayerCount: 2
Fore
SplineSet
114 876 m 4
 114 1119 294 1258 484 1258 c 4
 693 1258 820 1108 820 888 c 4
 820 665 662 514 464 514 c 4
 240 514 114 670 114 876 c 4
286 933 m 4
 286 768 325 592 492 592 c 4
 612 592 648 710 648 823 c 4
 648 981 610 1174 448 1174 c 4
 320 1174 286 1059 286 933 c 4
EndSplineSet
Colour: ffffff
EndChar

StartChar: oslash
Encoding: 183 248 157
Width: 933
VWidth: 0
Flags: HMW
LayerCount: 2
Fore
SplineSet
24 -46 m 1
 180 141 l 1
 224 157 l 1
 650 727 l 1
 648 765 l 1
 749 897 l 1
 904 904 l 1
 753 705 l 1
 694 670 l 1
 270 109 l 1
 279 78 l 1
 187 -41 l 1
 24 -46 l 1
220 497 m 0
 220 291 290 70 487 70 c 0
 628 70 693 218 693 359 c 0
 693 557 624 798 434 798 c 0
 283 798 220 654 220 497 c 0
40 426 m 0
 40 730 254 903 477 903 c 0
 723 903 872 716 872 441 c 0
 872 162 685 -27 452 -27 c 0
 188 -27 40 169 40 426 c 0
EndSplineSet
Substitution2: "'smcp' Lowercase to Small Capitals in Latin lookup 0 subtable" oslash.sc
Colour: ffffff
EndChar

StartChar: otilde
Encoding: 180 245 158
Width: 934
VWidth: 0
Flags: HMW
LayerCount: 2
Fore
SplineSet
52 426 m 0
 52 730 264 903 487 903 c 0
 733 903 882 716 882 441 c 0
 882 162 696 -27 463 -27 c 0
 199 -27 52 169 52 426 c 0
230 497 m 0
 230 291 300 70 497 70 c 0
 638 70 704 218 704 359 c 0
 704 557 635 798 445 798 c 0
 294 798 230 654 230 497 c 0
236 1015 m 1
 236 1015 268 1158 357 1158 c 0
 361 1158 367 1158 371 1157 c 2
 594 1127 l 1
 598 1127 l 2
 623 1127 653 1169 653 1169 c 1
 701 1167 l 1
 701 1167 664 1023 572 1023 c 0
 568 1023 563 1023 559 1024 c 2
 337 1054 l 1
 334 1054 l 2
 306 1054 274 1007 274 1007 c 1
 236 1015 l 1
EndSplineSet
Substitution2: "'smcp' Lowercase to Small Capitals in Latin lookup 0 subtable" otilde.sc
Colour: ffffff
EndChar

StartChar: p
Encoding: 80 112 159
Width: 968
VWidth: 0
Flags: HMW
LayerCount: 2
Fore
SplineSet
13 -372 m 1
 19 -294 l 1
 172 -256 l 1
 172 722 l 1
 18 768 l 1
 30 845 l 1
 321 882 l 1
 342 863 l 1
 328 734 l 1
 335 734 l 1
 385 804 480 899 611 899 c 0
 782 899 914 771 914 467 c 0
 914 182 726 -19 469 -19 c 0
 439 -19 408 -16 375 -10 c 1
 369 111 l 1
 415 93 443 89 522 89 c 0
 660 89 731 218 731 406 c 0
 731 643 668 768 540 768 c 0
 454 768 379 712 335 666 c 1
 335 -257 l 1
 491 -292 l 1
 479 -372 l 1
 13 -372 l 1
EndSplineSet
Substitution2: "'smcp' Lowercase to Small Capitals in Latin lookup 0 subtable" p.sc
Colour: ffffff
EndChar

StartChar: paragraph
Encoding: 117 182 160
Width: 1289
VWidth: 0
Flags: HMW
LayerCount: 2
Back
SplineSet
307.25 1058.08 m 0
 307.25 1356.18 593.136 1561.69 904.456 1561.69 c 2
 1133.37 1561.69 l 1
 1133.37 1.01758 l 1
 728.449 1.01758 l 5
 735.57 52.9043 l 5
 1007.21 91.5645 l 1
 1007.21 1486.4 l 1
 955.326 1489.46 926.839 1489.46 915.647 1489.46 c 0
 596.189 1489.46 473.085 1349.05 473.085 1053 c 0
 473.085 838.326 635.867 662.319 905.475 662.319 c 1
 883.092 599.24 l 1
 556.511 599.24 307.25 691.823 307.25 1058.08 c 0
1203.57 1561.69 m 1
 1559.65 1561.69 l 1
 1553.55 1514.89 l 1
 1332.78 1485.38 l 1
 1332.78 80.373 l 1
 1572.88 57.9912 l 1
 1560.67 -2.03418 l 1
 1203.57 1.01758 l 1
 1203.57 1561.69 l 1
EndSplineSet
Fore
SplineSet
44 828 m 0
 44 1065 244 1245 487 1245 c 2
 833 1245 l 1
 833 0 l 1
 427 0 l 1
 434 74 l 1
 675 121 l 1
 675 1152 l 1
 635 1153 578 1154 568 1154 c 0
 353 1154 249 1041 249 863 c 0
 249 692 344 546 562 546 c 9
 544 448 l 1
 283 448 44 536 44 828 c 0
912 0 m 1
 912 1245 l 1
 1232 1245 l 1
 1223 1168 l 1
 1053 1130 l 1
 1053 114 l 1
 1234 80 l 1
 1224 0 l 1
 912 0 l 1
EndSplineSet
Substitution2: "'c2sc' Capitals to Small Capitals in Latin lookup 3-1" paragraph.sc
Colour: ffffff
EndChar

StartChar: parenleft
Encoding: 8 40 161
Width: 477
VWidth: 0
Flags: HMW
LayerCount: 2
Back
SplineSet
401 -317 m 1
 322 -375 l 1
 279 -327 40 -69 121 446 c 0
 204 971 511 1199 585 1255 c 1
 624 1189 l 1
 520 1077 369 880 301 456 c 0
 235 40 368 -244 401 -317 c 1
EndSplineSet
Fore
SplineSet
49 445 m 0
 49 970 320 1199 386 1255 c 1
 436 1189 l 1
 350 1076 227 879 227 455 c 0
 227 40 405 -244 449 -317 c 1
 381 -375 l 1
 331 -328 49 -70 49 445 c 0
EndSplineSet
Colour: ffffff
EndChar

StartChar: parenright
Encoding: 9 41 162
Width: 477
VWidth: 0
Flags: HMW
LayerCount: 2
Back
SplineSet
-25 -317 m 1
 35 -375 l 1
 94 -327 416 -69 497 446 c 0
 580 971 345 1199 287 1255 c 1
 228 1189 l 1
 296 1077 388 880 320 456 c 0
 254 40 31 -244 -25 -317 c 1
EndSplineSet
Fore
SplineSet
44 1189 m 1
 93 1255 l 1
 159 1199 431 970 431 445 c 0
 431 -70 149 -328 99 -375 c 1
 30 -317 l 1
 74 -244 253 40 253 455 c 0
 253 879 130 1076 44 1189 c 1
EndSplineSet
Colour: ffffff
EndChar

StartChar: percent
Encoding: 5 37 163
Width: 1197
VWidth: 0
Flags: HMW
LayerCount: 2
Fore
SplineSet
29 898 m 0
 29 1067 178 1211 301 1211 c 0
 319 1211 324 1210 330 1208 c 1
 340 1142 l 17
 325 1148 314 1154 295 1154 c 0
 216 1154 194 1012 194 898 c 0
 194 781 223 649 297 649 c 0
 381 649 402 778 402 898 c 0
 402 1041 384 1137 364 1198 c 9
 921 1210 l 25
 931 1121 l 25
 491 1137 l 17
 541 1085 566 948 566 898 c 0
 566 726 414 583 297 583 c 0
 170 583 29 706 29 898 c 0
123 -10 m 1
 530 588 l 1
 921 1210 l 1
 1087 1207 l 1
 1085 1178 l 1
 684 591 l 1
 313 -32 l 1
 123 -10 l 1
647 277 m 0
 647 446 794 590 917 590 c 0
 1059 590 1181 453 1181 274 c 0
 1181 105 1037 -36 920 -36 c 0
 793 -36 647 87 647 277 c 0
812 277 m 0
 812 160 846 32 920 32 c 0
 1004 32 1021 158 1021 279 c 0
 1021 399 993 534 917 534 c 0
 832 534 812 391 812 277 c 0
EndSplineSet
Substitution2: "'onum' Oldstyle Figures lookup 1-1" percent.osf
Colour: ffffff
EndChar

StartChar: period
Encoding: 14 46 164
Width: 383
VWidth: 0
Flags: HMW
LayerCount: 2
Back
SplineSet
235 215 m 3
 298 215 335 161 335 107 c 0
 335 23 274 -33 198 -33 c 19
 145 -33 92 23 92 74 c 0
 92 153 157 215 235 215 c 3
EndSplineSet
Fore
SplineSet
73 92 m 0
 73 156 127 205 191 205 c 0
 257 205 313 154 313 90 c 0
 313 23 257 -31 191 -31 c 0
 125 -31 73 25 73 92 c 0
EndSplineSet
Colour: ffffff
EndChar

StartChar: periodcentered
Encoding: 118 183 165
Width: 406
VWidth: 0
Flags: HMW
LayerCount: 2
Back
SplineSet
390 1237 m 0
 331 1237 294 1181 286 1125 c 0
 276 1064 298 996 362 996 c 0
 416 996 452 1037 464 1110 c 0
 474 1173 453 1237 390 1237 c 0
408 1285 m 0
 504 1285 553 1217 538 1123 c 0
 523 1032 444 948 342 948 c 0
 250 948 196 1011 213 1113 c 0
 228 1205 314 1285 408 1285 c 0
EndSplineSet
Fore
SplineSet
83 504 m 0
 83 568 139 618 203 618 c 0
 269 618 325 568 325 504 c 0
 325 437 269 381 203 381 c 0
 137 381 83 437 83 504 c 0
EndSplineSet
Colour: ffffff
EndChar

StartChar: plus
Encoding: 11 43 166
Width: 648
VWidth: 0
Flags: HMW
LayerCount: 2
Back
SplineSet
477 410 m 1
 443 173 l 1
 334 185 l 1
 368 410 l 1
 147 410 l 1
 175 510 l 1
 385 510 l 1
 421 742 l 1
 527 730 l 1
 494 510 l 1
 713 510 l 1
 685 410 l 1
 477 410 l 1
EndSplineSet
Fore
SplineSet
50 409 m 1
 62 510 l 1
 271 510 l 1
 271 741 l 1
 380 729 l 1
 381 510 l 1
 601 510 l 1
 589 409 l 1
 381 409 l 1
 383 174 l 1
 271 185 l 1
 271 409 l 1
 50 409 l 1
EndSplineSet
Colour: ffffff
EndChar

StartChar: plusminus
Encoding: 112 177 167
Width: 737
VWidth: 0
Flags: HMW
LayerCount: 2
Back
SplineSet
117 117 m 5
 730 124 l 5
 697 20 l 5
 84 13 l 5
 117 117 l 5
576.938 476 m 1
 505.4 239 l 1
 398.301 251 l 1
 467.938 476 l 1
 246.938 476 l 1
 290.775 576 l 1
 500.775 576 l 1
 573.521 808 l 1
 677.62 796 l 1
 609.775 576 l 1
 828.775 576 l 1
 784.938 476 l 1
 576.938 476 l 1
EndSplineSet
Fore
SplineSet
58 13 m 1
 74 117 l 1
 686 123 l 1
 670 19 l 1
 58 13 l 1
83 475 m 1
 95 575 l 1
 304 575 l 1
 304 807 l 1
 412 795 l 1
 414 575 l 1
 633 575 l 1
 621 475 l 1
 414 475 l 1
 415 240 l 1
 304 251 l 1
 304 475 l 1
 83 475 l 1
EndSplineSet
Colour: ffffff
EndChar

StartChar: q
Encoding: 81 113 168
Width: 955
VWidth: 0
Flags: HMW
LayerCount: 2
Fore
SplineSet
54 412 m 0
 54 683 284 900 494 900 c 0
 560 900 637 869 667 853 c 1
 784 892 l 1
 813 890 l 1
 813 -251 l 1
 973 -285 l 1
 962 -366 l 1
 486 -366 l 1
 496 -287 l 1
 647 -251 l 1
 647 663 l 1
 613 724 545 801 445 801 c 0
 323 801 228 677 228 474 c 0
 228 237 320 104 446 104 c 0
 476 104 569 118 618 148 c 1
 621 73 l 1
 559 14 451 -21 381 -21 c 0
 204 -21 54 115 54 412 c 0
EndSplineSet
Substitution2: "'smcp' Lowercase to Small Capitals in Latin lookup 0 subtable" q.sc
Colour: ffffff
EndChar

StartChar: question
Encoding: 31 63 169
Width: 642
VWidth: 0
Flags: HMW
LayerCount: 2
Fore
SplineSet
47 1152 m 0
 47 1205 86 1287 243 1287 c 0
 398 1287 587 1114 587 860 c 0
 587 623 299 656 299 508 c 0
 299 468 306 432 321 383 c 1
 246 366 l 1
 219 406 169 505 169 585 c 0
 169 809 476 734 476 939 c 0
 476 1031 372 1113 313 1113 c 0
 237 1113 164 1087 121 1041 c 1
 88 1054 47 1098 47 1152 c 0
159 92 m 0
 159 159 216 210 282 210 c 0
 349 210 406 157 406 90 c 0
 406 20 352 -36 282 -36 c 0
 212 -36 159 22 159 92 c 0
EndSplineSet
Colour: ffffff
EndChar

StartChar: questiondown
Encoding: 126 191 170
Width: 636
VWidth: 0
Flags: HMW
LayerCount: 2
Fore
SplineSet
53 40 m 0
 53 277 341 243 341 391 c 0
 341 431 334 468 319 517 c 1
 393 534 l 1
 420 494 470 394 470 314 c 0
 470 90 164 165 164 -40 c 0
 164 -132 269 -213 328 -213 c 0
 404 -213 476 -188 519 -142 c 1
 552 -155 593 -199 593 -253 c 0
 593 -306 553 -388 396 -388 c 0
 241 -388 53 -214 53 40 c 0
233 810 m 0
 233 880 289 936 359 936 c 0
 429 936 482 877 482 807 c 0
 482 740 425 690 359 690 c 0
 292 690 233 743 233 810 c 0
EndSplineSet
Colour: ffffff
EndChar

StartChar: quotedbl
Encoding: 2 34 171
Width: 497
VWidth: 0
Flags: HMW
LayerCount: 2
Back
SplineSet
497 1303 m 1
 677 1286 l 1
 581 903 l 1
 486 892 l 1
 497 1303 l 1
289 1303 m 1
 469 1286 l 1
 373 903 l 1
 277 892 l 1
 289 1303 l 1
EndSplineSet
Fore
SplineSet
50 1302 m 1
 233 1286 l 1
 197 903 l 1
 104 892 l 1
 50 1302 l 1
258 1302 m 1
 442 1286 l 1
 406 903 l 1
 311 892 l 1
 258 1302 l 1
EndSplineSet
Colour: ffffff
EndChar

StartChar: quotedblleft
Encoding: 228 8220 172
Width: 736
VWidth: 0
Flags: HMW
LayerCount: 2
Fore
SplineSet
54 964 m 0
 54 1057 88 1217 351 1287 c 1
 372 1219 l 1
 241 1185 191 1109 191 1045 c 0
 191 989 238 938 308 938 c 0
 318 938 328 939 338 940 c 1
 346 919 352 901 352 878 c 0
 352 798 280 756 230 756 c 0
 160 756 54 813 54 964 c 0
369 964 m 0
 369 1057 403 1217 666 1287 c 1
 688 1219 l 1
 557 1185 507 1109 507 1045 c 0
 507 989 553 938 623 938 c 0
 633 938 642 939 652 940 c 1
 660 919 666 901 666 878 c 0
 666 798 594 756 544 756 c 0
 474 756 369 813 369 964 c 0
EndSplineSet
Colour: ffffff
EndChar

StartChar: quotedblright
Encoding: 229 8221 173
Width: 741
VWidth: 0
Flags: HMW
LayerCount: 2
Fore
SplineSet
62 824 m 1
 193 858 243 934 243 998 c 0
 243 1054 198 1104 128 1104 c 0
 118 1104 108 1104 98 1103 c 1
 90 1124 83 1143 83 1166 c 0
 83 1246 156 1286 206 1286 c 0
 276 1286 381 1229 381 1078 c 0
 381 985 348 825 85 755 c 1
 62 824 l 1
380 824 m 1
 511 858 561 934 561 998 c 0
 561 1054 515 1104 445 1104 c 0
 435 1104 425 1104 415 1103 c 1
 407 1124 400 1143 400 1166 c 0
 400 1246 473 1286 523 1286 c 0
 593 1286 698 1229 698 1078 c 0
 698 985 665 825 402 755 c 1
 380 824 l 1
EndSplineSet
Colour: ffffff
EndChar

StartChar: quoteleft
Encoding: 225 8216 174
Width: 419
VWidth: 0
Flags: HMW
LayerCount: 2
Fore
SplineSet
53 961 m 0
 53 1054 86 1214 349 1284 c 1
 372 1215 l 1
 241 1181 190 1105 190 1041 c 0
 190 985 236 934 306 934 c 0
 316 934 325 936 335 937 c 1
 343 916 351 898 351 875 c 0
 351 795 278 753 228 753 c 0
 158 753 53 810 53 961 c 0
EndSplineSet
Colour: ffffff
EndChar

StartChar: quoteright
Encoding: 226 8217 175
Width: 425
VWidth: 0
Flags: HMW
LayerCount: 2
Fore
SplineSet
62 819 m 1
 193 853 243 928 243 992 c 0
 243 1048 198 1100 128 1100 c 0
 118 1100 108 1098 98 1097 c 1
 90 1118 83 1137 83 1160 c 0
 83 1240 156 1281 206 1281 c 0
 276 1281 381 1224 381 1073 c 0
 381 980 348 820 85 750 c 1
 62 819 l 1
EndSplineSet
Colour: ffffff
EndChar

StartChar: quotesinglbase
Encoding: 227 8218 176
Width: 434
VWidth: 0
Flags: HMW
LayerCount: 2
Fore
SplineSet
54 -244 m 1
 185 -210 236 -134 236 -70 c 0
 236 -14 190 36 120 36 c 0
 110 36 100 35 90 34 c 1
 82 55 76 74 76 97 c 0
 76 177 148 218 198 218 c 0
 268 218 372 161 372 10 c 0
 372 -83 340 -243 77 -313 c 1
 54 -244 l 1
EndSplineSet
Colour: ffffff
EndChar

StartChar: quotesingle
Encoding: 7 39 177
Width: 289
VWidth: 0
Flags: HMW
LayerCount: 2
Back
SplineSet
306 1303 m 1
 486 1286 l 1
 390 903 l 1
 294 892 l 1
 306 1303 l 1
EndSplineSet
Fore
SplineSet
50 1302 m 1
 233 1286 l 1
 197 903 l 1
 104 892 l 1
 50 1302 l 1
EndSplineSet
Colour: ffffff
EndChar

StartChar: r
Encoding: 82 114 178
Width: 735
VWidth: 0
Flags: HMW
LayerCount: 2
Fore
SplineSet
40 0 m 1
 50 74 l 1
 203 114 l 1
 203 728 l 1
 40 777 l 1
 54 853 l 1
 341 890 l 1
 364 866 l 1
 344 636 l 1
 363 636 l 1
 418.255 817 521.468 906 608 906 c 0
 676.45 906 719 852.478 719 794 c 0
 719 754.225 700.731 716.3 662 683 c 1
 624.291 706.878 579.927 722 540 722 c 0
 483.708 722 391.304 655 369 504 c 1
 369 121 l 1
 602 87 l 1
 592 0 l 1
 40 0 l 1
EndSplineSet
Substitution2: "'smcp' Lowercase to Small Capitals in Latin lookup 0 subtable" r.sc
Colour: ffffff
EndChar

StartChar: registered
Encoding: 109 174 179
Width: 1257
VWidth: 0
Flags: HMW
LayerCount: 2
Fore
SplineSet
373 777 m 1
 380 825 l 1
 460 853 l 1
 460 1248 l 1
 379 1266 l 1
 384 1319 l 1
 450 1329 562 1341 629 1341 c 0
 782 1341 874 1305 874 1194 c 0
 874 1124 816 1051 749 1028 c 1
 748 1026 l 5
 826 935 l 2
 876 877 895 862 945 839 c 2
 962 832 l 1
 951 777 l 1
 932 771 901 766 869 766 c 0
 778 766 737 823 687 918 c 2
 643 1001 l 1
 587 1001 l 1
 587 857 l 1
 661 830 l 1
 656 777 l 1
 373 777 l 1
587 1068 m 1
 666 1068 l 1
 706 1085 737 1117 737 1170 c 0
 737 1233 694 1272 621 1272 c 0
 603 1272 590 1270 587 1270 c 1
 587 1068 l 1
173 1022 m 0
 173 1344 384 1522 652 1522 c 0
 928 1522 1147 1352 1147 1026 c 0
 1147 716 924 540 642 540 c 0
 380 540 173 724 173 1022 c 0
261 1036 m 0
 261 776 432 616 650 616 c 0
 878 616 1059 784 1059 1016 c 0
 1059 1280 878 1446 652 1446 c 0
 430 1446 261 1300 261 1036 c 0
EndSplineSet
Colour: ffffff
EndChar

StartChar: ring
Encoding: 193 730 180
Width: 491
VWidth: 0
Flags: HMW
LayerCount: 2
Fore
SplineSet
89 1527 m 0
 89 1619 163 1699 256 1699 c 0
 352 1699 412 1629 412 1536 c 0
 412 1446 345 1361 243 1361 c 0
 151 1361 89 1425 89 1527 c 0
160 1538 m 0
 160 1477 191 1410 255 1410 c 0
 309 1410 341 1451 341 1524 c 0
 341 1586 307 1650 245 1650 c 0
 186 1650 160 1594 160 1538 c 0
EndSplineSet
Colour: ffffff
EndChar

StartChar: s
Encoding: 83 115 181
Width: 697
VWidth: 0
Flags: HMW
LayerCount: 2
Fore
SplineSet
50 121 m 0
 50 193.154 95.2879 254.538 172 261 c 1
 217.275 126.811 290.979 64 371 64 c 0
 441 64 503 91 503 165 c 0
 503 324 74 360 74 635 c 0
 74 751 170 900 372 900 c 0
 520 900 617 822 617 722 c 0
 617 645.869 564 594.503 477 589 c 1
 451.91 743.124 396.574 816 321 816 c 0
 251 816 209 760 209 696 c 0
 209 509 648 487 648 220 c 0
 648 72 494 -34 340 -34 c 0
 162 -34 50 41.2857 50 121 c 0
EndSplineSet
Substitution2: "'smcp' Lowercase to Small Capitals in Latin lookup 0 subtable" s.sc
Colour: ffffff
EndChar

StartChar: section
Encoding: 102 167 182
Width: 889
VWidth: 0
Flags: HMW
LayerCount: 2
Fore
SplineSet
55 -236 m 1
 68 31 l 1
 172 16 l 1
 209 -172 l 1
 245 -229 322 -282 415 -282 c 0
 520 -282 653 -219 653 -71 c 0
 653 195 17 191 83 606 c 1
 439 406 l 2
 611 310 836 230 836 -4 c 0
 836 -234 621 -383 393 -383 c 0
 249 -383 119 -315 55 -236 c 1
83 916 m 0
 83 1143 273 1269 470 1269 c 0
 578 1269 674 1235 753 1169 c 1
 753 1161 731 887 731 887 c 1
 632 899 l 1
 606 1090 l 1
 588 1126 518 1185 438 1185 c 0
 338 1185 254 1126 254 995 c 0
 254 698 902 728 835 300 c 1
 429 527 l 2
 270 616 83 704 83 916 c 0
EndSplineSet
Colour: ffffff
EndChar

StartChar: semicolon
Encoding: 27 59 183
Width: 462
VWidth: 0
Flags: HMW
LayerCount: 2
Back
SplineSet
342 852 m 0
 403 852 446 806 436 745 c 0
 426 681 367 629 306 629 c 0
 243 629 203 682 213 746 c 0
 223 807 281 852 342 852 c 0
243 225 m 0
 304 225 347 176 337 117 c 0
 327 53 267 2 206 2 c 0
 143 2 102 55 112 119 c 0
 122 178 182 225 243 225 c 0
EndSplineSet
Fore
SplineSet
77 -230 m 1
 199 -198 246 -131 246 -70 c 0
 246 -18 204 31 138 31 c 0
 129 31 119 29 110 28 c 1
 102 47 96 66 96 87 c 0
 96 161 163 199 210 199 c 0
 274 199 372 145 372 6 c 0
 372 -81 342 -231 98 -295 c 1
 77 -230 l 1
126 744 m 0
 126 806 178 853 240 853 c 0
 304 853 356 805 356 743 c 0
 356 678 304 626 240 626 c 0
 176 626 126 679 126 744 c 0
EndSplineSet
Colour: ffffff
EndChar

StartChar: seven
Encoding: 23 55 184
Width: 982
VWidth: 1651
Flags: HMW
LayerCount: 2
Back
SplineSet
390 1006 m 1
 320 872 l 1
 254 885 l 1
 315 1154 l 1
 1070 1154 l 1
 1065 1103 l 1
 486 -33 l 1
 398 -3 l 1
 892 1006 l 1
 390 1006 l 1
EndSplineSet
Fore
SplineSet
85 809 m 1
 109 1182 l 1
 897 1182 l 1
 897 1130 l 1
 460 -33 l 1
 253 -11 l 1
 742 1015 l 1
 229 1015 l 1
 154 796 l 1
 85 809 l 1
EndSplineSet
Substitution2: "'onum' Oldstyle Figures lookup 1-1" seven.osf
Colour: ffffff
EndChar

StartChar: seven.osf
Encoding: 241 -1 185
Width: 706
VWidth: 0
Flags: HMW
LayerCount: 2
Back
SplineSet
38.2266 827.532 m 1
 69.2197 1157.1 l 1
 869.891 1157.1 l 1
 886.42 1037.26 l 1
 651.903 613.676 497.966 385.355 380.189 39.2588 c 0
 340.93 -76.4512 295.475 -265.513 295.475 -370.892 c 1
 281.01 -372.958 250.018 -381.224 237.619 -381.224 c 0
 159.101 -381.224 89.8818 -329.566 89.8818 -244.851 c 0
 89.8818 -201.459 103.312 -138.439 136.373 -64.0537 c 0
 288.24 277.909 511.396 616.774 710.789 967.005 c 1
 183.896 967.005 l 1
 125.008 811.004 l 1
 38.2266 827.532 l 1
EndSplineSet
Fore
SplineSet
15 617 m 1
 55 945 l 1
 693 945 l 1
 706 850 l 1
 484 448 305 139 252 -295 c 1
 241 -296 216 -304 206 -304 c 0
 121 -304 84 -253 84 -189 c 0
 84 -26 424 550 565 786 c 1
 147 786 l 1
 83 604 l 1
 15 617 l 1
EndSplineSet
Colour: ffffff
EndChar

StartChar: six
Encoding: 22 54 186
Width: 982
VWidth: 1651
Flags: HMW
LayerCount: 2
Back
SplineSet
398 595 m 1
 411 608 428 619 446 631 c 0
 464 643 486 654 509 662 c 0
 532 670 555 679 580 684 c 0
 605 689 631 692 657 692 c 0
 700 692 740 684 773 667 c 0
 806 650 836 626 859 598 c 0
 882 570 900 538 912 502 c 0
 924 466 930 426 930 386 c 0
 930 332 917 280 892 230 c 0
 867 180 834 135 793 99 c 0
 752 63 704 33 651 12 c 0
 598 -9 542 -21 484 -21 c 256
 426 -21 377 -13 337 7 c 0
 297 27 264 53 238 84 c 0
 212 115 194 154 182 197 c 0
 170 240 165 286 165 334 c 0
 165 395 175 454 193 515 c 0
 211 576 238 634 271 692 c 0
 304 750 345 804 390 855 c 0
 435 906 482 954 535 997 c 0
 588 1040 642 1079 700 1110 c 0
 758 1141 816 1168 874 1186 c 1
 902 1130 l 1
 834 1100 773 1065 717 1024 c 0
 661 983 611 940 568 892 c 0
 525 844 489 794 459 743 c 0
 429 692 405 643 388 595 c 1
 398 595 l 1
504 59 m 0
 555 59 597 70 628 88 c 0
 659 106 686 130 704 160 c 0
 722 190 733 222 740 258 c 0
 747 294 748 329 748 362 c 0
 748 390 744 418 737 446 c 0
 730 474 720 498 705 519 c 0
 690 540 672 558 651 571 c 0
 630 584 603 591 573 591 c 0
 555 591 535 590 515 585 c 0
 495 580 475 574 457 566 c 0
 439 558 421 550 406 542 c 0
 391 534 382 523 375 515 c 1
 370 494 364 465 357 434 c 0
 350 403 347 370 347 335 c 0
 347 300 350 266 357 233 c 0
 364 200 373 171 386 145 c 0
 399 119 416 98 436 83 c 0
 456 68 479 59 504 59 c 0
EndSplineSet
Fore
SplineSet
96 421 m 0
 96 756 389 1112 703 1214 c 1
 740 1155 l 1
 479 1036 349 807 309 609 c 1
 320 609 l 1
 364 659 447 709 555 709 c 0
 749 709 886 589 886 370 c 0
 886 133 696 -21 479 -21 c 0
 208 -21 96 187 96 421 c 0
299 406 m 0
 299 235 364 61 486 61 c 0
 648 61 681 174 681 328 c 0
 681 463 624 606 482 606 c 0
 408 606 330 563 306 527 c 1
 303 494 299 440 299 406 c 0
EndSplineSet
Substitution2: "'onum' Oldstyle Figures lookup 1-1" six.osf
Colour: ffffff
EndChar

StartChar: six.osf
Encoding: 242 -1 187
Width: 796
VWidth: 0
Flags: HMW
LayerCount: 2
Fore
SplineSet
37 421 m 0
 37 756 314 1127 628 1229 c 1
 663 1171 l 1
 402 1052 282 816 242 618 c 1
 252 618 l 1
 310 686 393 722 475 722 c 0
 653 722 759 577 759 390 c 0
 759 170 586 -21 385 -21 c 0
 129 -21 37 187 37 421 c 0
232 406 m 0
 232 235 285 61 402 61 c 0
 507 61 572 174 572 328 c 0
 572 463 538 615 396 615 c 0
 322 615 263 570 239 534 c 1
 236 501 232 440 232 406 c 0
EndSplineSet
Colour: ffffff
EndChar

StartChar: slash
Encoding: 15 47 188
Width: 676
VWidth: 0
Flags: HMW
LayerCount: 2
Fore
SplineSet
44 -363 m 1
 506 1235 l 1
 638 1244 l 1
 172 -355 l 1
 44 -363 l 1
EndSplineSet
Colour: ffffff
EndChar

StartChar: softhyphen
Encoding: 108 173 189
Width: 580
VWidth: 0
Flags: HMW
LayerCount: 2
Back
SplineSet
170 522 m 1
 588 581 l 1
 562 466 l 1
 144 406 l 1
 170 522 l 1
EndSplineSet
Fore
SplineSet
85 406 m 1
 92 521 l 1
 500 581 l 1
 492 465 l 1
 85 406 l 1
EndSplineSet
Colour: ffffff
EndChar

StartChar: sterling
Encoding: 98 163 191
Width: 1113
VWidth: 0
Flags: HMW
LayerCount: 2
Back
SplineSet
1093 1211 m 1x70
 1012 895 l 1
 928 908 l 1
 922 1121 l 1
 902 1133 877 1144 841 1144 c 0
 674 1144 622 1038 563 704 c 1
 557 656 l 1
 778 669 l 1
 750 568 l 1
 538 555 l 1
 530 515 l 1
 502 356 468 196 405 99 c 1xb0
 864 96 l 1
 1034 348 l 1
 1118 330 l 1
 1027 0 l 1
 38 0 l 1
 58 74 l 1
 233 121 l 1
 281 222 299 312 325 461 c 2
 342 548 l 1
 162 538 l 1
 188 639 l 1
 360 649 l 1
 385 786 l 1
 446 1108 641 1250 867 1250 c 0
 948 1250 1019 1244 1093 1211 c 1x70
EndSplineSet
Fore
SplineSet
43 0 m 1
 50 74 l 1
 218 121 l 1
 249 221 254 313 257 461 c 2
 260 549 l 1
 80 538 l 1
 92 639 l 1
 263 649 l 1
 267 747 l 2
 281.909 1112.27 488.798 1250 683 1250 c 0
 763 1250 837 1242.46 916 1201 c 1
 885 875 l 1
 799 887 l 1
 758 1081 l 1
 732 1122 677.87 1143 619 1143 c 0
 516 1143 480.964 1091.32 468 845 c 2
 458 655 l 1
 676 669 l 1
 666 568 l 1
 455 555 l 1
 454 515 l 2
 451 356 440 196 393 99 c 1
 853 96 l 1
 984 349 l 1
 1070 331 l 1
 1032 0 l 1
 43 0 l 1
EndSplineSet
Substitution2: "'onum' Oldstyle Figures lookup 1-1" sterling.osf
Colour: ffffff
EndChar

StartChar: t
Encoding: 84 116 192
Width: 649
VWidth: 0
Flags: HMW
LayerCount: 2
Fore
SplineSet
28 763 m 1
 28 817 l 1
 111 886.12 205 990.88 275 1087 c 1
 328 1087 l 1
 328 849 l 1
 611 849 l 1
 602 761 l 1
 326 761 l 1
 323 319 l 2
 322 168 368 122 470 122 c 0
 544 122 614 178 614 178 c 1
 635 124 l 1
 574 35 478 -23 364 -23 c 0
 242 -23 149 37 151 260 c 2
 155 763 l 1
 28 763 l 1
EndSplineSet
Substitution2: "'smcp' Lowercase to Small Capitals in Latin lookup 0 subtable" t.sc
Colour: ffffff
EndChar

StartChar: thorn
Encoding: 189 254 193
Width: 937
VWidth: 0
Flags: HMW
LayerCount: 2
Fore
SplineSet
-15 -366 m 1
 -8 -287 l 1
 145 -251 l 1
 143 1137 l 1
 -9 1191 l 1
 4 1267 l 1
 287 1288 l 1
 311 1265 l 1
 311 849 l 1
 297 744 l 1
 308 744 l 1
 367 810 445 896 577 896 c 0
 748 896 884 740 884 469 c 0
 884 190 703 -13 470 -13 c 0
 437 -13 402 -10 369 1 c 1
 366 102 l 1
 622 51 696 224 696 408 c 0
 696 645 633 767 507 767 c 0
 421 767 352 721 308 675 c 1
 308 -251 l 1
 463 -285 l 1
 451 -366 l 1
 -15 -366 l 1
EndSplineSet
Substitution2: "'smcp' Lowercase to Small Capitals in Latin lookup 0 subtable" thorn.sc
Colour: ffffff
EndChar

StartChar: three
Encoding: 19 51 194
Width: 982
VWidth: 1651
Flags: HMW
LayerCount: 2
Back
SplineSet
258 208 m 1xf8
 258 198 263 185 271 168 c 0
 279 151 289 134 304 117 c 0
 319 100 337 86 357 74 c 0
 377 62 398 56 421 56 c 0
 482 56 529 66 565 86 c 0
 601 106 629 131 647 159 c 0
 665 187 675 215 680 243 c 0
 685 271 689 293 689 310 c 0xf8
 689 336 682 363 670 391 c 0
 658 419 644 445 621 466 c 0
 598 487 570 506 537 519 c 0
 504 532 465 540 424 540 c 2
 408 540 l 1
 408 604 l 1
 415 606 428 611 446 618 c 0
 464 625 486 635 509 647 c 0
 532 659 558 673 583 690 c 0
 608 707 633 727 654 750 c 0
 675 773 694 796 707 822 c 0
 720 848 727 880 727 913 c 0
 727 931 725 947 720 964 c 0
 715 981 706 998 694 1011 c 0
 682 1024 667 1036 649 1044 c 0
 631 1052 608 1055 580 1055 c 0
 527 1055 484 1040 451 1014 c 0
 418 988 388 952 363 907 c 1
 294 931 l 1
 302 957 317 984 340 1014 c 0
 363 1044 390 1072 423 1097 c 0
 456 1122 492 1142 532 1159 c 0
 572 1176 614 1184 657 1184 c 0
 692 1184 724 1180 755 1168 c 0
 786 1156 813 1143 836 1123 c 0
 859 1103 875 1080 888 1054 c 0
 901 1028 908 995 908 964 c 0xf4
 908 921 902 884 885 849 c 0
 868 814 847 784 822 758 c 0
 797 732 768 710 735 690 c 0
 702 670 669 654 634 642 c 1
 633 631 l 1
 673 626 707 615 737 598 c 0
 767 581 791 561 811 538 c 0
 831 515 845 490 855 462 c 0
 865 434 870 405 870 377 c 0
 870 323 857 270 829 220 c 0
 801 170 764 125 718 89 c 0
 672 53 618 24 555 3 c 0
 492 -18 427 -30 358 -30 c 0
 317 -30 283 -26 253 -18 c 0
 223 -10 198 0 178 12 c 0
 158 24 144 38 134 53 c 0
 124 68 119 84 119 99 c 0
 119 124 130 147 155 168 c 0
 180 189 215 203 258 208 c 1xf8
EndSplineSet
Fore
SplineSet
103 74 m 1
 154 373 l 1
 239 360 l 1
 252 157 l 1
 275 115 345 72 415 72 c 0
 571 72 663 141 663 277 c 0
 663 445 494 545 332 545 c 1
 322 611 l 1
 404 637 622 742 622 918 c 0
 622 1018 561 1124 437 1124 c 0
 383 1124 330 1108 293 1068 c 1
 247 812 l 1
 162 823 l 1
 144 1090 l 1
 188 1138 350 1213 495 1213 c 0
 685 1213 834 1125 834 960 c 0
 834 798 670 693 549 649 c 1
 549 637 l 1
 718 624 879 532 879 335 c 0
 879 129 658 -30 394 -30 c 0
 260 -30 131 29 103 74 c 1
EndSplineSet
Substitution2: "'onum' Oldstyle Figures lookup 1-1" three.osf
Colour: ffffff
EndChar

StartChar: three.osf
Encoding: 243 -1 195
Width: 692
VWidth: 0
Flags: HMW
LayerCount: 2
Fore
SplineSet
-44 -159 m 4
 -44 -110 9 -46 92 -38 c 5
 98.4196 -81 142.287 -210 245 -210 c 4
 438.009 -210 486 -86 486 30 c 4
 486 156 379.031 298 179 303 c 5
 169 370 l 5
 288.337 411 416 506 416 687 c 4
 416 774 377.143 857 280 857 c 4
 172 857 119 788 82 698 c 5
 4 725 l 5
 23 830 160 991 338 991 c 4
 494.922 991 603 884 603 739 c 4
 603 582 461.727 450 381 412 c 5
 381 401 l 5
 541.989 384 674 241 674 83 c 4
 674 -107 476.604 -297 225 -297 c 4
 44.2819 -297 -44 -225 -44 -159 c 4
EndSplineSet
Colour: ffffff
EndChar

StartChar: threequarters
Encoding: 125 190 196
Width: 1736
VWidth: 0
Flags: HMW
LayerCount: 2
Fore
SplineSet
-31 546 m 1
 -1 745 l 1
 74 737 l 1
 82 602 l 1
 100 581 138 562 181 562 c 0
 276 562 332 618 332 702 c 0
 332 773 249 832 128 832 c 1
 112 891 l 1
 160 906 296 954 296 1053 c 0
 296 1110 261 1172 189 1172 c 0
 158 1172 127 1169 106 1150 c 1
 82 993 l 1
 6 999 l 1
 -6 1170 l 1
 25 1214 140 1262 243 1262 c 0
 378 1262 483 1206 483 1100 c 0
 483 996 401 938 304 910 c 1
 304 903 l 1
 449 888 522 822 522 719 c 0
 522 583 365 478 177 478 c 0
 82 478 -11 504 -31 546 c 1
173 -10 m 1
 580 588 l 1
 971 1210 l 1
 1147 1207 l 1
 1145 1178 l 1
 744 591 l 1
 373 -32 l 1
 173 -10 l 1
693 270 m 1
 1103 737 l 1
 1160 726 l 1
 1155 655 1151 539 1151 430 c 2
 1151 272 l 1
 1299 272 l 1
 1290 175 l 1
 1151 175 l 1
 1151 83 l 1
 1272 65 l 1
 1266 0 l 1
 852 0 l 1
 856 58 l 1
 993 85 l 1
 993 178 l 1
 706 178 l 1
 693 270 l 1
800 272 m 1
 990 272 l 1
 990 508 l 1
 800 272 l 1
EndSplineSet
Colour: ffffff
EndChar

StartChar: three.superior
Encoding: 114 179 197
Width: 635
VWidth: 0
Flags: HMW
LayerCount: 2
Fore
SplineSet
21 563 m 5
 51 762 l 5
 126 754 l 5
 134 619 l 5
 152 598 190 579 233 579 c 4
 328 579 384 635 384 719 c 4
 384 790 301 849 180 849 c 5
 164 908 l 5
 212 923 348 971 348 1070 c 4
 348 1127 313 1189 241 1189 c 4
 210 1189 179 1186 158 1167 c 5
 134 1010 l 5
 58 1016 l 5
 46 1187 l 5
 77 1231 192 1279 295 1279 c 4
 430 1279 535 1223 535 1117 c 4
 535 1013 453 955 356 927 c 5
 356 920 l 5
 501 905 574 839 574 736 c 4
 574 600 417 495 229 495 c 4
 134 495 41 521 21 563 c 5
EndSplineSet
Colour: ffffff
EndChar

StartChar: tilde
Encoding: 194 732 198
Width: 649
VWidth: 0
Flags: HMW
LayerCount: 2
Fore
SplineSet
92 1379 m 2
 92 1379 132 1533 228 1521 c 2
 454 1492 l 2
 479 1489 510 1532 510 1532 c 1
 559 1530 l 2
 559 1530 512 1374 415 1387 c 2
 190 1419 l 2
 162 1423 131 1370 131 1370 c 1
 92 1379 l 2
EndSplineSet
Colour: ffffff
EndChar

StartChar: two
Encoding: 18 50 199
Width: 982
VWidth: 1651
Flags: HMW
LayerCount: 2
Back
SplineSet
94 2 m 1
 102 102 l 1
 363 302 l 2
 434 356 435 357 509 418 c 0
 559 459 604 502 644 548 c 0
 684 594 717 643 742 694 c 0
 767 745 779 799 779 857 c 0
 779 883 777 908 770 931 c 0
 763 954 755 975 742 993 c 0
 729 1011 710 1024 689 1034 c 0
 668 1044 639 1049 606 1049 c 0
 571 1049 542 1041 512 1026 c 0
 482 1011 456 991 433 966 c 0
 410 941 387 915 367 885 c 0
 347 855 330 827 315 799 c 1
 239 829 l 1
 254 870 277 912 307 953 c 0
 337 994 370 1032 410 1067 c 0
 450 1102 492 1128 538 1149 c 0
 584 1170 633 1181 684 1181 c 0
 778 1181 846 1158 892 1110 c 0
 938 1062 961 995 961 907 c 0
 961 826 939 753 898 685 c 0
 857 617 805 557 746 499 c 0
 687 441 621 388 555 340 c 0
 489 292 431 249 381 208 c 2
 296 135 l 1
 750 135 l 1
 867 306 l 1
 935 296 l 1
 839 0 l 1
 94 2 l 1
EndSplineSet
Fore
SplineSet
74 102 m 1
 289 269 l 2
 552 474 651 604 651 810 c 0
 651 953 623 1105 449 1105 c 0
 365 1105 302 1072 269 1027 c 1
 232 756 l 1
 155 766 l 1
 128 1060 l 1
 186 1139 374 1209 517 1209 c 0
 741 1209 870 1080 870 856 c 0
 870 584 618 409 335 195 c 2
 290 161 l 1
 744 161 l 1
 838 368 l 1
 908 358 l 1
 860 0 l 1
 80 0 l 1
 74 102 l 1
EndSplineSet
Substitution2: "'onum' Oldstyle Figures lookup 1-1" two.osf
Colour: ffffff
EndChar

StartChar: two.osf
Encoding: 244 -1 200
Width: 791
VWidth: 0
Flags: HMW
LayerCount: 2
Fore
SplineSet
40 102 m 1
 256 228 498 405 498 658 c 0
 498 796 432.643 867 333 867 c 0
 247 867 154 795 123 665 c 1
 48 694 l 1
 61 822 199 986.861 407 991 c 0
 603.295 994 703 860 703 703 c 0
 703 479.931 475 279 244 147 c 1
 615 147 l 1
 693 301 l 1
 764 292 l 1
 710 0 l 1
 47 0 l 1
 40 102 l 1
EndSplineSet
Colour: ffffff
EndChar

StartChar: two.superior
Encoding: 113 178 201
Width: 622
VWidth: 0
Flags: HMW
LayerCount: 2
Fore
SplineSet
35 638 m 5
 190 761 l 6
 294 846 373 930 373 1005 c 4
 373 1077 358 1153 264 1153 c 4
 215 1153 175 1127 160 1095 c 5
 138 966 l 5
 70 971 l 5
 55 1141 l 5
 96 1218 227 1257 328 1257 c 4
 481 1257 569 1189 569 1071 c 4
 569 918 421 803 258 696 c 6
 191 652 l 5
 461 652 l 5
 540 805 l 5
 597 784 l 5
 578 531 l 5
 27 531 l 5
 35 638 l 5
EndSplineSet
Colour: ffffff
EndChar

StartChar: u
Encoding: 85 117 202
Width: 1002
VWidth: 0
Flags: HMW
LayerCount: 2
Fore
SplineSet
19 783 m 1
 33 862 l 1
 301 883 l 1
 326 859 l 1
 326 317 l 2
 326 166 390 114 480 114 c 0
 570 114 623 147 666 191 c 1
 666 722 l 1
 507 764 l 1
 517 856 l 1
 811 883 l 1
 832 859 l 1
 832 215 l 2
 832 115 874 104 940 89 c 2
 986 79 l 1
 977 -4 l 1
 915 -19 885 -23 826 -23 c 0
 726 -23 679 39 679 122 c 2
 679 131 l 1
 666 131 l 1
 596 29 501 -23 380 -23 c 0
 251 -23 157 52 157 267 c 2
 157 728 l 1
 19 783 l 1
EndSplineSet
Substitution2: "'smcp' Lowercase to Small Capitals in Latin lookup 0 subtable" u.sc
Colour: ffffff
EndChar

StartChar: uacute
Encoding: 185 250 203
Width: 1002
VWidth: 0
Flags: HMW
LayerCount: 2
Fore
SplineSet
19 783 m 1
 33 862 l 1
 301 883 l 1
 326 859 l 1
 326 317 l 2
 326 166 390 114 480 114 c 0
 570 114 623 147 666 191 c 1
 666 722 l 1
 507 764 l 1
 517 856 l 1
 811 883 l 1
 832 859 l 1
 832 215 l 2
 832 115 874 104 940 89 c 2
 986 79 l 1
 977 -4 l 1
 915 -19 885 -23 826 -23 c 0
 726 -23 679 39 679 122 c 2
 679 131 l 1
 666 131 l 1
 596 29 501 -23 380 -23 c 0
 251 -23 157 52 157 267 c 2
 157 728 l 1
 19 783 l 1
415 1017 m 1
 538 1342 l 1
 650 1302 l 1
 467 985 l 1
 415 1017 l 1
EndSplineSet
Substitution2: "'smcp' Lowercase to Small Capitals in Latin lookup 0 subtable" uacute.sc
Colour: ffffff
EndChar

StartChar: ucircumflex
Encoding: 186 251 204
Width: 1002
VWidth: 0
Flags: HMW
LayerCount: 2
Fore
SplineSet
19 783 m 1
 33 862 l 1
 301 883 l 1
 326 859 l 1
 326 317 l 2
 326 166 390 114 480 114 c 0
 570 114 623 147 666 191 c 1
 666 722 l 1
 507 764 l 1
 517 856 l 1
 811 883 l 1
 832 859 l 1
 832 215 l 2
 832 115 874 104 940 89 c 2
 986 79 l 1
 977 -4 l 1
 915 -19 885 -23 826 -23 c 0
 726 -23 679 39 679 122 c 2
 679 131 l 1
 666 131 l 1
 596 29 501 -23 380 -23 c 0
 251 -23 157 52 157 267 c 2
 157 728 l 1
 19 783 l 1
299 1024 m 1
 467 1203 l 1
 522 1217 l 1
 700 1032 l 1
 650 995 l 1
 487 1104 l 1
 477 1104 l 1
 338 993 l 1
 299 1024 l 1
EndSplineSet
Substitution2: "'smcp' Lowercase to Small Capitals in Latin lookup 0 subtable" ucircumflex.sc
Colour: ffffff
EndChar

StartChar: udieresis
Encoding: 187 252 205
Width: 1002
VWidth: 0
Flags: HMW
LayerCount: 2
Fore
SplineSet
19 783 m 1
 33 862 l 1
 301 883 l 1
 326 859 l 1
 326 317 l 2
 326 166 390 114 480 114 c 0
 570 114 623 147 666 191 c 1
 666 722 l 1
 507 764 l 1
 517 856 l 1
 811 883 l 1
 832 859 l 1
 832 215 l 2
 832 115 874 104 940 89 c 2
 986 79 l 1
 977 -4 l 1
 915 -19 885 -23 826 -23 c 0
 726 -23 679 39 679 122 c 2
 679 131 l 1
 666 131 l 1
 596 29 501 -23 380 -23 c 0
 251 -23 157 52 157 267 c 2
 157 728 l 1
 19 783 l 1
279 1084 m 0
 279 1131 322 1163 362 1163 c 0
 406 1163 448 1130 448 1084 c 0
 448 1035 406 1004 362 1004 c 0
 319 1004 279 1035 279 1084 c 0
546 1084 m 0
 546 1131 589 1163 629 1163 c 0
 673 1163 717 1130 717 1084 c 0
 717 1035 673 1004 629 1004 c 0
 586 1004 546 1035 546 1084 c 0
EndSplineSet
Substitution2: "'smcp' Lowercase to Small Capitals in Latin lookup 0 subtable" udieresis.sc
Colour: ffffff
EndChar

StartChar: ugrave
Encoding: 184 249 206
Width: 2048
VWidth: 0
Flags: HM
LayerCount: 2
Fore
SplineSet
19 783 m 1
 33 862 l 1
 301 883 l 1
 326 859 l 1
 326 317 l 2
 326 166 390 114 480 114 c 0
 570 114 623 147 666 191 c 1
 666 722 l 1
 507 764 l 1
 517 856 l 1
 811 883 l 1
 832 859 l 1
 832 215 l 2
 832 115 874 104 940 89 c 2
 986 79 l 1
 977 -4 l 1
 915 -19 885 -23 826 -23 c 0
 726 -23 679 39 679 122 c 2
 679 131 l 1
 666 131 l 1
 596 29 501 -23 380 -23 c 0
 251 -23 157 52 157 267 c 2
 157 728 l 1
 19 783 l 1
342 1296 m 1
 458 1334 l 1
 589 1000 l 1
 532 965 l 1
 342 1296 l 1
EndSplineSet
Substitution2: "'smcp' Lowercase to Small Capitals in Latin lookup 0 subtable" ugrave.sc
Colour: ffffff
EndChar

StartChar: underscore
Encoding: 63 95 207
Width: 838
VWidth: 0
Flags: HMW
LayerCount: 2
Fore
SplineSet
-1 -132 m 1
 11 -27 l 1
 839 -27 l 1
 828 -132 l 1
 -1 -132 l 1
EndSplineSet
Colour: ffffff
EndChar

StartChar: v
Encoding: 86 118 208
Width: 904
VWidth: 0
Flags: HMW
LayerCount: 2
Fore
SplineSet
-6 798 m 1
 4 873 l 1
 451 873 l 1
 443 799 l 1
 298 758 l 1
 486 194 l 1
 678 756 l 1
 517 798 l 1
 531 873 l 1
 914 873 l 1
 902 799 l 1
 794 758 l 1
 521 -10 l 1
 394 -28 l 1
 116 756 l 1
 -6 798 l 1
EndSplineSet
Substitution2: "'smcp' Lowercase to Small Capitals in Latin lookup 0 subtable" v.sc
Colour: ffffff
EndChar

StartChar: w
Encoding: 87 119 209
Width: 1273
VWidth: 0
Flags: HMW
LayerCount: 2
Fore
SplineSet
-2 799 m 1
 8 875 l 1
 423 875 l 1
 414 801 l 1
 279 760 l 1
 400 360 l 1
 424 240 l 1
 585 811 l 1
 724 829 l 1
 871 345 l 1
 892 234 l 1
 1038 758 l 1
 888 799 l 1
 898 875 l 1
 1281 875 l 1
 1269 801 l 1
 1161 760 l 1
 939 -10 l 1
 820 -28 l 1
 637 586 l 1
 470 -10 l 1
 351 -28 l 1
 113 758 l 1
 -2 799 l 1
EndSplineSet
Substitution2: "'smcp' Lowercase to Small Capitals in Latin lookup 0 subtable" w.sc
Colour: ffffff
EndChar

StartChar: x
Encoding: 88 120 210
Width: 958
VWidth: 0
Flags: HMW
LayerCount: 2
Fore
SplineSet
21 0 m 1
 31 73 l 1
 138 114 l 1
 383 436 l 1
 154 764 l 1
 36 806 l 1
 46 882 l 1
 480 882 l 1
 467 807 l 1
 352 767 l 1
 508 549 l 1
 675 764 l 1
 538 806 l 1
 552 882 l 1
 927 882 l 1
 914 807 l 1
 810 767 l 1
 580 467 l 1
 836 114 l 1
 949 74 l 1
 940 0 l 1
 495 0 l 1
 508 73 l 1
 636 114 l 1
 458 351 l 1
 277 114 l 1
 419 74 l 1
 409 0 l 1
 21 0 l 1
EndSplineSet
Substitution2: "'smcp' Lowercase to Small Capitals in Latin lookup 0 subtable" x.sc
Colour: ffffff
EndChar

StartChar: y
Encoding: 89 121 211
Width: 931
VWidth: 0
Flags: HMW
LayerCount: 2
Fore
SplineSet
8 -261 m 0
 8 -221 18 -181 64 -141 c 1
 118 -178 162 -194 215 -194 c 0
 264 -194 332 -183 386 -49 c 2
 406 0 l 1
 121 758 l 1
 -3 796 l 1
 8 873 l 1
 428 873 l 1
 419 799 l 1
 292 761 l 1
 496 222 l 1
 712 756 l 1
 581 798 l 1
 595 873 l 1
 937 873 l 1
 930 799 l 1
 829 758 l 1
 498 -53 l 2
 394 -309 313 -380 162 -380 c 0
 70 -380 8 -318 8 -261 c 0
EndSplineSet
Substitution2: "'smcp' Lowercase to Small Capitals in Latin lookup 0 subtable" y.sc
Colour: ffffff
EndChar

StartChar: yen
Encoding: 100 165 214
Width: 1097
VWidth: 0
Flags: HMW
LayerCount: 2
Back
SplineSet
596 472 m 1
 289 472 l 1
 317 578 l 1
 581 578 l 1
 428 1126 l 1
 297 1168 l 1
 322 1244 l 1
 789 1244 l 1
 766 1168 l 1
 628 1130 l 1
 760 641 l 1
 1055 1126 l 1
 905 1168 l 1
 926 1244 l 1
 1323 1244 l 1
 1301 1168 l 1
 1171 1130 l 1
 829 578 l 1
 1133 578 l 1
 1105 472 l 1
 789 472 l 1
 770 345 l 1
 1093 345 l 1
 1065 239 l 1
 753 239 l 1
 733 114 l 1
 892 81 l 1
 869 0 l 1
 362 0 l 1
 383 74 l 1
 542 121 l 1
 560 239 l 1
 249 239 l 1
 277 345 l 1
 576 345 l 1
 596 472 l 1
EndSplineSet
Fore
SplineSet
42 1168 m 5
 55 1244 l 5
 515 1244 l 5
 504 1168 l 5
 371 1130 l 5
 589 636 l 5
 806 1126 l 5
 649 1168 l 5
 658 1244 l 5
 1054 1244 l 5
 1045 1168 l 5
 921 1130 l 5
 667 578 l 5
 968 578 l 5
 957 480 l 5
 640 480 l 5
 640 338 l 5
 964 338 l 5
 953 240 l 5
 640 240 l 5
 640 113 l 5
 804 78 l 5
 794 0 l 5
 294 0 l 5
 304 71 l 5
 453 119 l 5
 453 240 l 5
 143 240 l 5
 155 338 l 5
 453 338 l 5
 453 480 l 5
 147 480 l 5
 159 578 l 5
 426 578 l 5
 178 1126 l 5
 42 1168 l 5
EndSplineSet
Substitution2: "'onum' Oldstyle Figures lookup 1-1" yen.osf
Colour: ffffff
EndChar

StartChar: z
Encoding: 90 122 215
Width: 818
VWidth: 0
Flags: HMW
LayerCount: 2
Fore
SplineSet
53 87 m 1
 543 780 l 1
 206 780 l 1
 147 595 l 1
 70 608 l 1
 78 873 l 1
 750 873 l 1
 750 799 l 1
 248 99 l 1
 608 99 l 1
 703 275 l 1
 770 267 l 1
 728 0 l 1
 57 0 l 1
 53 87 l 1
EndSplineSet
Substitution2: "'smcp' Lowercase to Small Capitals in Latin lookup 0 subtable" z.sc
Colour: ffffff
EndChar

StartChar: zero
Encoding: 16 48 216
Width: 982
VWidth: 1651
Flags: HMW
LayerCount: 2
Back
SplineSet
317 411 m 0
 317 292 335 205 370 152 c 0
 405 99 451 73 510 73 c 0
 551 73 593 82 631 102 c 0
 669 122 703 158 733 208 c 0
 763 258 785 324 803 410 c 0
 821 496 829 603 829 733 c 0
 829 840 814 925 784 984 c 0
 754 1043 710 1075 649 1075 c 0
 601 1075 558 1063 522 1042 c 0
 486 1021 458 991 433 955 c 0
 408 919 388 878 373 832 c 0
 358 786 345 737 337 687 c 0
 329 637 323 590 320 542 c 0
 317 494 317 451 317 411 c 0
991 699 m 0
 991 580 976 476 945 385 c 0
 914 294 874 220 826 159 c 0
 778 98 726 51 667 20 c 0
 608 -11 549 -26 495 -26 c 0
 447 -26 403 -17 362 3 c 0
 321 23 284 52 253 92 c 0
 222 132 198 180 180 239 c 0
 162 298 154 369 154 448 c 0
 154 557 168 656 198 745 c 0
 228 834 266 911 314 974 c 0
 362 1037 417 1085 476 1120 c 0
 535 1155 598 1173 659 1173 c 0
 710 1173 755 1161 796 1140 c 0
 837 1119 872 1086 902 1045 c 0
 932 1004 953 955 968 897 c 0
 983 839 991 773 991 699 c 0
EndSplineSet
Fore
SplineSet
74 586 m 0
 74 1017 279 1203 500 1203 c 0
 740 1203 908 1020 908 586 c 0
 908 110 692 -27 494 -27 c 0
 270 -27 74 94 74 586 c 0
290 583 m 0
 290 236 329 70 500 70 c 0
 647 70 690 235 690 586 c 0
 690 928 651 1098 492 1098 c 0
 330 1098 290 926 290 583 c 0
EndSplineSet
Substitution2: "'onum' Oldstyle Figures lookup 1-1" zero.osf
Colour: ffffff
EndChar

StartChar: zero.osf
Encoding: 245 -1 217
Width: 974
VWidth: 0
Flags: HMW
LayerCount: 2
Fore
SplineSet
99 482 m 0
 99 746 265 987 488 985 c 0
 732 982 875 772 875 492 c 0
 875 160 680 -23 487 -23 c 0
 285 -23 99 147 99 482 c 0
297 492 m 0
 297 133 389 71 488 71 c 0
 587 71 677 130 677 487 c 0
 677 842 586 900 487 900 c 0
 388 900 297 849 297 492 c 0
EndSplineSet
Colour: ffffff
EndChar

StartChar: micro
Encoding: 116 181 218
Width: 1008
VWidth: 0
Flags: HMW
LayerCount: 2
Back
SplineSet
372 1480 m 1
 813 1480 l 1
 783 1379 l 1
 342 1379 l 1
 372 1480 l 1
545 1239 m 0
EndSplineSet
Fore
SplineSet
28 790 m 1
 40 870 l 1
 309 892 l 1
 334 866 l 1
 334 314 l 2
 334 163 397 105 487 105 c 0
 577 105 625 148 675 188 c 1
 675 731 l 1
 513 773 l 1
 523 863 l 1
 818 892 l 1
 839 866 l 1
 839 213 l 2
 839 108 882 102 948 87 c 2
 993 77 l 1
 985 -6 l 1
 923 -21 891 -24 832 -24 c 0
 732 -24 686 38 686 121 c 2
 686 129 l 1
 675 129 l 1
 585 29 500 -24 387 -24 c 0
 325 -24 277 -3 246 37 c 1
 239 37 l 1
 242 19 249 -22 253 -86 c 2
 271 -388 l 1
 138 -362 l 1
 139 -335 165 202 165 494 c 2
 165 736 l 1
 28 790 l 1
EndSplineSet
Colour: ffffff
EndChar

StartChar: a.sc
Encoding: 246 -1 219
Width: 1077
VWidth: 1691
Flags: HMW
LayerCount: 2
Back
SplineSet
645.12 92.8799 m 17
 522 53.2803 l 1
 513.36 0 l 1
 884.16 0 l 1
 890.64 57.5996 l 1
 792 89.2803 l 1
 511.2 912.96 l 1
 402.48 890.64 l 1
 87.1201 92.8799 l 1
 -20.1602 53.2803 l 1
 -26.6396 0 l 1
 310.32 0 l 1
 318.24 57.5996 l 1
 211.68 91.4404 l 9
 426.24 744.48 l 25
 645.12 92.8799 l 17
263.543 384.48 m 17
 572.185 384.48 l 9
 579.815 311.04 l 17
 257.805 311.04 l 9
 263.543 384.48 l 17
EndSplineSet
Fore
SplineSet
721 310 m 17
 332 310 l 9
 370 412 l 17
 692 412 l 9
 721 310 l 17
730 121 m 9
 522 730 l 25
 300 124 l 17
 446 80 l 1
 435 0 l 1
 37 0 l 1
 46 74 l 1
 165 129 l 1
 489 917 l 1
 640 948 l 1
 934 124 l 1
 1041 80 l 1
 1032 0 l 1
 587 0 l 1
 599 74 l 1
 730 121 l 9
EndSplineSet
Colour: ffff00
EndChar

StartChar: b.sc
Encoding: 247 -1 220
Width: 943
VWidth: 1691
Flags: HMW
LayerCount: 2
Back
SplineSet
28 0 m 1xda
 35 74 l 1
 130 112 l 1
 130 758 l 1
 32 776 l 1
 38 853 l 1xea
 146 874 273 899 405 899 c 0
 634.578 899 728 792.396 728 677 c 0xdc
 728 611.264 695.717 532.02 592 496 c 1
 592 489 l 1
 734 477 812 367 812 267 c 0
 812 134.946 718.338 0 426 0 c 2
 28 0 l 1xda
322 96 m 1
 456 96 l 2
 565.361 96 621 152.348 621 258 c 0
 621 336.521 565.03 422 448 422 c 2
 322 422 l 1
 322 96 l 1
322 505 m 1
 488 505 l 1
 530.378 529.631 552 577.823 552 656 c 0
 552 730.269 512.886 813 367 813 c 0xdc
 353 813 337 810 322 806 c 1
 322 505 l 1
EndSplineSet
Fore
SplineSet
37 0 m 1
 48 74 l 1
 185 121 l 1
 185 804 l 1
 44 834 l 1
 54 911 l 1
 181 932 331 957 486 957 c 0
 719 957 815 847 815 727 c 0
 815 651 773 558 637 516 c 1
 637 509 l 1
 816 501 907 425 907 290 c 0
 907 147 799 0 465 0 c 2
 37 0 l 1
377 96 m 1
 507 96 l 2
 641 96 711 163 711 277 c 0
 711 363 645 442 510 442 c 2
 377 442 l 1
 377 96 l 1
377 525 m 1
 543 525 l 1
 616 565 635 614 635 709 c 0
 635 786 591 871 427 871 c 0
 412 871 394 870 377 868 c 1
 377 525 l 1
EndSplineSet
Colour: ffff00
EndChar

StartChar: c.sc
Encoding: 248 -1 221
Width: 879
VWidth: 1691
Flags: HMW
LayerCount: 2
Fore
SplineSet
39 439 m 4
 39 659 180 947 523 947 c 4
 626 947 730 929 805 880 c 5
 784 602 l 5
 686 615 l 5
 664 775 l 5
 640 814 599 852 486 852 c 4
 332 852 233 719 233 498 c 4
 233 242 393 108 539 108 c 4
 676 108 743 147 809 191 c 5
 844 115 l 5
 780 51 673 -24 472 -24 c 4
 247 -24 39 138 39 439 c 4
EndSplineSet
Colour: ffff00
EndChar

StartChar: d.sc
Encoding: 249 -1 222
Width: 1061
VWidth: 1691
Flags: HMW
LayerCount: 2
Fore
SplineSet
36 0 m 5
 50 74 l 5
 192 129 l 5
 192 790 l 5
 40 820 l 5
 49 896 l 5
 215 927 360 945 482 945 c 4
 903 945 1022 727 1022 498 c 4
 1022 230 808 0 410 0 c 6
 36 0 l 5
383 104 m 5
 438 104 l 6
 691 104 811 245 811 463 c 4
 811 708 691 842 445 842 c 4
 425 842 403 842 383 838 c 5
 383 104 l 5
EndSplineSet
Colour: ffff00
EndChar

StartChar: e.sc
Encoding: 250 -1 223
Width: 925
VWidth: 1691
Flags: HMW
LayerCount: 2
Fore
SplineSet
37 851 m 5
 48 927 l 5
 845 927 l 5
 824 654 l 5
 725 667 l 5
 694 835 l 5
 383 835 l 5
 383 503 l 1
 560 503 l 1
 582 583 l 1
 680 597 l 1
 646 298 l 1
 555 285 l 1
 544 410 l 1
 383 410 l 1
 383 96 l 1
 728 96 l 1
 795 276 l 1
 889 263 l 1
 869 0 l 1
 44 0 l 1
 52 74 l 1
 189 121 l 1
 189 809 l 5
 37 851 l 5
EndSplineSet
Colour: ffff00
EndChar

StartChar: f.sc
Encoding: 251 -1 224
Width: 899
VWidth: 1691
Flags: HMW
LayerCount: 2
Fore
SplineSet
37 854 m 1
 48 930 l 1
 861 930 l 1
 832 658 l 1
 729 672 l 1
 708 838 l 1
 383 838 l 1
 383 470 l 1
 602 470 l 1
 627 554 l 1
 725 568 l 1
 698 276 l 1
 605 262 l 1
 589 378 l 1
 383 378 l 1
 380 122 l 1
 578 83 l 1
 565 0 l 1
 44 0 l 1
 52 74 l 1
 189 121 l 1
 189 812 l 1
 37 854 l 1
EndSplineSet
Colour: ffff00
EndChar

StartChar: g.sc
Encoding: 252 -1 225
Width: 1044
VWidth: 1691
Flags: HMW
LayerCount: 2
Fore
SplineSet
39 421 m 0
 39 734 283 947 573 947 c 0
 708 947 819 929 895 900 c 1
 871 608 l 1
 764 623 l 1
 738 788 l 1
 708 812 627 848 523 848 c 0
 382 848 243 742 243 480 c 0
 243 234 348 77 534 77 c 0
 639 77 680 86 706 112 c 1
 706 280 l 1
 520 318 l 1
 532 401 l 1
 1008 401 l 1
 994 317 l 1
 892 285 l 1
 892 29 l 1
 782 -14 658 -31 491 -31 c 0
 187 -31 39 168 39 421 c 0
EndSplineSet
Colour: ffff00
EndChar

StartChar: h.sc
Encoding: 253 -1 226
Width: 1195
VWidth: 1691
Flags: HMW
LayerCount: 2
Fore
SplineSet
37 854 m 1
 48 930 l 1
 532 930 l 1
 522 854 l 1
 384 816 l 1
 384 508 l 1
 809 508 l 1
 809 812 l 1
 656 854 l 1
 667 930 l 1
 1153 930 l 1
 1141 854 l 1
 1004 816 l 1
 1004 114 l 1
 1156 80 l 1
 1146 0 l 1
 663 0 l 1
 673 74 l 1
 809 121 l 1
 809 405 l 1
 384 405 l 1
 384 114 l 1
 538 80 l 1
 525 0 l 1
 44 0 l 1
 52 74 l 1
 189 121 l 1
 189 812 l 1
 37 854 l 1
EndSplineSet
Colour: ffff00
EndChar

StartChar: i.sc
Encoding: 254 -1 227
Width: 574
VWidth: 1691
Flags: HMW
LayerCount: 2
Fore
SplineSet
37 854 m 5
 48 930 l 5
 129 930 379 930 532 930 c 5
 522 854 l 5
 383 816 l 5
 383 114 l 5
 534 80 l 5
 524 0 l 5
 44 0 l 5
 52 74 l 5
 189 121 l 5
 189 812 l 5
 37 854 l 5
EndSplineSet
Colour: ffff00
EndChar

StartChar: j.sc
Encoding: 255 -1 228
Width: 651
VWidth: 1691
Flags: HMW
LayerCount: 2
Fore
SplineSet
35 -237 m 1
 190 -100 271 18 271 167 c 2
 271 812 l 1
 120 854 l 1
 130 930 l 1
 615 930 l 1
 605 854 l 1
 465 816 l 1
 465 305 l 2
 465 -58 376 -159 89 -326 c 1
 35 -237 l 1
EndSplineSet
Colour: ffff00
EndChar

StartChar: k.sc
Encoding: 256 -1 229
Width: 1115
VWidth: 1691
Flags: HMW
LayerCount: 2
Fore
SplineSet
37 854 m 5
 51 930 l 5
 531 930 l 5
 521 854 l 5
 389 807 l 5
 389 124 l 5
 558 80 l 5
 547 0 l 5
 44 0 l 5
 54 74 l 5
 196 129 l 5
 196 803 l 5
 37 854 l 5
413 466 m 5
 447 499 496 548 559 616 c 6
 744 815 l 5
 626 854 l 5
 634 930 l 5
 1047 930 l 5
 1035 851 l 5
 895 811 l 5
 597 492 l 5
 690 375 l 6
 787 253 907 122 1032 83 c 6
 1078 70 l 5
 1068 1 l 5
 1022 -15 977 -21 937 -21 c 4
 770 -21 627 113 534 258 c 6
 414 445 l 5
 413 466 l 5
EndSplineSet
Colour: ffff00
EndChar

StartChar: l.sc
Encoding: 257 -1 230
Width: 929
VWidth: 1691
Flags: HMW
LayerCount: 2
Fore
SplineSet
50 0 m 1
 59 74 l 1
 195 121 l 1
 195 803 l 1
 37 854 l 1
 50 930 l 1
 550 930 l 1
 540 854 l 1
 389 807 l 1
 389 96 l 1
 695 96 l 1
 790 295 l 1
 892 281 l 1
 864 0 l 1
 50 0 l 1
EndSplineSet
Colour: ffff00
EndChar

StartChar: m.sc
Encoding: 258 -1 231
Width: 1449
VWidth: 1691
Flags: HMW
LayerCount: 2
Fore
SplineSet
35 0 m 1
 46 74 l 1
 183 121 l 1
 246 812 l 1
 93 854 l 1
 103 930 l 1
 460 930 l 1
 544 736 l 1
 725 322 l 1
 919 769 l 1
 993 930 l 1
 1367 930 l 1
 1357 854 l 1
 1219 816 l 1
 1261 114 l 1
 1413 80 l 1
 1403 0 l 1
 917 0 l 1
 928 74 l 1
 1074 121 l 1
 1041 719 l 1
 752 60 l 1
 624 41 l 1
 358 663 l 1
 315 114 l 1
 468 80 l 1
 455 0 l 1
 35 0 l 1
EndSplineSet
Colour: ffff00
EndChar

StartChar: n.sc
Encoding: 259 -1 232
Width: 1169
VWidth: 1691
Flags: HMW
LayerCount: 2
Fore
SplineSet
37 854 m 5
 48 930 l 5
 358 930 l 5
 831 275 l 5
 831 812 l 5
 679 854 l 5
 691 930 l 5
 1133 930 l 5
 1120 854 l 5
 953 816 l 5
 953 11 l 5
 800 -20 l 5
 317 647 l 5
 317 114 l 5
 471 80 l 5
 460 0 l 5
 44 0 l 5
 52 74 l 5
 189 121 l 5
 189 803 l 5
 37 854 l 5
EndSplineSet
Colour: ffff00
EndChar

StartChar: o.sc
Encoding: 260 -1 233
Width: 1034
VWidth: 1691
Flags: HMW
LayerCount: 2
Fore
SplineSet
38 458 m 4
 38 746 229 947 538 947 c 4
 824 947 995 721 995 458 c 4
 995 199 813 -27 488 -27 c 4
 218 -27 38 186 38 458 c 4
245 515 m 4
 245 300 326 79 528 79 c 4
 733 79 781 248 781 412 c 4
 781 618 700 851 500 851 c 4
 296 851 245 690 245 515 c 4
EndSplineSet
Colour: ffff00
EndChar

StartChar: p.sc
Encoding: 261 -1 234
Width: 932
VWidth: 1691
Flags: HMW
LayerCount: 2
Fore
SplineSet
37 0 m 1
 48 74 l 1
 185 121 l 1
 185 796 l 1
 44 826 l 1
 54 903 l 1
 170 922 327 947 480 947 c 0
 695 947 895 890 895 654 c 0
 895 431 675 311 451 319 c 5
 433 402 l 5
 486 403 l 6
 616 406 695 494 695 628 c 0
 695 756 624 864 439 864 c 0
 415 864 377 860 377 860 c 1
 377 122 l 1
 574 83 l 1
 560 0 l 1
 37 0 l 1
EndSplineSet
Colour: ffff00
EndChar

StartChar: q.sc
Encoding: 262 -1 235
Width: 1027
VWidth: 1691
Flags: HMW
LayerCount: 2
Back
SplineSet
76 458 m 0
 76 746.367 267.473 947.1 576 947.1 c 0
 862.218 947.1 1033 720.9 1033 458 c 0
 1033 198.983 850.699 -27 526 -27 c 0
 256 -27 76 186.22 76 458 c 0
293 515 m 0
 293 300.286 370.903 79 566 79 c 0
 764.085 79 811 248.196 811 412 c 0
 811 618.078 731.938 851.1 538 851.1 c 0
 342 851.1 293 690.444 293 515 c 0
EndSplineSet
Fore
SplineSet
38 455 m 0
 38 741 237 947 536 947 c 0
 826 947 988 736 988 483 c 0
 988 257 857 51 633 -6 c 1
 678 -106 768 -210 965 -205 c 1
 965 -229 962 -263 956 -281 c 1
 905 -311 846 -327 787 -327 c 0
 623 -327 520 -198 532 -30 c 1
 213 -41 38 188 38 455 c 0
240 526 m 0
 240 294 346 70 564 67 c 1
 737 114 784 257 784 418 c 0
 784 629 668 853 489 853 c 0
 333 853 240 733 240 526 c 0
EndSplineSet
Colour: ffff00
EndChar

StartChar: r.sc
Encoding: 263 -1 236
Width: 1094
VWidth: 1691
Flags: HMW
LayerCount: 2
Fore
SplineSet
37 0 m 1
 48 74 l 1
 195 121 l 1
 195 794 l 1
 44 824 l 1
 54 901 l 1
 191 924 342 947 480 947 c 0
 740 947 881 853 881 688 c 0
 881 568 785 472 686 431 c 1
 686 430 l 1
 780 299 l 2
 848 204 936 116 1025 90 c 2
 1058 80 l 1
 1043 10 l 1
 996 -5 953 -10 913 -10 c 0
 766 -10 647 103 583 274 c 2
 548 368 l 1
 374 368 l 1
 374 126 l 1
 551 83 l 1
 541 0 l 1
 37 0 l 1
374 459 m 1
 573 459 l 1
 637 478 692 546 692 652 c 0
 692 775 607 863 457 863 c 0
 409 863 374 858 374 858 c 1
 374 459 l 1
EndSplineSet
Colour: ffff00
EndChar

StartChar: s.sc
Encoding: 264 -1 237
Width: 714
VWidth: 1691
Flags: HMW
LayerCount: 2
Back
SplineSet
72.5 148.05 m 4
 72.5 218.4 123.95 278.25 211.1 284.55 c 5
 256.25 136.5 329.75 67.2002 409.55 67.2002 c 4
 483.05 67.2002 548.15 95.5501 548.15 173.25 c 4
 548.15 340.2 97.7002 378 97.7002 666.75 c 4
 97.7002 788.55 198.5 945 410.6 945 c 4
 548.15 945 667.85 887.25 667.85 770.7 c 4
 667.85 683.55 612.2 624.75 520.85 618.45 c 5
 513.5 663.6 l 6
 484.1 819 419 856.8 357.05 856.8 c 4
 283.55 856.8 239.45 798 239.45 730.8 c 4
 239.45 534.45 700.4 511.35 700.4 231 c 4
 700.4 75.5999 538.7 -35.7002 377 -35.7002 c 4
 190.1 -35.7002 72.5 53.5498 72.5 148.05 c 4
EndSplineSet
Fore
SplineSet
37 59 m 5
 70 309 l 5
 172 295 l 5
 191 144 l 5
 232 101 265 75 367 75 c 4
 428 75 504 106 504 179 c 4
 504 371 61 365 61 665 c 4
 61 846 223 947 390 947 c 4
 476 947 551 930 614 897 c 5
 614 890 592 635 592 635 c 5
 493 647 l 5
 478 796 l 5
 459 830 414 863 357 863 c 4
 270 863 219 823 219 734 c 4
 219 524 678 518 678 254 c 4
 678 85 520 -24 353 -24 c 4
 187 -24 91 7 37 59 c 5
EndSplineSet
Colour: ffff00
EndChar

StartChar: t.sc
Encoding: 265 -1 238
Width: 936
VWidth: 1691
Flags: HMW
LayerCount: 2
Fore
SplineSet
41 930 m 1
 897 930 l 1
 867 641 l 1
 772 656 l 1
 733 838 l 1
 563 838 l 1
 563 114 l 1
 728 80 l 1
 714 0 l 1
 225 0 l 1
 232 74 l 1
 371 121 l 1
 371 838 l 1
 185 838 l 1
 138 645 l 1
 47 658 l 1
 41 930 l 1
EndSplineSet
Colour: ffff00
EndChar

StartChar: u.sc
Encoding: 266 -1 239
Width: 1142
VWidth: 1691
Flags: HMW
LayerCount: 2
Back
SplineSet
166.5 876 m 5
 176.25 933 l 5
 582.75 933 l 5
 576 876 l 5
 449.25 847.5 l 5
 449.25 382.5 l 6
 449.25 168.75 556.5 78.75 710.25 78.75 c 4
 861.75 78.75 953.25 165.75 954 361.5 c 6
 956.25 844.5 l 5
 819 876 l 5
 826.5 933 l 5
 1185 933 l 5
 1176.75 876 l 5
 1052.25 847.5 l 5
 1048.5 386.25 l 6
 1046.25 116.25 933 -20.25 672.75 -20.25 c 4
 499.5 -20.25 304.5 36 304.5 351.75 c 6
 304.5 844.5 l 5
 166.5 876 l 5
EndSplineSet
Fore
SplineSet
36 854 m 1
 49 929 l 1
 531 929 l 1
 522 854 l 1
 383 816 l 1
 383 360 l 2
 383 170 473 105 602 105 c 0
 742 105 827 154 828 332 c 2
 831 812 l 1
 678 854 l 1
 688 930 l 1
 1106 930 l 1
 1095 854 l 1
 959 816 l 1
 954 365 l 2
 951 78 802 -27 552 -27 c 0
 382 -27 190 30 190 319 c 2
 190 812 l 1
 36 854 l 1
EndSplineSet
Colour: ffff00
EndChar

StartChar: v.sc
Encoding: 267 -1 240
Width: 1082
VWidth: 1691
Flags: HMW
LayerCount: 2
Back
SplineSet
-21 1168 m 5
 -11 1244 l 5
 527 1244 l 5
 517 1168 l 5
 347 1130 l 5
 660 251 l 5
 980 1126 l 5
 798 1168 l 5
 805 1244 l 5
 1260 1244 l 5
 1253 1168 l 5
 1121 1130 l 5
 696 4 l 5
 544 -24 l 5
 126 1126 l 5
 -21 1168 l 5
EndSplineSet
Fore
SplineSet
37 854 m 1
 47 930 l 1
 520 930 l 1
 510 854 l 1
 381 816 l 1
 580 241 l 1
 791 812 l 1
 659 854 l 1
 666 930 l 1
 1043 930 l 1
 1036 854 l 1
 932 816 l 1
 616 4 l 1
 464 -24 l 1
 160 812 l 1
 37 854 l 1
EndSplineSet
Colour: ffff00
EndChar

StartChar: w.sc
Encoding: 268 -1 241
Width: 1523
VWidth: 1691
Flags: HMW
LayerCount: 2
Back
SplineSet
-11 1168 m 1
 -2 1244 l 1
 512 1244 l 1
 497 1168 l 1
 330 1130 l 1
 572 271 l 1
 853 1194 l 1
 1029 1219 l 1
 1277 287 l 1
 1538 1126 l 1
 1357 1168 l 1
 1368 1244 l 1
 1817 1244 l 1
 1806 1168 l 1
 1683 1130 l 1
 1318 4 l 1
 1164 -24 l 1
 902 951 l 1
 617 4 l 1
 454 -24 l 1
 129 1126 l 1
 -11 1168 l 1
EndSplineSet
Fore
SplineSet
37 854 m 1
 46 930 l 1
 530 930 l 1
 515 854 l 1
 368 816 l 1
 522 271 l 1
 703 880 l 1
 879 905 l 1
 1045 287 l 1
 1207 812 l 1
 1056 854 l 1
 1067 930 l 1
 1486 930 l 1
 1475 854 l 1
 1352 816 l 1
 1086 4 l 1
 932 -24 l 1
 752 637 l 1
 567 4 l 1
 404 -24 l 1
 167 812 l 1
 37 854 l 1
EndSplineSet
Colour: ffff00
EndChar

StartChar: x.sc
Encoding: 269 -1 242
Width: 1021
VWidth: 1691
Flags: HMW
LayerCount: 2
Back
SplineSet
-1 0 m 5
 11 76 l 5
 138 121 l 5
 504 615 l 5
 165 1123 l 5
 28 1166 l 5
 40 1244 l 5
 553 1244 l 5
 543 1166 l 5
 386 1121 l 5
 633 750 l 5
 904 1126 l 5
 734 1166 l 5
 747 1244 l 5
 1182 1244 l 5
 1174 1168 l 5
 1047 1130 l 5
 709 657 l 5
 1050 114 l 5
 1185 80 l 5
 1172 0 l 5
 669 0 l 5
 682 74 l 5
 842 121 l 5
 580 529 l 5
 288 117 l 5
 454 83 l 5
 439 0 l 5
 -1 0 l 5
-1 0 m 1
 11 76 l 1
 138 121 l 1
 504 615 l 1
 165 1123 l 1
 28 1166 l 1
 40 1244 l 1
 553 1244 l 1
 543 1166 l 1
 386 1121 l 1
 633 750 l 1
 904 1126 l 1
 734 1166 l 1
 747 1244 l 1
 1182 1244 l 1
 1174 1168 l 1
 1047 1130 l 1
 709 657 l 1
 1050 114 l 1
 1185 80 l 1
 1172 0 l 1
 669 0 l 1
 682 74 l 1
 842 121 l 1
 580 529 l 1
 288 117 l 1
 454 83 l 1
 439 0 l 1
 -1 0 l 1
EndSplineSet
Fore
SplineSet
37 0 m 1
 49 76 l 1
 166 121 l 1
 412 449 l 1
 173 809 l 1
 46 852 l 1
 58 930 l 1
 511 930 l 1
 501 852 l 1
 387 817 l 1
 541 584 l 1
 702 812 l 1
 582 852 l 1
 595 930 l 1
 970 930 l 1
 962 854 l 1
 845 816 l 1
 617 491 l 1
 858 114 l 1
 983 80 l 1
 970 0 l 1
 537 0 l 1
 550 74 l 1
 650 111 l 1
 488 363 l 1
 316 117 l 1
 442 83 l 1
 427 0 l 1
 37 0 l 1
EndSplineSet
Colour: ffff00
EndChar

StartChar: y.sc
Encoding: 270 -1 243
Width: 1001
VWidth: 1691
Flags: HMW
LayerCount: 2
Back
SplineSet
-21 1024 m 5
 -8 1100 l 5
 500 1100 l 5
 488 1024 l 5
 330 986 l 5
 607 496 l 5
 871 982 l 5
 688 1024 l 5
 698 1100 l 5
 1143 1100 l 5
 1133 1024 l 5
 1008 986 l 5
 663 385 l 5
 663 284.4 l 5
 826 250.4 l 5
 816 170.4 l 5
 310 170.4 l 5
 320 244.4 l 5
 470 291.4 l 5
 470 360 l 5
 117 982 l 5
 -21 1024 l 5
EndSplineSet
Fore
SplineSet
37 854 m 1
 50 930 l 1
 508 930 l 1
 496 854 l 1
 378 816 l 1
 554 493 l 1
 722 812 l 1
 599 854 l 1
 609 930 l 1
 964 930 l 1
 954 854 l 1
 859 816 l 1
 611 385 l 1
 611 114 l 1
 762 80 l 5
 752 0 l 5
 268 0 l 1
 278 74 l 1
 418 121 l 1
 418 360 l 1
 165 812 l 1
 37 854 l 1
EndSplineSet
Colour: ffff00
EndChar

StartChar: z.sc
Encoding: 271 -1 244
Width: 899
VWidth: 1691
Flags: HMW
LayerCount: 2
Back
SplineSet
47 104 m 5
 792 1149 l 5
 255 1149 l 5
 178 903 l 5
 88 921 l 5
 98 1244 l 5
 1026 1244 l 5
 1026 1168 l 5
 262 100 l 5
 832 100 l 5
 955 351 l 5
 1048 335 l 5
 991 0 l 5
 55 0 l 5
 47 104 l 5
EndSplineSet
Fore
SplineSet
37 104 m 1
 601 835 l 1
 244 835 l 1
 178 639 l 1
 78 657 l 1
 87 930 l 1
 841 930 l 1
 841 854 l 1
 258 100 l 1
 669 100 l 1
 768 301 l 1
 863 285 l 1
 826 0 l 1
 45 0 l 1
 37 104 l 1
EndSplineSet
Colour: ffff00
EndChar

StartChar: ae.sc
Encoding: 272 -1 245
Width: 1452
VWidth: 0
Flags: HMW
LayerCount: 2
Back
SplineSet
115.25 0.75 m 5
 122 57 l 5
 224 98.25 l 5
 698.75 844.5 l 5
 538.25 876 l 5
 545.75 933 l 5
 1342.25 933 l 5
 1318.25 695.25 l 5
 1253.75 705 l 5
 1222.25 864 l 5
 893.75 864 l 5
 893.75 509.25 l 5
 1088 509.25 l 5
 1119.5 601.5 l 5
 1190.75 607.5 l 5
 1165.25 318 l 5
 1101.5 306.75 l 5
 1076 439.5 l 5
 893.75 439.5 l 5
 893.75 72 l 5
 1241.75 72 l 5
 1317.5 246.75 l 5
 1377.5 234.75 l 5
 1355 0 l 5
 626.75 0 l 5
 632.75 55.5 l 5
 758 90.75 l 5
 758 354 l 5
 488.75 354 l 5
 325.25 94.5 l 5
 466.25 62.25 l 5
 456.5 0.75 l 5
 115.25 0.75 l 5
527.75 426 m 5
 758 426 l 5
 758 793.5 l 5
 527.75 426 l 5
EndSplineSet
Fore
SplineSet
332 126 m 1
 480 83 l 1
 467 1 l 1
 52 1 l 1
 61 76 l 1
 197 131 l 1
 654 812 l 1
 450 851 l 1
 460 927 l 1
 1373 927 l 1
 1352 654 l 1
 1253 667 l 1
 1222 835 l 1
 921 835 l 1
 921 503 l 1
 1098 503 l 1
 1120 583 l 1
 1218 597 l 1
 1184 298 l 1
 1093 285 l 1
 1082 410 l 1
 921 410 l 1
 921 96 l 1
 1256 96 l 1
 1323 276 l 1
 1417 263 l 1
 1397 0 l 1
 588 0 l 1
 596 74 l 1
 733 121 l 1
 733 327 l 1
 460 327 l 1
 332 126 l 1
522 423 m 1
 733 423 l 1
 733 754 l 1
 522 423 l 1
EndSplineSet
Colour: ffff00
EndChar

StartChar: eth.sc
Encoding: 273 -1 246
Width: 1034
VWidth: 0
Flags: HMW
LayerCount: 2
Fore
SplineSet
83 393 m 1
 94 485 l 1
 632 521 l 1
 620 430 l 1
 83 393 l 1
77 0 m 1
 91 74 l 1
 233 129 l 1
 233 790 l 1
 81 820 l 1
 90 896 l 1
 256 927 401 945 523 945 c 0
 944 945 1063 727 1063 498 c 0
 1063 230 849 0 451 0 c 2
 77 0 l 1
424 104 m 1
 479 104 l 2
 732 104 852 245 852 463 c 0
 852 708 732 842 486 842 c 0
 466 842 444 842 424 838 c 1
 424 104 l 1
EndSplineSet
Colour: ffff00
EndChar

StartChar: thorn.sc
Encoding: 274 -1 247
Width: 977
VWidth: 1691
Flags: HMW
LayerCount: 2
Fore
SplineSet
80 854 m 1
 91 930 l 1
 174 930 426 930 582 930 c 1
 572 854 l 1
 426 816 l 1
 426 114 l 1
 577 80 l 1
 567 0 l 1
 87 0 l 1
 95 74 l 1
 232 121 l 1
 232 812 l 1
 80 854 l 1
341 759 m 1
 400 765 462 769 523 769 c 0
 728 769 918 716 918 496 c 0
 918 286 698 173 474 181 c 1
 456 263 l 1
 509 265 l 2
 638 270 717 348 717 470 c 0
 717 587 652 686 482 686 c 0
 458 686 420 682 420 682 c 1
 341 759 l 1
EndSplineSet
Colour: ffff00
EndChar

StartChar: germandbls.sc
Encoding: 275 -1 248
Width: 1102
VWidth: 1691
Flags: HMW
LayerCount: 2
Back
SplineSet
437 59 m 1
 470 309 l 1
 572 295 l 1
 591 144 l 1
 632 101 665 75 767 75 c 0
 827.696 75 904 105.705 904 179 c 0
 904 371 461 364.638 461 665.1 c 0
 461 846.442 623.386 947.1 790 947.1 c 0
 875.787 947.1 951.248 930.1 1014 897.1 c 1
 1014 889.667 992 635.1 992 635.1 c 1
 893 647.1 l 1
 878 796.1 l 1
 859.121 830 813.941 863.1 757 863.1 c 0
 670.292 863.1 619 823.042 619 734.1 c 0
 619 524 1078 518 1078 254 c 0
 1078 84.8467 919.517 -24 753 -24 c 0
 587 -24 491 7.23633 437 59 c 1
EndSplineSet
Fore
SplineSet
746 843 m 4
 853 843 899 732 925 634 c 5
 1003 660 1046 693 1046 769 c 4
 1046 914 805 949 653 949 c 4
 351 949 152 830 152 548 c 6
 152 110 l 5
 18 73 l 5
 10 0 l 5
 341 0 l 5
 341 571 l 6
 341 780 419 872 594 872 c 4
 608 872 622 871 637 870 c 5
 635 867 l 4
 550 842 467 767 467 641 c 4
 467 371 910 347 910 179 c 4
 910 106 834 75 773 75 c 4
 671 75 638 101 597 144 c 5
 578 295 l 5
 476 309 l 5
 443 59 l 5
 497 7 593 -24 759 -24 c 4
 926 -24 1084 81 1084 244 c 4
 1084 495 625 514 625 724 c 4
 625 809 685 843 746 843 c 4
EndSplineSet
AlternateSubs2: "Alternate Substitution in Latin lookup 0-1" germandbls.sc.alt
Colour: ffff00
EndChar

StartChar: germandbls.sc.alt
Encoding: 276 -1 249
Width: 1063
VWidth: 1691
Flags: HMW
LayerCount: 2
Back
SplineSet
736 843 m 0
 845.623 843 892.478 731.873 919 634 c 1
 992 657.913 1032 688.348 1032 759 c 0
 1032 912.462 793.177 949 643 949 c 0
 340.972 949 142 830 142 548 c 6
 142 110 l 5
 8 73 l 5
 0 0 l 5
 331 0 l 5
 331 571 l 6
 331 780.295 409.525 872.121 584.171 872.121 c 0
 597.781 872.121 612.054 871.408 627 870 c 1
 625 867 l 0
 548 854.502 457 757.645 457 641 c 0
 457 371 900 347 900 179 c 0
 900 106 824 75 763 75 c 0
 661 75 628 101 587 144 c 1
 568 295 l 1
 466 309 l 1
 433 59 l 1
 487 7 583 -24 749 -24 c 0
 916 -24 1074 81 1074 244 c 0
 1074 495 615 514 615 724 c 0
 615 809 674.901 843 736 843 c 0
EndSplineSet
Fore
SplineSet
739 560 m 9
 993 847 l 1
 992 921 l 1
 917 935 749 949 593 949 c 0
 321 949 142 830 142 548 c 2
 142 110 l 1
 8 73 l 1
 0 0 l 1
 331 0 l 1
 331 571 l 2
 331 780 394 872 534 872 c 0
 620 872 707 871 805 828 c 1
 805 823 l 1
 517 509 l 1
 540 461 l 1
 740 352 905 283 905 185 c 0
 905 116 850 75 753 75 c 0
 657 75 626 101 587 144 c 1
 568 295 l 1
 466 309 l 1
 433 59 l 1
 485 7 578 -24 739 -24 c 0
 905 -24 1069 76 1069 230 c 0
 1069 397 944 445 739 560 c 9
EndSplineSet
Colour: ffff00
EndChar

StartChar: euro.osf
Encoding: 277 -1 250
Width: 1161
VWidth: 0
Flags: HMW
LayerCount: 2
Back
SplineSet
110 439 m 0
 110 659.425 251 947.1 594 947.1 c 0
 696.829 947.1 801.215 929.01 876 880.1 c 5
 855 602.1 l 5
 757 615.1 l 5
 735 775.1 l 5
 711 814 670 852.1 557 852.1 c 0
 403 852.1 304 718.969 304 498 c 0
 304 242.04 464 108 610 108 c 0
 747 108 813.657 147.287 880 191 c 1
 915 115 l 1
 851.39 51.1531 744 -24 543 -24 c 0
 317.693 -24 110 137.635 110 439 c 0
EndSplineSet
Fore
SplineSet
735 775 m 1
 715 816 669 852 568 852 c 0
 423 852 352 744 352 463 c 3
 352 222 494 103 635 103 c 0
 780 103 851 161 886 197 c 1
 929 120 l 1
 905 75 794 -24 586 -24 c 0
 324 -24 140 130 140 432 c 0
 140 709 330 947 638 947 c 0
 795 947 876 880 876 880 c 1
 855 602 l 1
 757 615 l 1
 735 775 l 1
11 312 m 1
 21 411 l 1
 626 411 l 1
 605 312 l 1
 11 312 l 1
11 487 m 1
 20 586 l 1
 665 586 l 1
 644 487 l 1
 11 487 l 1
EndSplineSet
Colour: ffff00
EndChar

StartChar: ampersand.sc
Encoding: 278 -1 251
Width: 1281
VWidth: 0
Flags: HMW
LayerCount: 2
Fore
SplineSet
147 182 m 0
 147 462 594 483 594 720 c 0
 594 822 544 864 487 864 c 0
 444 864 407 811 407 752 c 0
 407 701 423 658 493 571 c 2
 779 256 l 2
 886 138 975 100 1043 81 c 2
 1076 71 l 1
 1062 2 l 1
 1025 -11 986 -18 943 -18 c 0
 826 -18 719 68 662 131 c 2
 326 507 l 2
 284 561 245 631 245 703 c 0
 245 826 366 947 507 947 c 0
 650 947 740 864 740 753 c 0
 740 463 335 491 335 216 c 0
 335 163 387 99 457 99 c 0
 591 99 700 192 836 497 c 1
 722 539 l 1
 732 607 l 1
 1106 607 l 1
 1096 539 l 1
 946 500 l 1
 773 182 668 -19 396 -19 c 0
 243 -19 147 63 147 182 c 0
EndSplineSet
Colour: ffff00
EndChar

StartChar: dollar.osf
Encoding: 279 -1 252
Width: 859
VWidth: 0
Flags: HMW
LayerCount: 2
Fore
SplineSet
50 141 m 0
 50 208 99 265 182 271 c 1
 225 130 295 64 371 64 c 0
 441 64 503 91 503 165 c 0
 503 324 74 354 74 624 c 0
 74 740 170 900 372 900 c 0
 503 900 617 845 617 734 c 0
 617 651 564 595 477 589 c 1
 470 632 l 2
 442 780 380 816 321 816 c 0
 251 816 209 760 209 696 c 0
 209 509 648 487 648 220 c 0
 648 72 494 -34 340 -34 c 0
 162 -34 50 51 50 141 c 0
298 -197 m 1
 315 -15 l 1
 421 -6 l 1
 437 -179 l 1
 298 -197 l 1
305 1041 m 1
 437 1058 l 1
 421 889 l 1
 321 889 l 1
 305 1041 l 1
EndSplineSet
Colour: ffff00
EndChar

StartChar: paragraph.sc
Encoding: 280 -1 253
Width: 1289
VWidth: 0
Flags: HMW
LayerCount: 2
Fore
SplineSet
164 593 m 0
 164 816 366 930 601 930 c 2
 841 930 l 1
 841 0 l 1
 467 0 l 1
 474 74 l 1
 683 121 l 1
 683 838 l 1
 643 839 611 840 601 840 c 0
 493 840 365 801 365 629 c 0
 365 489 439 395 605 389 c 9
 587 291 l 1
 339 291 164 381 164 593 c 0
920 0 m 1
 920 930 l 1
 1211 930 l 1
 1201 853 l 1
 1061 815 l 1
 1061 114 l 1
 1212 80 l 1
 1202 0 l 1
 920 0 l 1
EndSplineSet
Colour: ffff00
EndChar

StartChar: percent.osf
Encoding: 281 -1 254
Width: 1046
VWidth: 0
Flags: HMW
LayerCount: 2
Fore
SplineSet
-35 683 m 0
 -35 826 99 934 210 934 c 0
 226 934 231 933 236 931 c 1
 245 862 l 17
 232 868 221 873 204 873 c 0
 133 873 114 775 114 683 c 0
 114 590 139 499 206 499 c 0
 282 499 300 587 300 683 c 0
 300 804 284 870 266 922 c 9
 816 932 l 25
 825 844 l 25
 381 859 l 17
 426 818 449 723 449 683 c 0
 449 537 311 431 206 431 c 0
 92 431 -35 521 -35 683 c 0
46 -9 m 1
 434 440 l 1
 816 932 l 1
 989 929 l 1
 988 904 l 1
 597 443 l 1
 241 -27 l 1
 46 -9 l 1
590 220 m 0
 590 363 723 470 834 470 c 0
 961 470 1071 369 1071 217 c 0
 1071 74 940 -30 835 -30 c 0
 721 -30 590 58 590 220 c 0
739 220 m 0
 739 127 768 39 835 39 c 0
 911 39 927 126 927 222 c 0
 927 318 903 411 834 411 c 0
 758 411 739 312 739 220 c 0
EndSplineSet
Colour: ffff00
EndChar

StartChar: sterling.osf
Encoding: 282 -1 255
Width: 1283
VWidth: 0
Flags: HMW
LayerCount: 2
Fore
SplineSet
110 0 m 1
 116 74 l 1
 284 113 l 1
 314 174 324 253 324 334 c 2
 324 406 l 1
 146 396 l 1
 158 488 l 1
 328 498 l 1
 330 611 l 2
 336 834 467 949 682 948 c 0
 871 947 963 880 963 771 c 0
 963 693 880 652 814 647 c 1
 792 796 752 863 664 863 c 0
 529 863 514 791 514 560 c 2
 514 506 l 1
 751 520 l 1
 741 429 l 1
 512 412 l 1
 512 388 l 2
 512 258 493 153 448 98 c 1
 821 98 l 1
 928 334 l 1
 1010 313 l 1
 985 0 l 1
 110 0 l 1
EndSplineSet
Colour: ffff00
EndChar

StartChar: yen.osf
Encoding: 283 -1 256
Width: 1170
VWidth: 0
Flags: HMW
LayerCount: 2
Fore
SplineSet
157 854 m 1
 170 930 l 1
 610 930 l 1
 599 854 l 1
 486 816 l 1
 652 420 l 1
 836 813 l 1
 699 854 l 1
 709 930 l 1
 1085 930 l 1
 1075 854 l 1
 952 816 l 1
 740 393 l 1
 1041 393 l 1
 1030 295 l 1
 713 295 l 1
 713 113 l 1
 877 78 l 1
 867 0 l 1
 367 0 l 1
 377 71 l 1
 526 119 l 1
 526 295 l 1
 219 295 l 1
 232 393 l 1
 499 393 l 1
 293 813 l 1
 157 854 l 1
219 498 m 1
 232 596 l 1
 515 596 l 9
 554 498 l 17
 219 498 l 1
721 498 m 9
 764 596 l 17
 1041 596 l 1
 1030 498 l 1
 721 498 l 9
EndSplineSet
Colour: ffff00
EndChar

StartChar: oslash.sc
Encoding: 284 -1 257
Width: 933
VWidth: 0
Flags: HMW
LayerCount: 2
Fore
SplineSet
16 458 m 0
 16 746 207 947 516 947 c 0
 802 947 973 721 973 458 c 0
 973 199 791 -27 466 -27 c 0
 196 -27 16 186 16 458 c 0
223 515 m 0
 223 300 304 79 506 79 c 0
 711 79 759 248 759 412 c 0
 759 618 678 851 478 851 c 0
 274 851 223 690 223 515 c 0
24 -46 m 1
 180 141 l 1
 228 157 l 1
 729 777 l 1
 727 815 l 1
 828 947 l 1
 983 954 l 1
 832 755 l 1
 773 720 l 1
 274 109 l 1
 279 78 l 1
 187 -41 l 1
 24 -46 l 1
EndSplineSet
Colour: ffff00
EndChar

StartChar: numbersign.osf
Encoding: 285 -1 258
Width: 859
VWidth: 0
Flags: HMW
LayerCount: 2
Back
SplineSet
179.24 -21.3203 m 13
 324.38 942.18 l 21
 411.3 950.38 l 13
 266.98 -15.5801 l 21
 179.24 -21.3203 l 13
70.1797 583.02 m 21
 98.0596 685.52 l 13
 843.44 685.52 l 21
 818.02 583.02 l 13
 70.1797 583.02 l 21
11.96 267.32 m 5
 39.0195 369.82 l 13
 781.94 369.82 l 21
 756.52 267.32 l 5
 11.96 267.32 l 5
437.54 -21.3203 m 13
 581.86 942.18 l 21
 670.42 949.56 l 13
 525.28 -15.5801 l 21
 437.54 -21.3203 l 13
EndSplineSet
Fore
SplineSet
168 -26 m 9
 315 941 l 17
 426 951 l 9
 280 -19 l 17
 168 -26 l 9
63 561 m 17
 97 686 l 9
 846 686 l 17
 815 561 l 9
 63 561 l 17
10 243 m 1
 43 368 l 9
 789 368 l 17
 758 243 l 1
 10 243 l 1
443 -26 m 9
 589 941 l 17
 700 950 l 9
 553 -19 l 17
 443 -26 l 9
EndSplineSet
Colour: ffff00
EndChar

StartChar: agrave.sc
Encoding: 286 -1 259
Width: 1037
VWidth: 0
Flags: HMW
LayerCount: 2
Fore
SplineSet
702 310 m 17
 313 310 l 9
 351 412 l 17
 673 412 l 9
 702 310 l 17
711 121 m 9
 503 730 l 25
 281 124 l 17
 427 80 l 1
 416 0 l 1
 18 0 l 1
 27 74 l 1
 146 129 l 1
 470 917 l 1
 621 948 l 1
 915 124 l 1
 1022 80 l 1
 1013 0 l 1
 568 0 l 1
 580 74 l 1
 711 121 l 9
343 1350 m 1
 458 1388 l 1
 590 1055 l 1
 534 1020 l 1
 343 1350 l 1
EndSplineSet
EndChar

StartChar: aacute.sc
Encoding: 287 -1 260
Width: 1077
VWidth: 0
Flags: HMW
LayerCount: 2
Fore
SplineSet
721 310 m 17
 332 310 l 9
 370 412 l 17
 692 412 l 9
 721 310 l 17
730 121 m 9
 522 730 l 25
 300 124 l 17
 446 80 l 1
 435 0 l 1
 37 0 l 1
 46 74 l 1
 165 129 l 1
 489 917 l 1
 640 948 l 1
 934 124 l 1
 1041 80 l 1
 1032 0 l 1
 587 0 l 1
 599 74 l 1
 730 121 l 9
514 1053 m 1
 637 1378 l 1
 748 1339 l 5
 565 1021 l 1
 514 1053 l 1
EndSplineSet
EndChar

StartChar: acircumflex.sc
Encoding: 288 -1 261
Width: 1077
VWidth: 0
Flags: HMW
LayerCount: 2
Fore
SplineSet
721 310 m 17
 332 310 l 9
 370 412 l 17
 692 412 l 9
 721 310 l 17
730 121 m 9
 522 730 l 25
 300 124 l 17
 446 80 l 1
 435 0 l 1
 37 0 l 1
 46 74 l 1
 165 129 l 1
 489 917 l 1
 640 948 l 1
 934 124 l 1
 1041 80 l 1
 1032 0 l 1
 587 0 l 1
 599 74 l 1
 730 121 l 9
368 1058 m 1
 536 1237 l 1
 592 1252 l 1
 770 1066 l 1
 720 1029 l 1
 558 1139 l 1
 546 1139 l 1
 408 1028 l 1
 368 1058 l 1
EndSplineSet
EndChar

StartChar: atilde.sc
Encoding: 289 -1 262
Width: 1077
VWidth: 0
Flags: HMW
LayerCount: 2
Fore
SplineSet
721 310 m 17
 332 310 l 9
 370 412 l 17
 692 412 l 9
 721 310 l 17
730 121 m 9
 522 730 l 25
 300 124 l 17
 446 80 l 1
 435 0 l 1
 37 0 l 1
 46 74 l 1
 165 129 l 1
 489 917 l 1
 640 948 l 1
 934 124 l 1
 1041 80 l 1
 1032 0 l 1
 587 0 l 1
 599 74 l 1
 730 121 l 9
348 1032 m 2
 348 1032 388 1186 484 1174 c 2
 710 1145 l 2
 735 1142 766 1185 766 1185 c 1
 816 1183 l 2
 816 1183 769 1027 672 1040 c 2
 446 1072 l 2
 418 1076 388 1023 388 1023 c 1
 348 1032 l 2
EndSplineSet
EndChar

StartChar: adieresis.sc
Encoding: 290 -1 263
Width: 1077
VWidth: 0
Flags: HMW
LayerCount: 2
Fore
SplineSet
721 310 m 17
 332 310 l 9
 370 412 l 17
 692 412 l 9
 721 310 l 17
730 121 m 9
 522 730 l 25
 300 124 l 17
 446 80 l 1
 435 0 l 1
 37 0 l 1
 46 74 l 1
 165 129 l 1
 489 917 l 1
 640 948 l 1
 934 124 l 1
 1041 80 l 1
 1032 0 l 1
 587 0 l 1
 599 74 l 1
 730 121 l 9
344 1109 m 0
 344 1156 389 1186 429 1186 c 0
 473 1186 515 1155 515 1109 c 0
 515 1060 473 1027 429 1027 c 0
 386 1027 344 1060 344 1109 c 0
612 1109 m 0
 612 1156 657 1186 697 1186 c 0
 741 1186 784 1155 784 1109 c 0
 784 1060 741 1027 697 1027 c 0
 654 1027 612 1060 612 1109 c 0
EndSplineSet
EndChar

StartChar: aring.sc
Encoding: 291 -1 264
Width: 1077
VWidth: 0
Flags: HMW
LayerCount: 2
Fore
SplineSet
721 310 m 17
 332 310 l 9
 370 412 l 17
 692 412 l 9
 721 310 l 17
730 121 m 9
 522 730 l 25
 300 124 l 17
 446 80 l 1
 435 0 l 1
 37 0 l 1
 46 74 l 1
 165 129 l 1
 489 917 l 1
 640 948 l 1
 934 124 l 1
 1041 80 l 1
 1032 0 l 1
 587 0 l 1
 599 74 l 1
 730 121 l 9
402 1173 m 0
 402 1265 477 1345 570 1345 c 0
 666 1345 726 1275 726 1182 c 0
 726 1092 658 1007 556 1007 c 0
 464 1007 402 1071 402 1173 c 0
474 1184 m 0
 474 1123 504 1056 568 1056 c 0
 622 1056 654 1097 654 1170 c 0
 654 1232 620 1296 558 1296 c 0
 499 1296 474 1240 474 1184 c 0
EndSplineSet
EndChar

StartChar: ccedilla.sc
Encoding: 292 -1 265
Width: 879
VWidth: 0
Flags: HMW
LayerCount: 2
Fore
SplineSet
39 439 m 4
 39 659 180 947 523 947 c 4
 626 947 730 929 805 880 c 5
 784 602 l 5
 686 615 l 5
 664 775 l 5
 640 814 599 852 486 852 c 4
 332 852 233 719 233 498 c 4
 233 242 393 108 539 108 c 4
 676 108 743 147 809 191 c 5
 844 115 l 5
 780 51 673 -24 472 -24 c 4
 247 -24 39 138 39 439 c 4
390 -335 m 1
 447 -316 476 -282 476 -252 c 0
 476 -218 438 -176 402 -142 c 1
 500 -1 l 1
 574 -1 l 1
 521 -80 l 1
 558 -113 610 -164 610 -231 c 0
 610 -310 525 -359 409 -393 c 1
 390 -335 l 1
EndSplineSet
EndChar

StartChar: egrave.sc
Encoding: 293 -1 266
Width: 802
VWidth: 0
Flags: HMW
LayerCount: 2
Fore
SplineSet
29 851 m 5
 40 927 l 5
 837 927 l 5
 816 654 l 5
 717 667 l 5
 686 835 l 5
 375 835 l 5
 375 503 l 5
 552 503 l 5
 574 583 l 5
 672 597 l 5
 638 298 l 5
 547 285 l 5
 536 410 l 5
 375 410 l 5
 375 96 l 5
 720 96 l 5
 787 276 l 5
 881 263 l 5
 861 0 l 5
 36 0 l 5
 44 74 l 5
 181 121 l 5
 181 809 l 5
 29 851 l 5
275 1341 m 1
 390 1379 l 1
 522 1046 l 1
 466 1011 l 1
 275 1341 l 1
EndSplineSet
EndChar

StartChar: eacute.sc
Encoding: 294 -1 267
Width: 802
VWidth: 0
Flags: HMW
LayerCount: 2
Fore
SplineSet
29 851 m 5
 40 927 l 5
 837 927 l 5
 816 654 l 5
 717 667 l 5
 686 835 l 5
 375 835 l 5
 375 503 l 5
 552 503 l 5
 574 583 l 5
 672 597 l 5
 638 298 l 5
 547 285 l 5
 536 410 l 5
 375 410 l 5
 375 96 l 5
 720 96 l 5
 787 276 l 5
 881 263 l 5
 861 0 l 5
 36 0 l 5
 44 74 l 5
 181 121 l 5
 181 809 l 5
 29 851 l 5
413 1051 m 1
 536 1376 l 1
 647 1337 l 5
 464 1019 l 1
 413 1051 l 1
EndSplineSet
EndChar

StartChar: ecircumflex.sc
Encoding: 295 -1 268
Width: 925
VWidth: 0
Flags: HMW
LayerCount: 2
Fore
SplineSet
37 851 m 5
 48 927 l 5
 845 927 l 5
 824 654 l 5
 725 667 l 5
 694 835 l 5
 383 835 l 5
 383 503 l 5
 560 503 l 5
 582 583 l 5
 680 597 l 5
 646 298 l 5
 555 285 l 5
 544 410 l 5
 383 410 l 5
 383 96 l 5
 728 96 l 5
 795 276 l 5
 889 263 l 5
 869 0 l 5
 44 0 l 5
 52 74 l 5
 189 121 l 5
 189 809 l 5
 37 851 l 5
285 1056 m 1
 453 1235 l 1
 508 1250 l 1
 686 1064 l 1
 637 1027 l 1
 474 1137 l 1
 463 1137 l 1
 324 1026 l 1
 285 1056 l 1
EndSplineSet
EndChar

StartChar: edieresis.sc
Encoding: 296 -1 269
Width: 925
VWidth: 0
Flags: HMW
LayerCount: 2
Fore
SplineSet
37 851 m 5
 48 927 l 5
 845 927 l 5
 824 654 l 5
 725 667 l 5
 694 835 l 5
 383 835 l 5
 383 503 l 5
 560 503 l 5
 582 583 l 5
 680 597 l 5
 646 298 l 5
 555 285 l 5
 544 410 l 5
 383 410 l 5
 383 96 l 5
 728 96 l 5
 795 276 l 5
 889 263 l 5
 869 0 l 5
 44 0 l 5
 52 74 l 5
 189 121 l 5
 189 809 l 5
 37 851 l 5
256 1106 m 0
 256 1153 300 1183 340 1183 c 0
 384 1183 426 1152 426 1106 c 0
 426 1057 384 1024 340 1024 c 0
 297 1024 256 1057 256 1106 c 0
524 1106 m 0
 524 1153 568 1183 608 1183 c 0
 652 1183 696 1152 696 1106 c 0
 696 1057 652 1024 608 1024 c 0
 565 1024 524 1057 524 1106 c 0
EndSplineSet
EndChar

StartChar: igrave.sc
Encoding: 297 -1 270
Width: 574
VWidth: 0
Flags: HMW
LayerCount: 2
Fore
SplineSet
37 854 m 5
 48 930 l 5
 129 930 379 930 532 930 c 5
 522 854 l 5
 383 816 l 5
 383 114 l 5
 534 80 l 5
 524 0 l 5
 44 0 l 5
 52 74 l 5
 189 121 l 5
 189 812 l 5
 37 854 l 5
102 1340 m 1
 217 1378 l 1
 349 1045 l 1
 293 1010 l 1
 102 1340 l 1
EndSplineSet
EndChar

StartChar: iacute.sc
Encoding: 298 -1 271
Width: 574
VWidth: 0
Flags: HMW
LayerCount: 2
Fore
SplineSet
37 854 m 5
 48 930 l 5
 129 930 379 930 532 930 c 5
 522 854 l 5
 383 816 l 5
 383 114 l 5
 534 80 l 5
 524 0 l 5
 44 0 l 5
 52 74 l 5
 189 121 l 5
 189 812 l 5
 37 854 l 5
207 1055 m 1
 330 1380 l 1
 441 1341 l 5
 258 1023 l 1
 207 1055 l 1
EndSplineSet
EndChar

StartChar: icircumflex.sc
Encoding: 299 -1 272
Width: 574
VWidth: 0
Flags: HMW
LayerCount: 2
Fore
SplineSet
37 854 m 5
 48 930 l 5
 129 930 379 930 532 930 c 5
 522 854 l 5
 383 816 l 5
 383 114 l 5
 534 80 l 5
 524 0 l 5
 44 0 l 5
 52 74 l 5
 189 121 l 5
 189 812 l 5
 37 854 l 5
90 1057 m 1
 258 1236 l 1
 312 1251 l 1
 490 1065 l 1
 442 1028 l 1
 278 1138 l 1
 268 1138 l 1
 128 1027 l 1
 90 1057 l 1
EndSplineSet
EndChar

StartChar: idieresis.sc
Encoding: 300 -1 273
Width: 574
VWidth: 0
Flags: HMW
LayerCount: 2
Fore
SplineSet
37 854 m 5
 48 930 l 5
 129 930 379 930 532 930 c 5
 522 854 l 5
 383 816 l 5
 383 114 l 5
 534 80 l 5
 524 0 l 5
 44 0 l 5
 52 74 l 5
 189 121 l 5
 189 812 l 5
 37 854 l 5
77 1109 m 0
 77 1156 122 1186 162 1186 c 0
 206 1186 248 1155 248 1109 c 0
 248 1060 206 1027 162 1027 c 0
 119 1027 77 1060 77 1109 c 0
345 1109 m 0
 345 1156 390 1186 430 1186 c 0
 474 1186 517 1155 517 1109 c 0
 517 1060 474 1027 430 1027 c 0
 387 1027 345 1060 345 1109 c 0
EndSplineSet
EndChar

StartChar: ntilde.sc
Encoding: 301 -1 274
Width: 1120
VWidth: 0
Flags: HMW
LayerCount: 2
Fore
SplineSet
37 854 m 5
 48 930 l 5
 358 930 l 5
 831 275 l 5
 831 812 l 5
 679 854 l 5
 691 930 l 5
 1133 930 l 5
 1120 854 l 5
 953 816 l 5
 953 11 l 5
 800 -20 l 5
 317 647 l 5
 317 114 l 5
 471 80 l 5
 460 0 l 5
 44 0 l 5
 52 74 l 5
 189 121 l 5
 189 803 l 5
 37 854 l 5
328 1048 m 2
 328 1048 368 1202 464 1190 c 2
 690 1161 l 2
 715 1158 746 1201 746 1201 c 1
 794 1199 l 2
 794 1199 747 1043 650 1056 c 2
 426 1088 l 2
 398 1092 366 1039 366 1039 c 1
 328 1048 l 2
EndSplineSet
EndChar

StartChar: ograve.sc
Encoding: 302 -1 275
Width: 1034
VWidth: 0
Flags: HMW
LayerCount: 2
Fore
SplineSet
38 458 m 4
 38 746 229 947 538 947 c 4
 824 947 995 721 995 458 c 4
 995 199 813 -27 488 -27 c 4
 218 -27 38 186 38 458 c 4
245 515 m 4
 245 300 326 79 528 79 c 4
 733 79 781 248 781 412 c 4
 781 618 700 851 500 851 c 4
 296 851 245 690 245 515 c 4
325 1346 m 1
 440 1384 l 1
 572 1051 l 1
 516 1016 l 1
 325 1346 l 1
EndSplineSet
EndChar

StartChar: oacute.sc
Encoding: 303 -1 276
Width: 1034
VWidth: 0
Flags: HMW
LayerCount: 2
Fore
SplineSet
38 458 m 4
 38 746 229 947 538 947 c 4
 824 947 995 721 995 458 c 4
 995 199 813 -27 488 -27 c 4
 218 -27 38 186 38 458 c 4
245 515 m 4
 245 300 326 79 528 79 c 4
 733 79 781 248 781 412 c 4
 781 618 700 851 500 851 c 4
 296 851 245 690 245 515 c 4
458 1051 m 1
 581 1376 l 1
 692 1337 l 5
 509 1019 l 1
 458 1051 l 1
EndSplineSet
EndChar

StartChar: ocircumflex.sc
Encoding: 304 -1 277
Width: 1034
VWidth: 0
Flags: HMW
LayerCount: 2
Fore
SplineSet
38 458 m 4
 38 746 229 947 538 947 c 4
 824 947 995 721 995 458 c 4
 995 199 813 -27 488 -27 c 4
 218 -27 38 186 38 458 c 4
245 515 m 4
 245 300 326 79 528 79 c 4
 733 79 781 248 781 412 c 4
 781 618 700 851 500 851 c 4
 296 851 245 690 245 515 c 4
323 1049 m 1
 491 1228 l 1
 546 1243 l 1
 724 1057 l 1
 675 1020 l 1
 512 1130 l 1
 501 1130 l 1
 362 1019 l 1
 323 1049 l 1
EndSplineSet
EndChar

StartChar: otilde.sc
Encoding: 305 -1 278
Width: 1034
VWidth: 0
Flags: HMW
LayerCount: 2
Fore
SplineSet
38 458 m 4
 38 746 229 947 538 947 c 4
 824 947 995 721 995 458 c 4
 995 199 813 -27 488 -27 c 4
 218 -27 38 186 38 458 c 4
245 515 m 4
 245 300 326 79 528 79 c 4
 733 79 781 248 781 412 c 4
 781 618 700 851 500 851 c 4
 296 851 245 690 245 515 c 4
279 1048 m 2
 279 1048 319 1202 415 1190 c 2
 641 1161 l 2
 666 1158 697 1201 697 1201 c 1
 746 1199 l 2
 746 1199 699 1043 602 1056 c 2
 377 1088 l 2
 349 1092 318 1039 318 1039 c 1
 279 1048 l 2
EndSplineSet
EndChar

StartChar: odieresis.sc
Encoding: 306 -1 279
Width: 1034
VWidth: 0
Flags: HMW
LayerCount: 2
Fore
SplineSet
38 458 m 4
 38 746 229 947 538 947 c 4
 824 947 995 721 995 458 c 4
 995 199 813 -27 488 -27 c 4
 218 -27 38 186 38 458 c 4
245 515 m 4
 245 300 326 79 528 79 c 4
 733 79 781 248 781 412 c 4
 781 618 700 851 500 851 c 4
 296 851 245 690 245 515 c 4
306 1121 m 0
 306 1168 351 1198 391 1198 c 0
 435 1198 477 1167 477 1121 c 0
 477 1072 435 1039 391 1039 c 0
 348 1039 306 1072 306 1121 c 0
574 1121 m 0
 574 1168 619 1198 659 1198 c 0
 703 1198 746 1167 746 1121 c 0
 746 1072 703 1039 659 1039 c 0
 616 1039 574 1072 574 1121 c 0
EndSplineSet
EndChar

StartChar: ugrave.sc
Encoding: 307 -1 280
Width: 1142
VWidth: 0
Flags: HMW
LayerCount: 2
Fore
SplineSet
46 854 m 5
 59 930 l 5
 541 930 l 1
 532 854 l 1
 393 816 l 1
 393 360 l 2
 393 170 483 105 612 105 c 0
 752 105 837 154 838 332 c 2
 841 812 l 1
 688 854 l 1
 698 930 l 1
 1116 930 l 1
 1105 854 l 1
 969 816 l 1
 964 365 l 2
 961 78 812 -27 562 -27 c 0
 392 -27 200 30 200 319 c 2
 200 812 l 1
 46 854 l 5
392 1342 m 1
 506 1380 l 1
 638 1047 l 1
 582 1012 l 1
 392 1342 l 1
EndSplineSet
EndChar

StartChar: uacute.sc
Encoding: 308 -1 281
Width: 1142
VWidth: 0
Flags: HMW
LayerCount: 2
Fore
SplineSet
46 854 m 5
 59 930 l 5
 541 930 l 1
 532 854 l 1
 393 816 l 1
 393 360 l 2
 393 170 483 105 612 105 c 0
 752 105 837 154 838 332 c 2
 841 812 l 1
 688 854 l 1
 698 930 l 1
 1116 930 l 1
 1105 854 l 1
 969 816 l 1
 964 365 l 2
 961 78 812 -27 562 -27 c 0
 392 -27 200 30 200 319 c 2
 200 812 l 1
 46 854 l 5
540 1054 m 1
 664 1379 l 1
 774 1340 l 5
 592 1022 l 1
 540 1054 l 1
EndSplineSet
EndChar

StartChar: ucircumflex.sc
Encoding: 309 -1 282
Width: 1152
VWidth: 0
Flags: HMW
LayerCount: 2
Fore
SplineSet
46 854 m 5
 59 930 l 5
 541 930 l 1
 532 854 l 1
 393 816 l 1
 393 360 l 2
 393 170 483 105 612 105 c 0
 752 105 837 154 838 332 c 2
 841 812 l 1
 688 854 l 1
 698 930 l 1
 1116 930 l 1
 1105 854 l 1
 969 816 l 1
 964 365 l 2
 961 78 812 -27 562 -27 c 0
 392 -27 200 30 200 319 c 2
 200 812 l 1
 46 854 l 5
391 1055 m 1
 559 1234 l 1
 614 1249 l 1
 792 1063 l 1
 743 1026 l 1
 580 1136 l 1
 569 1136 l 1
 430 1025 l 1
 391 1055 l 1
EndSplineSet
EndChar

StartChar: udieresis.sc
Encoding: 310 -1 283
Width: 1152
VWidth: 0
Flags: HMW
LayerCount: 2
Fore
SplineSet
46 854 m 5
 59 930 l 5
 541 930 l 1
 532 854 l 1
 393 816 l 1
 393 360 l 2
 393 170 483 105 612 105 c 0
 752 105 837 154 838 332 c 2
 841 812 l 1
 688 854 l 1
 698 930 l 1
 1116 930 l 1
 1105 854 l 1
 969 816 l 1
 964 365 l 2
 961 78 812 -27 562 -27 c 0
 392 -27 200 30 200 319 c 2
 200 812 l 1
 46 854 l 5
382 1141 m 0
 382 1188 426 1218 466 1218 c 0
 510 1218 552 1187 552 1141 c 0
 552 1092 510 1059 466 1059 c 0
 423 1059 382 1092 382 1141 c 0
650 1141 m 0
 650 1188 694 1218 734 1218 c 0
 778 1218 822 1187 822 1141 c 0
 822 1092 778 1059 734 1059 c 0
 691 1059 650 1092 650 1141 c 0
EndSplineSet
EndChar

StartChar: yacute.sc
Encoding: 311 -1 284
Width: 1001
VWidth: 0
Flags: HMW
LayerCount: 2
Fore
SplineSet
12 854 m 1
 25 930 l 1
 483 930 l 1
 471 854 l 1
 353 816 l 1
 529 493 l 1
 697 812 l 1
 574 854 l 1
 584 930 l 1
 939 930 l 1
 929 854 l 1
 834 816 l 1
 586 385 l 1
 586 114 l 1
 737 80 l 5
 727 0 l 5
 243 0 l 1
 253 74 l 1
 393 121 l 1
 393 360 l 1
 140 812 l 1
 12 854 l 1
478 1053 m 1
 601 1378 l 1
 712 1339 l 5
 529 1021 l 1
 478 1053 l 1
EndSplineSet
EndChar

StartChar: ydieresis.sc
Encoding: 312 -1 285
Width: 2048
VWidth: 0
Flags: HMW
LayerCount: 2
Fore
SplineSet
6 854 m 1
 19 930 l 1
 477 930 l 1
 465 854 l 1
 347 816 l 1
 523 493 l 1
 691 812 l 1
 568 854 l 1
 578 930 l 1
 933 930 l 1
 923 854 l 1
 828 816 l 1
 580 385 l 1
 580 114 l 1
 731 80 l 5
 721 0 l 5
 237 0 l 1
 247 74 l 1
 387 121 l 1
 387 360 l 1
 134 812 l 1
 6 854 l 1
281 1137 m 0
 281 1184 326 1214 366 1214 c 0
 410 1214 452 1183 452 1137 c 0
 452 1088 410 1055 366 1055 c 0
 323 1055 281 1088 281 1137 c 0
549 1137 m 0
 549 1184 594 1214 634 1214 c 0
 678 1214 721 1183 721 1137 c 0
 721 1088 678 1055 634 1055 c 0
 591 1055 549 1088 549 1137 c 0
EndSplineSet
EndChar

StartChar: alef
Encoding: 195 1488 286
Width: 1061
VWidth: 0
Flags: HMW
LayerCount: 2
Back
SplineSet
857.272 752.041 m 21
 682 521 l 13
 607.908 577.208 l 21
 783.18 808.248 l 13
 857.272 752.041 l 21
EndSplineSet
Fore
SplineSet
825 1039 m 10
 990 848 l 25
 920 666 l 1
 895 669 l 1
 879.06 680.939 624 966 624 966 c 17
 717 1125 l 1
 767 1139 l 1
 779 1098 783.777 1086.72 825 1039 c 10
847 785 m 17
 775 728 703 617 702 466 c 1
 605 571 l 1
 772 864 l 1
 847 785 l 17
189 1127 m 1
 230 1134 l 1
 233.725 1073.14 263.984 1020.03 302 977 c 2
 1000 154 l 1
 916 -8 l 1
 890 -12 l 1
 82 919 l 17
 81 950 l 1
 189 1127 l 1
381 674 m 1
 275.999 628.799 181.362 475.977 271 351 c 2
 375 206 l 2
 399.75 178.191 419 137 419 107 c 0
 419 45.7265 406.447 0 360 0 c 10
 87 0 l 1
 82 58 l 1
 172 83 176.893 102.615 159 154 c 2
 120 266 l 2
 72.8839 401.308 146 607 318 734 c 1
 381 674 l 1
EndSplineSet
Colour: ffffff
EndChar

StartChar: bet
Encoding: 196 1489 287
Width: 980
VWidth: 0
Flags: HMW
LayerCount: 2
Back
SplineSet
685.272 696.041 m 21
 510 465 l 13
 435.908 521.208 l 21
 611.18 752.248 l 13
 685.272 696.041 l 21
EndSplineSet
Fore
SplineSet
941 211 m 5
 899 0 l 1
 78 0 l 1
 55 16 l 1
 92 211 l 5
 941 211 l 5
647 201 m 5
 699.196 229.428 745 383.753 745 533 c 0
 745 722.783 701 828 575 828 c 2
 138 828 l 1
 115 856 l 1
 188 1127 l 1
 249 1149 l 1
 280 1054 297 1038 363 1038 c 2
 631 1038 l 2
 804 1038 855 968 855 644 c 0
 855 464.544 817.018 292.266 740 201 c 5
 647 201 l 5
EndSplineSet
Colour: ffffff
EndChar

StartChar: gimel
Encoding: 197 1490 288
Width: 714
VWidth: 0
Flags: HMW
LayerCount: 2
Back
SplineSet
561.306 655.538 m 21
 562.998 365.542 l 13
 470 365 l 21
 468.308 654.994 l 13
 561.306 655.538 l 21
EndSplineSet
Fore
SplineSet
356 1038 m 2
 388 1038 l 2
 481 1038 556 964 556 799 c 2
 556 382 l 1
 571 300 630 210 687 168 c 1
 570 -8 l 1
 532 -8 l 1
 498 228 l 1
 472 228 l 1
 467 612 l 2
 465 771.312 430 828 339 828 c 2
 131 828 l 1
 108 856 l 1
 181 1127 l 1
 242 1149 l 1
 273 1054 290 1038 356 1038 c 2
503 277 m 17
 466 205.548 294 18.5977 221 0 c 1
 72 0 l 1
 53 25 l 1
 89 224 l 1
 186 224 l 17
 262 230.746 427 268.333 474 357 c 1
 503 277 l 17
EndSplineSet
Colour: ffffff
EndChar

StartChar: dalet
Encoding: 198 1491 289
Width: 994
VWidth: 0
Flags: HMW
LayerCount: 2
Back
SplineSet
794 865 m 17
 795.692 575.004 l 9
 702.694 574.462 l 17
 701.002 864.456 l 9
 794 865 l 17
EndSplineSet
Fore
SplineSet
88 828 m 5
 65 856 l 5
 138 1127 l 1
 199 1149 l 1
 230 1054 247 1038 313 1038 c 2
 915 1038 l 9
 933 1015 l 25
 884 828 l 5
 88 828 l 5
786 842 m 5
 842 263 l 2
 857 107 813.181 28 738 -8 c 1
 690 -8 l 1
 700 842 l 5
 786 842 l 5
EndSplineSet
Colour: ffffff
EndChar

StartChar: he
Encoding: 199 1492 290
Width: 1047
VWidth: 0
Flags: HMW
LayerCount: 2
Back
SplineSet
172 833 m 5
 149 861 l 5
 222 1127 l 5
 283 1149 l 5
 314 1054 331 1038 397 1038 c 6
 999 1038 l 13
 1017 1015 l 29
 968 833 l 5
 172 833 l 5
870 847 m 5
 926 263 l 6
 940.961 106.983 897.181 28 822 -8 c 5
 774 -8 l 5
 784 847 l 5
 870 847 l 5
EndSplineSet
Fore
SplineSet
95 828 m 5
 72 856 l 5
 145 1127 l 1
 206 1149 l 1
 237 1054 254 1038 320 1038 c 2
 965 1038 l 9
 983 1015 l 25
 934 828 l 5
 95 828 l 5
853 842 m 5
 923 263 l 2
 942 108 897.229 28 830 -8 c 1
 782 -8 l 1
 777 842 l 5
 853 842 l 5
134 -8 m 1
 134 390 l 2
 134 514 185 590 210 609 c 1
 249 609 l 1
 270 273 l 2
 280.538 112 242.602 29 172 -8 c 1
 134 -8 l 1
EndSplineSet
Colour: ffffff
EndChar

StartChar: vav
Encoding: 200 1493 291
Width: 517
VWidth: 0
Flags: HMW
LayerCount: 2
Fore
SplineSet
333 -8 m 1
 333 642 l 2
 333 731.353 284 765.941 223 789 c 2
 75 847 l 25
 52 875 l 25
 120 1128 l 1
 180 1148 l 1
 205.69 1070 217.465 1046 256 1029 c 2
 301 1008 l 2
 384.809 971 418.147 914.559 423 773 c 2
 447 73 l 2
 448 38 423 -2 403 -8 c 1
 333 -8 l 1
EndSplineSet
Colour: ffffff
EndChar

StartChar: zayin
Encoding: 201 1494 292
Width: 547
VWidth: 0
Flags: HMW
LayerCount: 2
Back
SplineSet
95 833 m 1
 72 861 l 1
 145 1127 l 1
 206 1149 l 1
 237 1054 254 1038 320 1038 c 2
 965 1038 l 9
 983 1015 l 25
 934 833 l 1
 95 833 l 1
853 847 m 1
 923 263 l 2
 943.652 108.17 897.229 28 830 -8 c 1
 782 -8 l 1
 777 847 l 1
 853 847 l 1
134 -8 m 1
 134 390 l 2
 134 514 185 590 210 609 c 1
 249 609 l 1
 270 273 l 2
 280.538 112 242.602 29 172 -8 c 1
 134 -8 l 1
EndSplineSet
Fore
SplineSet
442 747 m 1
 74 880 l 25
 51 908 l 25
 115 1125 l 1
 175 1144 l 1
 199 1082.28 210 1061.39 246 1050 c 2
 452 979 l 9
 470 956 l 25
 442 747 l 1
328 804 m 17
 303 775 283 738 283 634 c 0
 283 557.597 304 435.766 328 316 c 2
 340 258 l 2
 364 141.316 312 38.4756 282 -8 c 1
 242 -8 l 1
 202 136.914 163 353.778 163 522 c 0
 163 637 232.451 783.378 255 834 c 9
 255 834 300.19 816 328 804 c 17
EndSplineSet
Colour: ffffff
EndChar

StartChar: het
Encoding: 202 1495 293
Width: 1057
VWidth: 0
Flags: HMW
LayerCount: 2
Back
SplineSet
95 833 m 5
 72 861 l 5
 145 1127 l 5
 206 1149 l 5
 237 1054 254 1038 320 1038 c 6
 965 1038 l 13
 983 1015 l 29
 934 833 l 5
 95 833 l 5
853 847 m 5
 923 263 l 6
 943.652 108.17 897.229 28 830 -8 c 5
 782 -8 l 5
 777 847 l 5
 853 847 l 5
134 -8 m 5
 134 390 l 6
 134 514 185 590 210 609 c 5
 249 609 l 5
 270 273 l 6
 280.538 112 242.602 29 172 -8 c 5
 134 -8 l 5
EndSplineSet
Fore
SplineSet
944 828 m 1
 94 828 l 1
 71 856 l 1
 144 1127 l 1
 205 1149 l 1
 236 1054 253 1038 319 1038 c 2
 975 1038 l 9
 993 1015 l 25
 944 828 l 1
847 843 m 1
 934 259 l 2
 955 117 908.229 27.4688 841 -8 c 1
 793 -8 l 1
 771 843 l 1
 847 843 l 1
125 -8 m 1
 140 500 l 2
 145 658.66 193 782.828 233 839 c 1
 307 839 l 1
 271 782.731 261 713.628 275 454 c 2
 282 318 l 2
 290.87 176.733 246.522 41.3936 180 -8 c 1
 125 -8 l 1
EndSplineSet
Colour: ffffff
EndChar

StartChar: tet
Encoding: 203 1496 294
Width: 1027
VWidth: 0
Flags: HMW
LayerCount: 2
Back
SplineSet
914 833 m 5xb0
 64 833 l 5x70
 41 861 l 5
 114 1127 l 5
 175 1149 l 5
 206 1054 223 1038 289 1038 c 6
 945 1038 l 13
 963 1015 l 29
 914 833 l 5xb0
817 848 m 5
 904 259 l 6
 927.53 117.125 878.229 27.4688 811 -8 c 5
 763 -8 l 5
 741 848 l 5
 817 848 l 5
95 -8 m 5
 110 500 l 6
 115 661 163 787 203 844 c 5
 277 844 l 5
 241 787 231 717 245 454 c 6
 252 318 l 6
 260.87 176.733 216.522 41.3936 150 -8 c 5
 95 -8 l 5
EndSplineSet
Fore
SplineSet
376 828 m 1
 97 828 l 1
 74 856 l 1
 147 1127 l 1
 208 1149 l 1
 239 1054 256 1038 322 1038 c 2
 407 1038 l 9
 425 1015 l 25
 376 828 l 1
476 683 m 1
 422 723 l 1
 639 1020 l 1
 677 1051 l 1
 697 1053 718.366 1054.28 736.373 1054.28 c 0
 905 1054.28 968 888.086 968 670 c 0
 968 480 922 239 825 0 c 9
 213 0 l 1
 190 16 l 1
 156.4 101.585 112.635 282.882 112.635 465.716 c 0
 112.635 601.49 137.426 738.123 210 836 c 1
 281 836 l 1
 235.388 770.631 217.588 678.437 217.588 583.703 c 0
 217.588 434.499 261.188 279.034 310 211 c 9
 807 211 l 17
 832 271.146 864 423.975 864 563 c 0
 864 708.168 831 838 727 838 c 2
 637 838 l 1
 589.409 820.433 520.378 742.933 476 683 c 1
EndSplineSet
Colour: ffffff
EndChar

StartChar: yod
Encoding: 204 1497 295
Width: 553
VWidth: 0
Flags: HMW
LayerCount: 2
Fore
SplineSet
372 996 m 2
 542.386 916.831 479 661 278 529 c 1
 233 582 l 1
 311 648 331.039 747.959 263 780 c 2
 91 861 l 9
 68 889 l 25
 142 1125 l 1
 202 1144 l 1
 226 1077.03 236 1059 273 1042 c 2
 372 996 l 2
EndSplineSet
Colour: ffffff
EndChar

StartChar: kaf.final
Encoding: 205 1498 296
Width: 960
VWidth: 0
Flags: HMW
LayerCount: 2
Fore
SplineSet
87 828 m 1
 64 856 l 1
 137 1127 l 1
 198 1149 l 1
 229 1054 246 1038 312 1038 c 2
 743 1038 l 17
 808 1021 855 951 859 780 c 2
 884 -297 l 2
 885 -331 860 -372 840 -378 c 1
 770 -378 l 1
 765 641 l 2
 764.303 783.001 705 828 647 828 c 10
 87 828 l 1
EndSplineSet
Colour: ffffff
EndChar

StartChar: kaf
Encoding: 206 1499 297
Width: 927
VWidth: 0
Flags: HMW
LayerCount: 2
Back
SplineSet
278 1038 m 6
 700 1038 l 6
 836 1038 870 897.052 870 725 c 4
 870 326 777.062 44 398 0 c 6
 173 -25 l 5
 142 0 l 5
 115 66 55 276 55 471 c 4
 55 633 140 824 197 845 c 5
 285 845 l 5
 224 819 181 708 181 599 c 4
 181 458 237 250 281 209 c 5
 440 217 l 6
 689.395 230 764 392 764 570 c 4
 764 764 710 833 602 833 c 6
 53 833 l 5
 30 861 l 5
 103 1127 l 5
 164 1149 l 5
 195 1054 212 1038 278 1038 c 6
EndSplineSet
Fore
SplineSet
559 828 m 2
 116 828 l 1
 93 856 l 1
 166 1127 l 1
 227 1149 l 1
 258 1054 275 1038 341 1038 c 2
 635 1038 l 2
 799.698 1038 871 889.878 871 534 c 0
 871 186 733.724 0 523 0 c 10
 90 0 l 1
 67 16 l 1
 112 211 l 1
 543 211 l 18
 698.413 211 764 304.487 764 520 c 0
 764 768.805 715.765 828 559 828 c 2
EndSplineSet
Colour: ffffff
EndChar

StartChar: lamed
Encoding: 207 1500 298
Width: 960
VWidth: 0
Flags: HMW
LayerCount: 2
Fore
SplineSet
189 1262 m 0
 189 1177 194.5 1080 211 1037 c 1
 642 1037 l 2
 847 1037 884 962 884 746 c 0
 884 474.713 803 264 578 153 c 2
 252 -8 l 1
 224 -8 l 1
 272 219 l 5
 556 353 l 6
 738 441.8 777 564.383 777 686 c 0
 777 800.868 733 825 568 825 c 2
 102 825 l 1
 72 868 l 1
 72 1035.47 102 1265.5 124 1436 c 0
 147 1604 164 1621 240 1621 c 0
 301 1621 350 1616 377 1610 c 1
 353 1425 l 1
 264 1425 l 2
 205 1425 189 1381 189 1262 c 0
EndSplineSet
Colour: ffffff
EndChar

StartChar: mem.final
Encoding: 208 1501 299
Width: 1014
VWidth: 0
Flags: HMW
LayerCount: 2
Back
SplineSet
924 833 m 5xb0
 74 833 l 5x70
 51 861 l 5
 124 1127 l 5
 185 1149 l 5
 216 1054 233 1038 299 1038 c 6
 955 1038 l 13
 973 1015 l 29
 924 833 l 5xb0
827 848 m 5
 914 259 l 6
 937.53 117.125 888.229 27.4688 821 -8 c 5
 773 -8 l 5
 751 848 l 5
 827 848 l 5
105 -8 m 5
 120 500 l 6
 125 661 173 787 213 844 c 5
 287 844 l 5
 251 787 241 717 255 454 c 6
 262 318 l 6
 270.87 176.733 226.522 41.3936 160 -8 c 5
 105 -8 l 5
EndSplineSet
Fore
SplineSet
331 1038 m 2
 785 1038 l 2
 874 1038 920 967 920 684 c 2
 920 196 l 18
 920 95 898 0 849 0 c 10
 138 0 l 1
 115 16 l 1
 118 521 l 2
 119.054 699.206 178.76 799.633 265 840 c 1
 371 840 l 1
 285 811.503 228 761 228 557 c 2
 228 308 l 2
 228 250 231 208 285 208 c 10
 761 208 l 18
 822 208 823 281.144 823 379 c 2
 823 630 l 2
 823 765.576 788 828 699 828 c 2
 106 828 l 1
 83 856 l 1
 156 1127 l 1
 217 1149 l 1
 248 1054 265 1038 331 1038 c 2
EndSplineSet
Colour: ffffff
EndChar

StartChar: mem
Encoding: 209 1502 300
Width: 1066
VWidth: 0
Flags: HMW
LayerCount: 2
Fore
SplineSet
306 1038 m 2
 318 1038 l 2
 379.875 1038 400 977.464 363 841 c 2
 337 752 l 1
 352 752 l 1
 590 1009 l 1
 631 1040 l 1
 777 1040 l 2
 903 1040 958 868 975 682 c 2
 1014 248 l 2
 1033.49 31.0674 971 0 878 0 c 10
 401 0 l 1
 378 16 l 1
 426 209 l 1
 830 209 l 18
 899 209 921.368 246.685 910 369 c 2
 885 638 l 2
 874 743.773 800 828 738 828 c 2
 588 828 l 1
 510 811.345 402 723.173 333 635 c 9
 284 252 l 2
 264.923 115 220.41 30.1748 160 -8 c 1
 76 -8 l 1
 225 579 l 2
 281.689 807.714 265 834 202 834 c 2
 87 834 l 1
 64 862 l 1
 137 1127 l 1
 198 1149 l 1
 227 1054 243 1038 306 1038 c 2
EndSplineSet
Colour: ffffff
EndChar

StartChar: nun.final
Encoding: 210 1503 301
Width: 518
VWidth: 0
Flags: HMW
LayerCount: 2
Fore
SplineSet
422 773 m 2
 446 -297 l 2
 446.809 -333.049 422 -372 402 -378 c 1
 327 -378 l 1
 332 642 l 2
 332.392 721.998 290.307 756.231 222 783 c 2
 74 841 l 25
 51 869 l 25
 119 1128 l 1
 179 1148 l 1
 204.69 1070 216.465 1046 255 1029 c 2
 300 1008 l 2
 383.809 971 419 921 422 773 c 2
EndSplineSet
Colour: ffffff
EndChar

StartChar: nun
Encoding: 211 1504 302
Width: 589
VWidth: 0
Flags: HMW
LayerCount: 2
Fore
SplineSet
503 743 m 2
 510 153 l 2
 510.748 89.9492 509 55 476 0 c 1
 67 0 l 9
 74 194 l 21
 326 194 l 6
 366 194 410 220 410 279 c 6
 410 611 l 2
 410 705 363.843 737.974 295 781 c 2
 119 880 l 25
 96 908 l 25
 164 1125 l 1
 224 1145 l 1
 250 1068.97 269 1049 300 1029 c 2
 389 973 l 2
 464.322 923.944 501 882 503 743 c 2
EndSplineSet
Colour: ffffff
EndChar

StartChar: samekh
Encoding: 212 1505 303
Width: 992
VWidth: 0
Flags: HMW
LayerCount: 2
Back
SplineSet
376 833 m 5xcc
 97 833 l 5xac
 74 861 l 5
 147 1127 l 5
 208 1149 l 5
 239 1054 256 1038 322 1038 c 6
 407 1038 l 13
 425 1015 l 29
 376 833 l 5xcc
481 693 m 5
 427 733 l 5
 639 1020 l 5
 677 1051 l 5
 697 1053 718.366 1054.28 736.373 1054.28 c 4
 905 1054.28 968 888.086 968 670 c 4
 968 480 922 239 825 0 c 13
 213 0 l 5
 190 16 l 5
 156.4 101.585 112.635 282.882 112.635 465.716 c 4
 112.635 603.323 137.426 741.801 210 841 c 5
 281 841 l 5
 235.388 774.336 217.588 680.314 217.588 583.703 c 4
 217.588 432.497 261.188 274.947 310 206 c 13
 807 206 l 21
 832 267 864 422 864 563 c 4
 864 710.807 831 843 727 843 c 6
 637 843 l 5xbc
 590.887 826 524 751 481 693 c 5
EndSplineSet
Fore
SplineSet
328 1038 m 2
 683 1038 l 2
 866 1038 921.546 856.989 921.546 601.235 c 0
 921.546 271.898 799.083 -15.9999 488 -16 c 2
 447 -16 l 2
 214.027 -16 98.0156 217.701 98.0156 473.182 c 0
 98.0156 623.165 144.44 765.029 217 840 c 1
 302 840 l 1
 246.647 776.801 210.55 681.632 210.55 539.093 c 0
 210.55 344.573 301.45 200 481 200 c 6
 530 200 l 6
 734 200 814 373.513 814 550 c 0
 814 743.437 756.667 828 642 828 c 2
 103 828 l 1
 80 856 l 1
 153 1127 l 1
 214 1149 l 1
 245 1054 262 1038 328 1038 c 2
EndSplineSet
Colour: ffffff
EndChar

StartChar: ayin
Encoding: 213 1506 304
Width: 987
VWidth: 0
Flags: HMW
LayerCount: 2
Back
SplineSet
800 1039 m 14
 965 848 l 29
 900 671 l 5
 875 674 l 5
 859.06 685.939 604 971 604 971 c 21
 692 1125 l 5
 742 1139 l 5
 754 1098 758.777 1086.72 800 1039 c 14
822 785 m 21
 750 728 678 617 677 466 c 5
 580 571 l 5
 747 864 l 5
 822 785 l 21
164 1127 m 5
 205 1134 l 5
 208.725 1073.14 238.984 1020.03 277 977 c 6
 975 154 l 5
 891 -8 l 5
 865 -12 l 5
 57 919 l 21
 56 950 l 5
 164 1127 l 5
356 674 m 5
 250.999 628.799 156.362 475.977 246 351 c 6
 350 206 l 6
 374.75 178.191 394 137 394 107 c 4
 394 45.7265 381.447 0 335 0 c 14
 62 0 l 5
 57 58 l 5
 147 83 151.893 102.615 134 154 c 6
 95 266 l 6
 47.8839 401.308 121 607 293 734 c 5
 356 674 l 5
EndSplineSet
Fore
SplineSet
419 -40 m 2
 68 -111 l 1
 50 -93 l 1
 78 109 l 1
 471 180 l 2
 692.806 220.072 717 288 750.141 549 c 0
 763.012 650.368 769.933 760.697 761 833 c 1
 851 833 l 1
 853.318 777.511 852.78 671.113 841.46 561 c 0
 801.249 192.581 727 22 419 -40 c 2
394 788 m 2
 481 162 l 1
 399 147 l 1
 352.649 440 l 2
 307 726 286.06 822 235 822 c 2
 97 822 l 1
 74 850 l 1
 147 1127 l 1
 208 1149 l 1
 226.259 1055.71 233.282 1040 276 1040 c 6
 284 1040 l 6
 359.725 1040 373.019 945.411 394 788 c 2
919 822.333 m 1
 664 822.333 l 1
 641 850.333 l 1
 714 1127.33 l 1
 775 1149.33 l 1
 806 1056.04 823 1040.33 889 1040.33 c 6
 951 1040.33 l 13
 969 1017.33 l 29
 919 822.333 l 1
EndSplineSet
Colour: ffffff
EndChar

StartChar: pe.final
Encoding: 214 1507 305
Width: 912
VWidth: 0
Flags: HMW
LayerCount: 2
Back
SplineSet
331 1038 m 6xd8
 785 1038 l 6xd8
 874 1038 920 967 920 684 c 6
 920 196 l 22
 920 95 898 0 849 0 c 14
 144 0 l 5
 121 16 l 5
 118 521 l 6
 116.853 713.999 180 804 268 845 c 5
 371 845 l 5xb8
 285 816 228 765 228 557 c 6
 228 306 l 6
 228 248 231 206 285 206 c 14
 761 206 l 22
 822 206 823 280 823 379 c 6
 823 630 l 6
 823 769 782 833 709 833 c 6xd8
 106 833 l 5xb8
 83 861 l 5
 156 1127 l 5
 217 1149 l 5
 248 1054 265 1038 331 1038 c 6xd8
EndSplineSet
Fore
SplineSet
101 828 m 1
 78 856 l 1
 151 1127 l 1
 212 1149 l 1
 243 1054 260 1038 326 1038 c 2
 624 1038 l 18
 735 1038 812 928 819 713 c 2
 848 -297 l 2
 849 -332 824 -372 804 -378 c 1
 734 -378 l 1
 729 584 l 2
 728 773.125 666 828 567 828 c 10
 101 828 l 1
342 841 m 17
 252 823.492 233 704.825 233 663 c 0
 233 563 260 537 333 537 c 2
 475 537 l 1
 440 335 l 5
 390.969 330 303.483 326 191 326 c 4
 143 326 106 367.587 106 457 c 2
 106 520 l 2
 106 660.807 183.163 789.798 232 841 c 1
 342 841 l 17
EndSplineSet
Colour: ffffff
EndChar

StartChar: pe
Encoding: 215 1508 306
Width: 952
VWidth: 0
Flags: HMW
LayerCount: 2
Back
SplineSet
101 833 m 5xb8
 78 861 l 5
 151 1127 l 5
 212 1149 l 5
 243 1054 260 1038 326 1038 c 6
 624 1038 l 22
 735 1038 812 928 819 713 c 6xd8
 848 -297 l 6
 849 -332 824 -372 804 -378 c 5
 734 -378 l 5xd4
 729 584 l 6
 728 777 666 833 567 833 c 14xd8
 101 833 l 5xb8
342 846 m 21xb0
 252 828 233 706 233 663 c 4
 233 563 260 537 333 537 c 6
 475 537 l 5
 440 340 l 5
 390.969 335 303.483 331 191 331 c 4
 143 331 106 371 106 457 c 6
 106 520 l 6
 106 663 183.163 794 232 846 c 5
 342 846 l 21xb0
EndSplineSet
Fore
SplineSet
340 1038 m 2
 661 1038 l 2
 818 1038 896 885 896 514 c 0
 896 180 839 0 689 0 c 10
 99 0 l 1
 76 16 l 1
 116 206 l 1
 634 206 l 18
 743 206 789 291 789 500 c 0
 789 769 740 833 585 833 c 10
 115 833 l 1
 92 861 l 1
 165 1127 l 1
 226 1149 l 1
 257 1054 274 1038 340 1038 c 2
346 846 m 17
 253 826 237 719 237 680 c 0
 237 614 264 597 337 597 c 2
 489 597 l 1
 454 400 l 1
 404.969 395 317.483 391 205 391 c 0
 157 391 120 425 120 497 c 2
 120 570 l 2
 120 679 186.752 802 229 846 c 1
 346 846 l 17
EndSplineSet
Colour: ffffff
EndChar

StartChar: tsadi.final
Encoding: 216 1509 307
Width: 1026
VWidth: 0
Flags: HMW
LayerCount: 2
Fore
SplineSet
915 828 m 1
 589 828 l 1
 566 856 l 1
 639 1127 l 1
 700 1149 l 1
 731 1054 748 1038 814 1038 c 2
 946 1038 l 9
 964 1015 l 25
 915 828 l 1
814 840 m 17
 713 695.986 524 352.34 482 110 c 1
 441 322 l 9
 715 869 l 9
 715 869 776.285 851.6 814 840 c 17
403 786 m 2
 461 279 l 1
 482 110 l 1
 511 -239 l 2
 516 -302 497 -358 473 -378 c 1
 396 -378 l 1
 367 265 l 2
 343.901 713.684 325.423 760.861 203 798 c 2
 74 843 l 25
 51 871 l 25
 119 1128 l 1
 179 1148 l 1
 204.69 1071.97 216 1043.7 255 1032 c 6
 281 1024 l 6
 364.809 986.528 389 934.877 403 786 c 2
EndSplineSet
Colour: ffffff
EndChar

StartChar: tsadi
Encoding: 217 1510 308
Width: 1046
VWidth: 0
Flags: HMW
LayerCount: 2
Fore
SplineSet
933 828 m 1
 607 828 l 1
 584 856 l 1
 657 1127 l 1
 718 1149 l 1
 749 1054 766 1038 832 1038 c 2
 964 1038 l 9
 982 1015 l 25
 933 828 l 1
822 840 m 17
 768.469 759.587 714 557.9 714 375 c 1
 618 477 l 9
 731 859 l 9
 731 859 787.332 847.6 822 840 c 17
334 1038 m 2
 383 1038 420 965.579 420 780 c 0
 420 686.786 434.781 670.948 510 600 c 2
 651 467.006 l 1
 670 464 l 1
 908 236.307 l 1
 924 211 l 1
 932 139.394 896 24.8232 879 0 c 1
 89 0 l 1
 66 16 l 1
 124 207 l 1
 687 207 l 1
 687 227 l 1
 417 487 l 2
 345 556 342 616.756 342 722 c 0
 342 791.712 311.174 828 258 828 c 2
 103 828 l 1
 80 856 l 1
 153 1127 l 1
 214 1149 l 1
 243 1054 259 1038 322 1038 c 2
 334 1038 l 2
EndSplineSet
Colour: ffffff
EndChar

StartChar: qof
Encoding: 218 1511 309
Width: 938
VWidth: 0
Flags: HMW
LayerCount: 2
Fore
SplineSet
323 1038 m 2
 641 1038 l 2
 761 1038 885 945 885 692 c 0
 885 368.407 781.09 287.894 632 189 c 2
 433 57 l 1
 415 75 l 1
 423 280 l 5
 557 365 l 6
 730.709 475.548 787 509.122 787 672 c 0
 787 794.087 702 828 567 828 c 2
 98 828 l 1
 75 856 l 1
 148 1127 l 1
 209 1149 l 1
 240 1054 257 1038 323 1038 c 2
125 -378 m 1
 125 363 l 2
 125 522 202 612 233 628 c 1
 268 618 l 1
 252.619 540 239 468 249 231 c 2
 263 -107 l 2
 269.518 -264.351 233.845 -342 162 -378 c 1
 125 -378 l 1
EndSplineSet
Colour: ffffff
EndChar

StartChar: resh
Encoding: 219 1512 310
Width: 912
VWidth: 0
Flags: HMW
LayerCount: 2
Fore
SplineSet
313 1038 m 2
 682 1038 l 2
 767 1038 802 962.045 808 766 c 6
 830 73 l 2
 831 38 806 -2 786 -8 c 1
 716 -8 l 1
 716 635 l 6
 716 767 695 826 623 826 c 6
 88 826 l 5
 65 854 l 5
 138 1127 l 1
 199 1149 l 1
 230 1054 247 1038 313 1038 c 2
EndSplineSet
Colour: ffffff
EndChar

StartChar: shin
Encoding: 220 1513 311
Width: 1183
VWidth: 0
Flags: HMW
LayerCount: 2
Back
SplineSet
376 833 m 1xcc
 97 833 l 1xac
 74 861 l 1
 147 1127 l 1
 208 1149 l 1
 239 1054 256 1038 322 1038 c 2
 407 1038 l 9
 425 1015 l 25
 376 833 l 1xcc
481 693 m 1
 427 733 l 1
 639 1020 l 1
 677 1051 l 1
 697 1053 718.366 1054.28 736.373 1054.28 c 0
 905 1054.28 968 888.086 968 670 c 0
 968 480 922 239 825 0 c 9
 213 0 l 1
 190 16 l 1
 156.4 101.585 112.635 282.882 112.635 465.716 c 0
 112.635 603.323 137.426 741.801 210 841 c 1
 281 841 l 1
 235.388 774.336 217.588 680.314 217.588 583.703 c 0
 217.588 432.497 261.188 274.947 310 206 c 9
 807 206 l 17
 832 267 864 422 864 563 c 0
 864 710.807 831 843 727 843 c 2
 637 843 l 1xbc
 590.887 826 524 751 481 693 c 1
EndSplineSet
Fore
SplineSet
301 220 m 1
 416 220 l 1
 423 214 l 1
 541 214 l 2
 742.049 214 839 367.774 951 841 c 5
 1040 841 l 5
 899 206.509 740 0 459 0 c 2
 214 0 l 1
 191 16 l 1
 119 188.581 59 640.482 210 839 c 5
 282 839 l 5
 179 675.946 224 345.813 301 220 c 1
1152 1038 m 9
 1170 1015 l 25
 1121 831 l 5
 865 831 l 5
 842 859 l 5
 893 1038 l 1
 1152 1038 l 9
763 1038 m 9
 781 1015 l 25
 732 831 l 5
 476 831 l 5
 453 859 l 5
 498 1038 l 1
 763 1038 l 9
349 831 m 5
 93 831 l 5
 70 859 l 5
 143 1127 l 1
 204 1149 l 1
 235 1054 252 1038 318 1038 c 2
 380 1038 l 9
 398 1015 l 25
 349 831 l 5
654 837 m 5
 478 175 l 1
 383 218 l 1
 432.3 302.319 533.8 715.978 557 837 c 13
 654 837 l 5
EndSplineSet
Colour: ffffff
EndChar

StartChar: tav
Encoding: 221 1514 312
Width: 1084
VWidth: 0
Flags: HMW
LayerCount: 2
Fore
SplineSet
415 1038 m 2
 854 1038 l 2
 943.048 1038 979.714 964 986 773 c 2
 1008 73 l 2
 1009 38 984 -2 964 -8 c 1
 888 -8 l 1
 888 642 l 2
 888 770.544 867 828 795 828 c 2
 190 828 l 1
 167 856 l 1
 240 1127 l 1
 301 1149 l 1
 332 1054 349 1038 415 1038 c 2
353.357 221.041 m 4
 353.357 111.122 316.971 1.31751e-05 209 0 c 10
 46 0 l 9
 81 217 l 29
 180 217 l 22
 210.662 217 231.765 255.861 231.765 299.591 c 4
 231.765 344.709 213.097 493.735 213.097 560.085 c 0
 213.097 682.189 248 773.832 288 839 c 1
 377 839 l 1
 329.503 787.672 311.942 719.62 311.942 623.73 c 0
 311.942 499.845 353.357 345.144 353.357 221.041 c 4
EndSplineSet
Colour: ffffff
EndChar

StartChar: a.alt
Encoding: 313 -1 313
Width: 830
VWidth: 0
Flags: HW
HStem: -24 123<190.5 410.153> 1 86<782 819> 428 57<407.813 508> 807 93<246.628 440.012>
VStem: 47 175<123.621 303.932> 81 139<631.359 776.283> 508 162<149.1 428 480.961 737.155>
LayerCount: 2
Fore
SplineSet
47 168 m 0
 47 315 182 462 508 485 c 1
 508 540 l 2
 508 654.776 475.61 767 361 767 c 0
 264.489 767 158.219 727.556 104 696 c 1
 72 764 l 0
 126.449 828 252 900 423 900 c 0
 601 900 670 804 670 593 c 2
 670 230 l 2
 670 138 689 111 782 96 c 2
 832 87 l 1
 819 1 l 1
 772 -5 742 -18 683 -18 c 0
 567 -18 528 57 528 116 c 2
 528 131 l 1
 517 131 l 1
 490 78 407 -24 243 -24 c 0
 138 -24 47 46 47 168 c 0
222 215 m 0
 222 165 260 99 334 99 c 0
 404 99 475 151 508 188 c 1
 508 428 l 1
 290 385 222 311 222 215 c 0
EndSplineSet
EndChar

StartChar: OE
Encoding: 314 338 314
Width: 1708
VWidth: 0
Flags: W
HStem: -27 106<492.617 917.022> 0 96<995 1487> 583 93<995 1267> 1152 92<995 1464> 1176 96<452.389 792.051>
VStem: 64 222<360.715 903.492> 802 193<101.617 583 676 1147.73> 1300 87<421 484.024> 1504 86<937 1014.06>
LayerCount: 2
Fore
SplineSet
64 619 m 0xa780
 64 1009 266 1272 660 1272 c 0xaf80
 730 1272 792 1263 845 1244 c 1
 1622 1244 l 1
 1590 924 l 1
 1504 937 l 1
 1464 1152 l 1
 995 1152 l 1
 995 676 l 1
 1283 676 l 1
 1325 796 l 1
 1419 810 l 1
 1387 421 l 1
 1300 408 l 1
 1267 583 l 1
 995 583 l 1
 995 96 l 1
 1487 96 l 1
 1585 326 l 1
 1668 313 l 1
 1639 0 l 1
 798 0 l 1x7780
 732 -16 663 -27 590 -27 c 0
 252 -27 64 247 64 619 c 0xa780
286 676 m 0
 286 415 373 79 633 79 c 0
 692 79 749 92 802 122 c 1
 802 1126 l 1
 746 1159 681 1176 611 1176 c 0
 393 1176 286 1010 286 676 c 0
EndSplineSet
Colour: ffff
EndChar

StartChar: oe
Encoding: 315 339 315
Width: 1407
VWidth: 0
Flags: W
HStem: -30 123<977.147 1237.32> -28 104<360.889 571.038> 801 99<307.703 533.721 920.568 1120.6>
VStem: 54 179<247.468 652.966> 657 179<255.297 444.454> 1158 177<548.992 763.979>
LayerCount: 2
Fore
SplineSet
54 426 m 0x7c
 54 730 242 900 465 900 c 0
 589 900 721 819 755 736 c 1
 817 819 930 899 1068 899 c 0
 1213 899 1335 792 1335 581 c 0
 1335 550 1326 485 1318 451 c 1
 836 445 l 1
 836 281 933 93 1114 93 c 0
 1184 93 1234 101 1338 157 c 1
 1363 104 l 1
 1284 21 1164 -30 1032 -30 c 0xbc
 901 -30 808 39 738 131 c 1
 649 18 562 -28 441 -28 c 0
 177 -28 54 169 54 426 c 0x7c
233 497 m 0
 233 291 311 76 475 76 c 0x7c
 583 76 657 218 657 359 c 0
 657 557 595 801 424 801 c 0
 273 801 233 654 233 497 c 0
837 527 m 5
 1151 549 l 1
 1155 565 1158 599 1158 615 c 0
 1158 734 1115 801 1019 801 c 0
 939 801 847 721 837 527 c 5
EndSplineSet
Colour: ffff
EndChar

StartChar: trademark
Encoding: 316 8482 316
Width: 1146
VWidth: 0
Flags: W
HStem: 0 74<35 85.9386 451.413 504 1139 1189.63 1608.77 1664> 1168 76<102 154.464 1544.62 1608>
DStem2: 202 121 334 114 0.072446 0.997372<2.58126 857.904> 581 1050 397 967 0.344078 -0.938941<14.6218 786.499> 842 308 868 50 0.370887 0.928678<0 797.311> 1440 1130 1249 1004 0.0511142 -0.998693<116.072 1000.78>
LayerCount: 2
Fore
SplineSet
540.25 684.2 m 1
 545.2 737.5 l 1
 620.35 758.65 l 1
 653.2 1170.9 l 1
 570.85 1189.8 l 1
 575.35 1244 l 1
 814.8 1244 l 1
 849.9 1156.7 l 1
 948.35 852.8 l 1
 1056.85 1171.55 l 1
 1088.8 1244 l 1
 1316.55 1244 l 1
 1312.05 1189.8 l 1
 1236.45 1172.7 l 1
 1259.85 755.5 l 1
 1341.75 740.2 l 1
 1337.25 684.2 l 1
 1066.05 684.2 l 1
 1071 737.5 l 1
 1145.7 758.65 l 1
 1120.5 1136 l 1
 980.05 707.7 l 1
 883.45 699.15 l 1
 728.1 1119.35 l 1
 699.75 755.5 l 1
 782.1 740.2 l 1
 776.25 684.2 l 1
 540.25 684.2 l 1
3 1244 m 1
 542.95 1244 l 1
 527.65 1071.9 l 1
 464.9 1078.65 l 1
 447.8 1182.6 l 1
 325.55 1182.6 l 1
 325.55 755.5 l 1
 408.8 740.2 l 1
 402.5 684.2 l 1
 129.95 684.2 l 1
 133.1 737.5 l 1
 209.15 758.65 l 1
 209.15 1182.6 l 1
 91.4004 1182.6 l 1
 67.5498 1073.25 l 1
 6.59961 1079.1 l 1
 3 1244 l 1
EndSplineSet
Colour: ffff
EndChar

StartChar: quotedblbase
Encoding: 317 8222 317
Width: 749
VWidth: 0
Flags: W
HStem: -323 69<72.2213 134.506 390.221 452.523> 27 181<105.346 214.831 422.707 530.781>
VStem: 236 136<-161.064 77.9166> 553 138<-161.064 77.9166>
LayerCount: 2
Fore
SplineSet
54 -254 m 1
 185 -220 236 -144 236 -80 c 0
 236 -24 190 27 120 27 c 0
 110 27 100 25 90 24 c 1
 82 45 76 64 76 87 c 0
 76 167 148 208 198 208 c 0
 268 208 372 151 372 0 c 0
 372 -93 340 -253 77 -323 c 1
 54 -254 l 1
372 -254 m 1
 503 -220 553 -144 553 -80 c 0
 553 -24 508 27 438 27 c 0
 428 27 418 25 408 24 c 1
 400 45 393 64 393 87 c 0
 393 167 466 208 516 208 c 0
 586 208 691 151 691 0 c 0
 691 -93 658 -253 395 -323 c 1
 372 -254 l 1
EndSplineSet
Colour: ffff
EndChar

